<svg xmlns="http://www.w3.org/2000/svg" xmlns:xlink="http://www.w3.org/1999/xlink" width="500" zoomAndPan="magnify" viewBox="0 0 375 374.999991" height="500" preserveAspectRatio="xMidYMid meet" version="1.0"><defs><g/><clipPath id="56aee5a559"><path d="M 4.5 3.941406 L 82.390625 3.941406 L 82.390625 83 L 4.5 83 Z M 4.5 3.941406 " clip-rule="nonzero"/></clipPath><clipPath id="2fd8d61c70"><path d="M 42 30 L 44 30 L 44 66.363281 L 42 66.363281 Z M 42 30 " clip-rule="nonzero"/></clipPath><clipPath id="d0fca5357d"><path d="M 42 28.214844 L 45 28.214844 L 45 31 L 42 31 Z M 42 28.214844 " clip-rule="nonzero"/></clipPath><clipPath id="b4ceb6930f"><path d="M 26.105469 31 L 44 31 L 44 39 L 26.105469 39 Z M 26.105469 31 " clip-rule="nonzero"/></clipPath><clipPath id="0e857a9371"><path d="M 43 31 L 60.28125 31 L 60.28125 39 L 43 39 Z M 43 31 " clip-rule="nonzero"/></clipPath><clipPath id="173712f271"><rect x="0" width="85" y="0" height="84"/></clipPath></defs><g transform="matrix(1, 0, 0, 1, 18, 144)"><g clip-path="url(#173712f271)"><g clip-path="url(#56aee5a559)"><path fill="#5f5c9e" d="M 62.667969 15.878906 L 59.0625 17.960938 L 58.15625 16.398438 L 61.761719 14.316406 Z M 61.761719 14.316406 C 62.195312 14.066406 62.75 14.210938 63 14.644531 C 63.25 15.078125 63.101562 15.628906 62.667969 15.878906 Z M 74.160156 17.636719 L 72.59375 18.539062 L 72.402344 18.222656 L 72.1875 17.917969 L 71.96875 17.628906 L 71.734375 17.351562 L 71.492188 17.085938 L 71.230469 16.835938 L 70.964844 16.605469 L 70.6875 16.382812 L 70.402344 16.179688 L 70.105469 15.988281 L 69.800781 15.808594 L 69.488281 15.652344 L 69.171875 15.503906 L 68.847656 15.375 L 68.515625 15.261719 L 68.183594 15.160156 L 67.839844 15.082031 L 67.5 15.011719 L 67.152344 14.964844 L 66.804688 14.933594 L 66.453125 14.914062 L 66.101562 14.914062 L 65.75 14.933594 L 65.398438 14.96875 L 65.046875 15.019531 L 64.699219 15.089844 L 64.351562 15.175781 L 64.007812 15.28125 L 63.667969 15.402344 L 63.332031 15.542969 L 63 15.703125 L 62.667969 15.878906 L 61.761719 14.316406 L 62.171875 14.09375 L 62.589844 13.890625 L 63.011719 13.714844 L 63.4375 13.5625 L 63.867188 13.429688 L 64.304688 13.324219 L 64.738281 13.234375 L 65.175781 13.167969 L 65.617188 13.128906 L 66.054688 13.105469 L 66.496094 13.105469 L 66.933594 13.125 L 67.367188 13.167969 L 67.796875 13.230469 L 68.226562 13.3125 L 68.648438 13.414062 L 69.066406 13.539062 L 69.480469 13.679688 L 69.882812 13.84375 L 70.28125 14.023438 L 70.667969 14.226562 L 71.046875 14.441406 L 71.417969 14.683594 L 71.777344 14.9375 L 72.125 15.214844 L 72.460938 15.507812 L 72.78125 15.816406 L 73.085938 16.148438 L 73.382812 16.492188 L 73.65625 16.859375 L 73.921875 17.238281 Z M 74.160156 17.636719 C 74.410156 18.070312 74.265625 18.621094 73.832031 18.871094 C 73.398438 19.121094 72.84375 18.972656 72.59375 18.539062 Z M 79.597656 30.671875 L 72.59375 18.539062 L 74.160156 17.636719 L 81.164062 29.765625 Z M 81.164062 29.765625 C 81.414062 30.199219 81.265625 30.75 80.832031 31 C 80.402344 31.25 79.847656 31.101562 79.597656 30.671875 Z M 77.839844 42.160156 L 76.9375 40.59375 L 77.253906 40.398438 L 77.558594 40.191406 L 77.851562 39.96875 L 78.128906 39.738281 L 78.394531 39.488281 L 78.640625 39.234375 L 78.875 38.964844 L 79.09375 38.6875 L 79.296875 38.402344 L 79.488281 38.105469 L 79.667969 37.800781 L 79.824219 37.488281 L 79.972656 37.171875 L 80.101562 36.847656 L 80.21875 36.515625 L 80.316406 36.179688 L 80.398438 35.839844 L 80.464844 35.496094 L 80.511719 35.148438 L 80.546875 34.800781 L 80.566406 34.453125 L 80.566406 34.101562 L 80.546875 33.75 L 80.511719 33.398438 L 80.460938 33.046875 L 80.390625 32.699219 L 80.304688 32.351562 L 80.199219 32.007812 L 80.074219 31.667969 L 79.933594 31.328125 L 79.773438 30.996094 L 79.597656 30.671875 L 81.164062 29.765625 L 81.386719 30.175781 L 81.585938 30.589844 L 81.761719 31.011719 L 81.917969 31.4375 L 82.046875 31.867188 L 82.15625 32.300781 L 82.242188 32.738281 L 82.304688 33.179688 L 82.351562 33.617188 L 82.371094 34.058594 L 82.371094 34.492188 L 82.351562 34.929688 L 82.308594 35.363281 L 82.246094 35.796875 L 82.167969 36.226562 L 82.0625 36.648438 L 81.941406 37.066406 L 81.800781 37.476562 L 81.636719 37.882812 L 81.457031 38.277344 L 81.253906 38.667969 L 81.035156 39.050781 L 80.796875 39.417969 L 80.539062 39.777344 L 80.261719 40.125 L 79.972656 40.457031 L 79.660156 40.78125 L 79.328125 41.089844 L 78.984375 41.382812 L 78.621094 41.660156 L 78.238281 41.917969 Z M 77.839844 42.160156 C 77.410156 42.410156 76.855469 42.261719 76.605469 41.828125 C 76.355469 41.398438 76.503906 40.84375 76.9375 40.59375 Z M 73.332031 42.675781 L 76.9375 40.59375 L 77.839844 42.160156 L 74.234375 44.242188 L 73.332031 44.242188 Z M 74.234375 44.242188 C 73.800781 44.492188 73.25 44.34375 73 43.910156 C 72.75 43.480469 72.902344 42.925781 73.332031 42.675781 Z M 76.9375 46.324219 L 73.332031 44.242188 L 74.234375 42.675781 L 77.839844 44.757812 Z M 77.839844 44.757812 C 78.273438 45.007812 78.425781 45.5625 78.175781 45.992188 C 77.925781 46.425781 77.371094 46.574219 76.9375 46.324219 Z M 81.164062 57.152344 L 79.597656 56.25 L 79.773438 55.921875 L 79.9375 55.589844 L 80.074219 55.253906 L 80.199219 54.910156 L 80.304688 54.566406 L 80.390625 54.21875 L 80.460938 53.871094 L 80.511719 53.519531 L 80.546875 53.167969 L 80.566406 52.816406 L 80.566406 52.464844 L 80.546875 52.117188 L 80.511719 51.765625 L 80.464844 51.421875 L 80.398438 51.078125 L 80.316406 50.738281 L 80.21875 50.402344 L 80.101562 50.074219 L 79.972656 49.746094 L 79.828125 49.429688 L 79.667969 49.117188 L 79.492188 48.8125 L 79.300781 48.519531 L 79.09375 48.230469 L 78.875 47.953125 L 78.640625 47.683594 L 78.394531 47.429688 L 78.128906 47.183594 L 77.851562 46.949219 L 77.558594 46.726562 L 77.253906 46.519531 L 76.9375 46.324219 L 77.839844 44.757812 L 78.238281 45 L 78.621094 45.261719 L 78.984375 45.539062 L 79.328125 45.828125 L 79.660156 46.136719 L 79.972656 46.460938 L 80.261719 46.792969 L 80.539062 47.140625 L 80.796875 47.5 L 81.035156 47.867188 L 81.253906 48.25 L 81.457031 48.640625 L 81.636719 49.035156 L 81.800781 49.441406 L 81.941406 49.851562 L 82.0625 50.269531 L 82.167969 50.691406 L 82.246094 51.121094 L 82.308594 51.554688 L 82.351562 51.988281 L 82.371094 52.425781 L 82.371094 52.863281 L 82.351562 53.300781 L 82.308594 53.738281 L 82.242188 54.179688 L 82.15625 54.617188 L 82.046875 55.050781 L 81.917969 55.480469 L 81.761719 55.90625 L 81.585938 56.328125 L 81.386719 56.746094 Z M 81.164062 57.152344 C 80.914062 57.585938 80.359375 57.738281 79.929688 57.488281 C 79.496094 57.238281 79.347656 56.683594 79.597656 56.25 Z M 72.59375 68.378906 L 79.597656 56.25 L 81.164062 57.152344 L 74.160156 69.285156 Z M 74.160156 69.285156 C 73.910156 69.71875 73.359375 69.863281 72.925781 69.613281 C 72.492188 69.363281 72.34375 68.8125 72.59375 68.378906 Z M 61.765625 72.605469 L 62.667969 71.039062 L 63 71.214844 L 63.332031 71.375 L 63.667969 71.519531 L 64.007812 71.640625 L 64.351562 71.742188 L 64.699219 71.828125 L 65.046875 71.898438 L 65.398438 71.953125 L 65.75 71.984375 L 66.105469 72.003906 L 66.453125 72.003906 L 66.804688 71.984375 L 67.152344 71.953125 L 67.5 71.902344 L 67.839844 71.835938 L 68.183594 71.757812 L 68.515625 71.65625 L 68.847656 71.542969 L 69.171875 71.414062 L 69.488281 71.269531 L 69.800781 71.109375 L 70.105469 70.929688 L 70.402344 70.742188 L 70.6875 70.535156 L 70.964844 70.3125 L 71.230469 70.082031 L 71.488281 69.832031 L 71.734375 69.566406 L 71.96875 69.289062 L 72.1875 69.003906 L 72.402344 68.695312 L 72.59375 68.378906 L 74.160156 69.285156 L 73.917969 69.679688 L 73.65625 70.058594 L 73.382812 70.425781 L 73.085938 70.773438 L 72.78125 71.101562 L 72.460938 71.410156 L 72.125 71.707031 L 71.777344 71.980469 L 71.417969 72.234375 L 71.046875 72.476562 L 70.667969 72.695312 L 70.28125 72.894531 L 69.886719 73.074219 L 69.480469 73.238281 L 69.066406 73.382812 L 68.648438 73.503906 L 68.226562 73.605469 L 67.796875 73.691406 L 67.367188 73.753906 L 66.933594 73.792969 L 66.496094 73.816406 L 66.054688 73.816406 L 65.617188 73.789062 L 65.175781 73.75 L 64.738281 73.683594 L 64.304688 73.597656 L 63.867188 73.488281 L 63.4375 73.355469 L 63.011719 73.203125 L 62.589844 73.027344 L 62.171875 72.824219 Z M 61.765625 72.605469 C 61.332031 72.355469 61.183594 71.800781 61.433594 71.367188 C 61.683594 70.933594 62.238281 70.789062 62.667969 71.039062 Z M 59.0625 68.953125 L 62.667969 71.039062 L 61.765625 72.605469 L 58.15625 70.523438 L 57.707031 69.738281 Z M 58.15625 70.523438 C 57.726562 70.273438 57.578125 69.71875 57.828125 69.285156 C 58.078125 68.851562 58.628906 68.703125 59.0625 68.953125 Z M 57.707031 73.902344 L 57.707031 69.738281 L 59.519531 69.738281 L 59.519531 73.902344 Z M 59.519531 73.902344 C 59.519531 74.402344 59.113281 74.808594 58.613281 74.808594 C 58.113281 74.808594 57.707031 74.402344 57.707031 73.902344 Z M 50.441406 82.976562 L 50.441406 81.167969 L 50.816406 81.15625 L 51.183594 81.128906 L 51.546875 81.082031 L 51.90625 81.019531 L 52.257812 80.9375 L 52.601562 80.839844 L 52.9375 80.726562 L 53.265625 80.597656 L 53.589844 80.453125 L 53.902344 80.289062 L 54.207031 80.117188 L 54.5 79.925781 L 54.785156 79.722656 L 55.058594 79.507812 L 55.324219 79.277344 L 55.578125 79.035156 L 55.816406 78.78125 L 56.046875 78.519531 L 56.261719 78.246094 L 56.464844 77.960938 L 56.652344 77.664062 L 56.828125 77.359375 L 56.988281 77.046875 L 57.132812 76.726562 L 57.265625 76.394531 L 57.382812 76.058594 L 57.476562 75.714844 L 57.558594 75.367188 L 57.625 75.007812 L 57.667969 74.644531 L 57.695312 74.277344 L 57.707031 73.902344 L 59.519531 73.902344 L 59.503906 74.371094 L 59.46875 74.828125 L 59.410156 75.28125 L 59.332031 75.730469 L 59.230469 76.167969 L 59.109375 76.597656 L 58.964844 77.019531 L 58.804688 77.433594 L 58.621094 77.835938 L 58.417969 78.222656 L 58.199219 78.605469 L 57.964844 78.972656 L 57.710938 79.332031 L 57.441406 79.671875 L 57.15625 80 L 56.855469 80.316406 L 56.542969 80.617188 L 56.210938 80.902344 L 55.867188 81.171875 L 55.515625 81.421875 L 55.148438 81.664062 L 54.765625 81.882812 L 54.371094 82.078125 L 53.96875 82.261719 L 53.5625 82.425781 L 53.136719 82.566406 L 52.707031 82.691406 L 52.265625 82.792969 L 51.824219 82.875 L 51.367188 82.929688 L 50.90625 82.964844 Z M 50.441406 82.976562 C 49.941406 82.976562 49.535156 82.570312 49.535156 82.070312 C 49.535156 81.574219 49.941406 81.167969 50.441406 81.167969 Z M 36.433594 81.167969 L 50.441406 81.167969 L 50.441406 82.976562 L 36.433594 82.976562 Z M 36.433594 82.976562 C 35.9375 82.976562 35.53125 82.570312 35.53125 82.070312 C 35.53125 81.574219 35.9375 81.167969 36.433594 81.167969 Z M 27.363281 73.902344 L 29.167969 73.902344 L 29.179688 74.277344 L 29.207031 74.644531 L 29.257812 75.007812 L 29.320312 75.367188 L 29.398438 75.714844 L 29.5 76.058594 L 29.613281 76.394531 L 29.742188 76.726562 L 29.886719 77.046875 L 30.046875 77.359375 L 30.226562 77.664062 L 30.410156 77.960938 L 30.617188 78.246094 L 30.832031 78.519531 L 31.0625 78.78125 L 31.304688 79.035156 L 31.554688 79.277344 L 31.816406 79.507812 L 32.09375 79.722656 L 32.378906 79.925781 L 32.675781 80.117188 L 32.976562 80.289062 L 33.292969 80.453125 L 33.609375 80.597656 L 33.941406 80.726562 L 34.277344 80.839844 L 34.625 80.9375 L 34.972656 81.019531 L 35.332031 81.082031 L 35.691406 81.128906 L 36.058594 81.15625 L 36.433594 81.167969 L 36.433594 82.976562 L 35.96875 82.964844 L 35.511719 82.929688 L 35.058594 82.875 L 34.609375 82.792969 L 34.167969 82.691406 L 33.738281 82.566406 L 33.320312 82.425781 L 32.90625 82.261719 L 32.503906 82.078125 L 32.113281 81.882812 L 31.734375 81.664062 L 31.367188 81.421875 L 31.007812 81.171875 L 30.664062 80.902344 L 30.335938 80.617188 L 30.023438 80.316406 L 29.722656 80 L 29.4375 79.671875 L 29.167969 79.332031 L 28.914062 78.972656 L 28.675781 78.605469 L 28.457031 78.222656 L 28.257812 77.835938 L 28.078125 77.433594 L 27.914062 77.019531 L 27.773438 76.597656 L 27.648438 76.167969 L 27.546875 75.730469 L 27.464844 75.28125 L 27.40625 74.828125 L 27.371094 74.371094 Z M 27.363281 73.902344 C 27.363281 73.402344 27.769531 73 28.269531 73 C 28.765625 73 29.167969 73.402344 29.167969 73.902344 Z M 29.167969 69.738281 L 29.167969 73.902344 L 27.363281 73.902344 L 27.363281 69.738281 L 27.8125 68.953125 Z M 27.363281 69.738281 C 27.363281 69.238281 27.769531 68.835938 28.269531 68.835938 C 28.765625 68.835938 29.167969 69.238281 29.167969 69.738281 Z M 24.207031 71.039062 L 27.8125 68.953125 L 28.71875 70.523438 L 25.113281 72.605469 Z M 25.113281 72.605469 C 24.679688 72.851562 24.125 72.707031 23.875 72.273438 C 23.625 71.839844 23.773438 71.289062 24.207031 71.039062 Z M 12.71875 69.285156 L 14.285156 68.378906 L 14.480469 68.695312 L 14.6875 69.003906 L 14.910156 69.289062 L 15.140625 69.566406 L 15.390625 69.832031 L 15.644531 70.082031 L 15.914062 70.3125 L 16.191406 70.535156 L 16.476562 70.742188 L 16.773438 70.929688 L 17.078125 71.109375 L 17.386719 71.269531 L 17.707031 71.414062 L 18.03125 71.542969 L 18.363281 71.65625 L 18.699219 71.757812 L 19.035156 71.835938 L 19.378906 71.902344 L 19.726562 71.953125 L 20.074219 71.984375 L 20.425781 72.003906 L 20.777344 72.003906 L 21.128906 71.984375 L 21.476562 71.953125 L 21.828125 71.898438 L 22.179688 71.828125 L 22.527344 71.742188 L 22.871094 71.640625 L 23.210938 71.519531 L 23.546875 71.375 L 23.878906 71.214844 L 24.207031 71.039062 L 25.113281 72.605469 L 24.703125 72.824219 L 24.289062 73.027344 L 23.867188 73.203125 L 23.441406 73.355469 L 23.007812 73.488281 L 22.574219 73.597656 L 22.136719 73.683594 L 21.699219 73.75 L 21.257812 73.789062 L 20.820312 73.816406 L 20.382812 73.816406 L 19.949219 73.792969 L 19.511719 73.753906 L 19.082031 73.691406 L 18.652344 73.605469 L 18.230469 73.503906 L 17.808594 73.382812 L 17.398438 73.238281 L 16.996094 73.074219 L 16.597656 72.894531 L 16.207031 72.695312 L 15.828125 72.476562 L 15.457031 72.234375 L 15.101562 71.980469 L 14.753906 71.703125 L 14.417969 71.410156 L 14.097656 71.101562 L 13.789062 70.773438 L 13.496094 70.425781 L 13.21875 70.058594 L 12.960938 69.679688 Z M 12.71875 69.285156 C 12.46875 68.851562 12.617188 68.296875 13.046875 68.046875 C 13.480469 67.796875 14.035156 67.945312 14.285156 68.378906 Z M 7.28125 56.25 L 14.285156 68.378906 L 12.71875 69.285156 L 5.710938 57.152344 Z M 5.710938 57.152344 C 5.460938 56.71875 5.613281 56.167969 6.046875 55.917969 C 6.480469 55.667969 7.03125 55.8125 7.28125 56.25 Z M 9.035156 44.757812 L 9.941406 46.324219 L 9.621094 46.519531 L 9.316406 46.726562 L 9.027344 46.949219 L 8.746094 47.183594 L 8.488281 47.429688 L 8.238281 47.683594 L 8.003906 47.953125 L 7.785156 48.230469 L 7.578125 48.519531 L 7.386719 48.8125 L 7.210938 49.117188 L 7.050781 49.429688 L 6.90625 49.746094 L 6.773438 50.074219 L 6.660156 50.402344 L 6.5625 50.738281 L 6.480469 51.078125 L 6.414062 51.421875 L 6.363281 51.765625 L 6.328125 52.117188 L 6.316406 52.464844 L 6.316406 52.816406 L 6.332031 53.167969 L 6.367188 53.519531 L 6.417969 53.871094 L 6.484375 54.21875 L 6.574219 54.566406 L 6.679688 54.910156 L 6.800781 55.253906 L 6.945312 55.589844 L 7.101562 55.921875 L 7.28125 56.25 L 5.710938 57.152344 L 5.488281 56.746094 L 5.292969 56.328125 L 5.117188 55.90625 L 4.960938 55.480469 L 4.832031 55.050781 L 4.71875 54.617188 L 4.632812 54.179688 L 4.570312 53.738281 L 4.527344 53.300781 L 4.503906 52.863281 L 4.503906 52.425781 L 4.527344 51.988281 L 4.566406 51.554688 L 4.628906 51.121094 L 4.710938 50.691406 L 4.8125 50.269531 L 4.9375 49.851562 L 5.082031 49.441406 L 5.242188 49.035156 L 5.425781 48.640625 L 5.621094 48.25 L 5.84375 47.867188 L 6.078125 47.5 L 6.335938 47.140625 L 6.613281 46.792969 L 6.90625 46.460938 L 7.21875 46.136719 L 7.546875 45.828125 L 7.894531 45.539062 L 8.257812 45.261719 L 8.636719 45 Z M 9.035156 44.757812 C 9.46875 44.507812 10.019531 44.65625 10.269531 45.089844 C 10.519531 45.519531 10.371094 46.074219 9.941406 46.324219 Z M 13.546875 44.242188 L 9.941406 46.324219 L 9.035156 44.757812 L 12.640625 42.675781 L 13.546875 42.675781 Z M 12.640625 42.675781 C 13.074219 42.425781 13.625 42.574219 13.875 43.007812 C 14.125 43.4375 13.980469 43.992188 13.546875 44.242188 Z M 9.941406 40.59375 L 13.546875 42.675781 L 12.640625 44.242188 L 9.035156 42.160156 Z M 9.035156 42.160156 C 8.601562 41.910156 8.453125 41.355469 8.703125 40.925781 C 8.953125 40.492188 9.507812 40.34375 9.941406 40.59375 Z M 5.714844 29.765625 L 7.28125 30.671875 L 7.101562 30.996094 L 6.945312 31.328125 L 6.800781 31.667969 L 6.679688 32.007812 L 6.574219 32.351562 L 6.484375 32.699219 L 6.417969 33.046875 L 6.367188 33.398438 L 6.332031 33.75 L 6.316406 34.101562 L 6.316406 34.453125 L 6.328125 34.800781 L 6.363281 35.148438 L 6.414062 35.496094 L 6.480469 35.839844 L 6.5625 36.179688 L 6.664062 36.515625 L 6.773438 36.847656 L 6.90625 37.171875 L 7.050781 37.488281 L 7.210938 37.800781 L 7.386719 38.105469 L 7.578125 38.402344 L 7.785156 38.6875 L 8.003906 38.964844 L 8.238281 39.234375 L 8.488281 39.488281 L 8.75 39.738281 L 9.027344 39.96875 L 9.316406 40.191406 L 9.621094 40.398438 L 9.941406 40.59375 L 9.035156 42.160156 L 8.636719 41.917969 L 8.257812 41.660156 L 7.894531 41.382812 L 7.546875 41.089844 L 7.21875 40.78125 L 6.90625 40.457031 L 6.613281 40.125 L 6.339844 39.777344 L 6.078125 39.417969 L 5.84375 39.050781 L 5.621094 38.667969 L 5.425781 38.277344 L 5.242188 37.882812 L 5.082031 37.476562 L 4.9375 37.066406 L 4.8125 36.648438 L 4.710938 36.226562 L 4.628906 35.796875 L 4.566406 35.363281 L 4.527344 34.929688 L 4.503906 34.492188 L 4.503906 34.058594 L 4.527344 33.617188 L 4.570312 33.179688 L 4.636719 32.738281 L 4.722656 32.300781 L 4.832031 31.867188 L 4.960938 31.4375 L 5.117188 31.011719 L 5.292969 30.589844 L 5.488281 30.175781 Z M 5.714844 29.765625 C 5.964844 29.332031 6.515625 29.183594 6.949219 29.433594 C 7.382812 29.679688 7.53125 30.238281 7.28125 30.671875 Z M 14.285156 18.539062 L 7.28125 30.671875 L 5.714844 29.765625 L 12.71875 17.636719 Z M 12.71875 17.636719 C 12.96875 17.203125 13.519531 17.054688 13.953125 17.304688 C 14.386719 17.554688 14.535156 18.105469 14.285156 18.539062 Z M 25.113281 14.316406 L 24.207031 15.878906 L 23.878906 15.703125 L 23.550781 15.542969 L 23.210938 15.402344 L 22.871094 15.28125 L 22.527344 15.175781 L 22.179688 15.089844 L 21.828125 15.019531 L 21.476562 14.96875 L 21.128906 14.933594 L 20.777344 14.914062 L 20.425781 14.914062 L 20.074219 14.933594 L 19.726562 14.964844 L 19.378906 15.011719 L 19.039062 15.082031 L 18.699219 15.160156 L 18.363281 15.261719 L 18.03125 15.375 L 17.707031 15.503906 L 17.386719 15.652344 L 17.078125 15.808594 L 16.773438 15.988281 L 16.476562 16.179688 L 16.191406 16.382812 L 15.914062 16.605469 L 15.644531 16.835938 L 15.390625 17.085938 L 15.140625 17.351562 L 14.910156 17.628906 L 14.6875 17.917969 L 14.480469 18.222656 L 14.285156 18.539062 L 12.71875 17.636719 L 12.960938 17.238281 L 13.21875 16.859375 L 13.496094 16.492188 L 13.789062 16.148438 L 14.097656 15.816406 L 14.417969 15.507812 L 14.753906 15.214844 L 15.101562 14.9375 L 15.457031 14.683594 L 15.828125 14.441406 L 16.207031 14.226562 L 16.597656 14.023438 L 16.996094 13.84375 L 17.402344 13.679688 L 17.808594 13.539062 L 18.230469 13.414062 L 18.652344 13.3125 L 19.082031 13.230469 L 19.511719 13.167969 L 19.949219 13.125 L 20.382812 13.105469 L 20.820312 13.105469 L 21.261719 13.128906 L 21.699219 13.167969 L 22.136719 13.234375 L 22.574219 13.324219 L 23.007812 13.429688 L 23.441406 13.5625 L 23.867188 13.714844 L 24.289062 13.890625 L 24.703125 14.09375 Z M 25.113281 14.316406 C 25.546875 14.566406 25.695312 15.117188 25.445312 15.550781 C 25.195312 15.984375 24.640625 16.128906 24.207031 15.878906 Z M 27.8125 17.960938 L 24.207031 15.878906 L 25.113281 14.316406 L 28.71875 16.398438 L 29.167969 17.179688 Z M 28.71875 16.398438 C 29.152344 16.644531 29.300781 17.199219 29.050781 17.632812 C 28.796875 18.066406 28.246094 18.210938 27.8125 17.960938 Z M 29.167969 13.015625 L 29.167969 17.179688 L 27.363281 17.179688 L 27.363281 13.015625 Z M 27.363281 13.015625 C 27.363281 12.515625 27.769531 12.113281 28.269531 12.113281 C 28.765625 12.113281 29.167969 12.515625 29.167969 13.015625 Z M 36.433594 3.941406 L 36.433594 5.75 L 36.058594 5.757812 L 35.691406 5.789062 L 35.332031 5.835938 L 34.972656 5.898438 L 34.625 5.980469 L 34.277344 6.078125 L 33.941406 6.191406 L 33.609375 6.320312 L 33.292969 6.464844 L 32.976562 6.628906 L 32.675781 6.804688 L 32.378906 6.992188 L 32.09375 7.195312 L 31.816406 7.410156 L 31.554688 7.640625 L 31.304688 7.882812 L 31.0625 8.136719 L 30.832031 8.398438 L 30.617188 8.671875 L 30.410156 8.957031 L 30.226562 9.253906 L 30.046875 9.558594 L 29.886719 9.871094 L 29.742188 10.191406 L 29.613281 10.523438 L 29.5 10.859375 L 29.398438 11.203125 L 29.320312 11.554688 L 29.257812 11.910156 L 29.207031 12.269531 L 29.179688 12.640625 L 29.167969 13.015625 L 27.363281 13.015625 L 27.371094 12.550781 L 27.40625 12.089844 L 27.464844 11.636719 L 27.546875 11.1875 L 27.648438 10.75 L 27.773438 10.320312 L 27.914062 9.898438 L 28.078125 9.484375 L 28.257812 9.082031 L 28.457031 8.691406 L 28.675781 8.3125 L 28.914062 7.945312 L 29.167969 7.585938 L 29.4375 7.246094 L 29.722656 6.917969 L 30.023438 6.601562 L 30.335938 6.300781 L 30.664062 6.015625 L 31.007812 5.746094 L 31.367188 5.492188 L 31.734375 5.253906 L 32.113281 5.039062 L 32.503906 4.835938 L 32.90625 4.65625 L 33.320312 4.492188 L 33.738281 4.351562 L 34.167969 4.230469 L 34.609375 4.125 L 35.058594 4.042969 L 35.511719 3.988281 L 35.96875 3.953125 Z M 36.433594 3.941406 C 36.933594 3.941406 37.339844 4.347656 37.339844 4.847656 C 37.339844 5.347656 36.933594 5.75 36.433594 5.75 Z M 50.441406 5.75 L 36.433594 5.75 L 36.433594 3.941406 L 50.441406 3.941406 Z M 50.441406 3.941406 C 50.941406 3.941406 51.347656 4.347656 51.347656 4.847656 C 51.347656 5.347656 50.941406 5.75 50.441406 5.75 Z M 59.519531 13.015625 L 57.707031 13.015625 L 57.695312 12.640625 L 57.667969 12.269531 L 57.625 11.910156 L 57.558594 11.554688 L 57.476562 11.203125 L 57.382812 10.859375 L 57.265625 10.523438 L 57.132812 10.191406 L 56.988281 9.871094 L 56.828125 9.558594 L 56.652344 9.253906 L 56.464844 8.957031 L 56.261719 8.671875 L 56.046875 8.398438 L 55.816406 8.136719 L 55.578125 7.882812 L 55.324219 7.640625 L 55.058594 7.410156 L 54.785156 7.195312 L 54.5 6.992188 L 54.207031 6.804688 L 53.902344 6.628906 L 53.589844 6.464844 L 53.265625 6.320312 L 52.9375 6.191406 L 52.601562 6.078125 L 52.257812 5.980469 L 51.90625 5.898438 L 51.546875 5.835938 L 51.183594 5.789062 L 50.816406 5.757812 L 50.441406 5.75 L 50.441406 3.941406 L 50.90625 3.953125 L 51.367188 3.988281 L 51.824219 4.042969 L 52.265625 4.125 L 52.707031 4.230469 L 53.136719 4.351562 L 53.5625 4.492188 L 53.96875 4.65625 L 54.371094 4.835938 L 54.765625 5.039062 L 55.148438 5.253906 L 55.515625 5.492188 L 55.867188 5.746094 L 56.210938 6.015625 L 56.542969 6.300781 L 56.855469 6.601562 L 57.15625 6.917969 L 57.441406 7.246094 L 57.710938 7.585938 L 57.964844 7.945312 L 58.199219 8.3125 L 58.417969 8.695312 L 58.621094 9.082031 L 58.804688 9.484375 L 58.964844 9.898438 L 59.109375 10.320312 L 59.230469 10.75 L 59.332031 11.1875 L 59.410156 11.636719 L 59.46875 12.089844 L 59.503906 12.550781 Z M 59.519531 13.015625 C 59.519531 13.515625 59.113281 13.917969 58.613281 13.917969 C 58.113281 13.917969 57.707031 13.515625 57.707031 13.015625 Z M 57.707031 17.179688 L 57.707031 13.015625 L 59.519531 13.015625 L 59.519531 17.179688 L 59.0625 17.960938 Z M 59.519531 17.179688 C 59.519531 17.679688 59.113281 18.082031 58.613281 18.082031 C 58.113281 18.082031 57.707031 17.679688 57.707031 17.179688 Z M 59.519531 17.179688 " fill-opacity="1" fill-rule="nonzero"/></g><path fill="#5f5c9e" d="M 49.503906 15.886719 L 37.375 15.886719 L 37.375 14.074219 L 49.503906 14.074219 Z M 49.503906 14.074219 C 50.003906 14.074219 50.410156 14.480469 50.410156 14.980469 C 50.410156 15.480469 50.003906 15.886719 49.503906 15.886719 Z M 52.519531 17.089844 L 50.710938 17.089844 L 50.710938 17.03125 L 50.707031 16.96875 L 50.671875 16.792969 L 50.65625 16.738281 L 50.636719 16.679688 L 50.617188 16.625 L 50.5625 16.523438 L 50.535156 16.46875 L 50.503906 16.421875 L 50.46875 16.371094 L 50.433594 16.328125 L 50.398438 16.28125 L 50.3125 16.203125 L 50.269531 16.160156 L 50.175781 16.089844 L 50.125 16.058594 L 50.023438 16.003906 L 49.96875 15.980469 L 49.914062 15.960938 L 49.859375 15.9375 L 49.804688 15.925781 L 49.746094 15.910156 L 49.683594 15.902344 L 49.566406 15.886719 L 49.503906 15.886719 L 49.503906 14.074219 L 49.65625 14.078125 L 49.808594 14.09375 L 49.964844 14.109375 L 50.113281 14.136719 L 50.257812 14.171875 L 50.398438 14.210938 L 50.539062 14.257812 L 50.679688 14.316406 L 50.808594 14.375 L 50.941406 14.441406 L 51.066406 14.515625 L 51.191406 14.59375 L 51.308594 14.675781 L 51.421875 14.765625 L 51.53125 14.859375 L 51.636719 14.960938 L 51.734375 15.0625 L 51.828125 15.175781 L 51.917969 15.289062 L 52.003906 15.40625 L 52.082031 15.527344 L 52.15625 15.652344 L 52.222656 15.785156 L 52.28125 15.917969 L 52.335938 16.054688 L 52.386719 16.195312 L 52.421875 16.339844 L 52.457031 16.488281 L 52.484375 16.632812 L 52.507812 16.785156 L 52.515625 16.9375 Z M 52.519531 17.089844 C 52.519531 17.589844 52.113281 17.996094 51.613281 17.996094 C 51.113281 17.996094 50.710938 17.589844 50.710938 17.089844 Z M 50.710938 29.296875 L 50.710938 17.089844 L 52.519531 17.089844 L 52.519531 29.296875 L 52.070312 30.082031 Z M 52.519531 29.296875 C 52.519531 29.796875 52.113281 30.203125 51.613281 30.203125 C 51.113281 30.203125 50.710938 29.796875 50.710938 29.296875 Z M 62.636719 23.976562 L 52.070312 30.082031 L 51.164062 28.511719 L 61.730469 22.410156 Z M 61.730469 22.410156 C 62.164062 22.160156 62.71875 22.308594 62.96875 22.742188 C 63.21875 23.175781 63.070312 23.726562 62.636719 23.976562 Z M 65.855469 23.515625 L 64.285156 24.421875 L 64.253906 24.367188 L 64.21875 24.316406 L 64.179688 24.269531 L 64.144531 24.222656 L 64.019531 24.097656 L 63.96875 24.0625 L 63.925781 24.03125 L 63.871094 24 L 63.824219 23.96875 L 63.773438 23.941406 L 63.664062 23.894531 L 63.609375 23.878906 L 63.554688 23.859375 L 63.4375 23.835938 L 63.320312 23.820312 L 63.261719 23.816406 L 63.207031 23.816406 L 63.148438 23.820312 L 63.03125 23.835938 L 62.972656 23.847656 L 62.914062 23.863281 L 62.859375 23.878906 L 62.804688 23.898438 L 62.75 23.921875 L 62.691406 23.949219 L 62.636719 23.976562 L 61.730469 22.410156 L 61.867188 22.335938 L 62.007812 22.269531 L 62.148438 22.210938 L 62.289062 22.160156 L 62.433594 22.117188 L 62.578125 22.078125 L 62.722656 22.050781 L 62.871094 22.03125 L 63.015625 22.015625 L 63.160156 22.011719 L 63.308594 22.011719 L 63.453125 22.015625 L 63.59375 22.03125 L 63.738281 22.050781 L 63.878906 22.078125 L 64.023438 22.109375 L 64.160156 22.152344 L 64.296875 22.203125 L 64.429688 22.253906 L 64.5625 22.3125 L 64.691406 22.382812 L 64.816406 22.453125 L 64.941406 22.535156 L 65.058594 22.617188 L 65.171875 22.710938 L 65.289062 22.808594 L 65.394531 22.914062 L 65.496094 23.019531 L 65.59375 23.132812 L 65.6875 23.257812 L 65.773438 23.382812 Z M 65.855469 23.515625 C 66.105469 23.945312 65.953125 24.5 65.519531 24.75 C 65.089844 25 64.535156 24.851562 64.285156 24.421875 Z M 70.351562 34.925781 L 64.285156 24.421875 L 65.855469 23.515625 L 71.917969 34.019531 Z M 71.917969 34.019531 C 72.167969 34.453125 72.019531 35.007812 71.585938 35.257812 C 71.15625 35.507812 70.601562 35.359375 70.351562 34.925781 Z M 70.816406 38.140625 L 69.910156 36.570312 L 69.960938 36.539062 L 70.015625 36.507812 L 70.058594 36.46875 L 70.105469 36.429688 L 70.148438 36.390625 L 70.191406 36.347656 L 70.230469 36.304688 L 70.265625 36.257812 L 70.328125 36.164062 L 70.359375 36.109375 L 70.414062 36.007812 L 70.433594 35.949219 L 70.449219 35.894531 L 70.46875 35.839844 L 70.480469 35.78125 L 70.492188 35.726562 L 70.503906 35.667969 L 70.511719 35.550781 L 70.511719 35.492188 L 70.503906 35.375 L 70.492188 35.320312 L 70.480469 35.261719 L 70.46875 35.207031 L 70.449219 35.144531 L 70.429688 35.089844 L 70.382812 34.980469 L 70.351562 34.925781 L 71.917969 34.019531 L 71.992188 34.152344 L 72.058594 34.292969 L 72.117188 34.433594 L 72.167969 34.578125 L 72.210938 34.71875 L 72.25 34.863281 L 72.277344 35.011719 L 72.296875 35.15625 L 72.3125 35.300781 L 72.320312 35.449219 L 72.320312 35.59375 L 72.3125 35.738281 L 72.300781 35.882812 L 72.28125 36.027344 L 72.21875 36.308594 L 72.175781 36.449219 L 72.128906 36.582031 L 72.074219 36.71875 L 72.015625 36.851562 L 71.949219 36.976562 L 71.875 37.101562 L 71.796875 37.226562 L 71.710938 37.347656 L 71.621094 37.464844 L 71.523438 37.574219 L 71.417969 37.683594 L 71.308594 37.78125 L 71.195312 37.878906 L 71.070312 37.972656 L 70.945312 38.0625 Z M 70.816406 38.140625 C 70.382812 38.390625 69.828125 38.242188 69.578125 37.8125 C 69.328125 37.378906 69.476562 36.820312 69.910156 36.570312 Z M 59.335938 42.675781 L 69.910156 36.570312 L 70.816406 38.140625 L 60.242188 44.242188 L 59.335938 44.242188 Z M 60.242188 44.242188 C 59.8125 44.492188 59.257812 44.34375 59.007812 43.910156 C 58.757812 43.480469 58.90625 42.925781 59.335938 42.675781 Z M 69.910156 50.347656 L 59.335938 44.242188 L 60.242188 42.675781 L 70.816406 48.777344 Z M 70.816406 48.777344 C 71.246094 49.027344 71.394531 49.582031 71.144531 50.011719 C 70.894531 50.445312 70.34375 50.597656 69.910156 50.347656 Z M 71.917969 52.898438 L 70.351562 51.996094 L 70.382812 51.9375 L 70.429688 51.828125 L 70.46875 51.71875 L 70.480469 51.65625 L 70.492188 51.597656 L 70.503906 51.542969 L 70.511719 51.425781 L 70.511719 51.367188 L 70.503906 51.25 L 70.480469 51.132812 L 70.46875 51.078125 L 70.449219 51.023438 L 70.433594 50.96875 L 70.414062 50.910156 L 70.359375 50.808594 L 70.332031 50.753906 L 70.296875 50.707031 L 70.265625 50.660156 L 70.230469 50.613281 L 70.191406 50.570312 L 70.148438 50.527344 L 70.0625 50.449219 L 70.015625 50.414062 L 69.960938 50.378906 L 69.910156 50.347656 L 70.816406 48.777344 L 70.945312 48.859375 L 71.070312 48.945312 L 71.195312 49.039062 L 71.308594 49.136719 L 71.417969 49.234375 L 71.523438 49.34375 L 71.621094 49.453125 L 71.710938 49.574219 L 71.796875 49.691406 L 71.875 49.8125 L 71.949219 49.941406 L 72.015625 50.070312 L 72.074219 50.199219 L 72.128906 50.335938 L 72.175781 50.472656 L 72.21875 50.609375 L 72.28125 50.890625 L 72.300781 51.035156 L 72.3125 51.179688 L 72.320312 51.324219 L 72.320312 51.46875 L 72.3125 51.617188 L 72.296875 51.761719 L 72.277344 51.90625 L 72.25 52.054688 L 72.214844 52.199219 L 72.167969 52.339844 L 72.117188 52.484375 L 72.058594 52.625 L 71.992188 52.761719 Z M 71.917969 52.898438 C 71.667969 53.332031 71.113281 53.480469 70.683594 53.230469 C 70.25 52.980469 70.101562 52.425781 70.351562 51.996094 Z M 64.285156 62.496094 L 70.351562 51.996094 L 71.917969 52.898438 L 65.855469 63.402344 Z M 65.855469 63.402344 C 65.605469 63.835938 65.046875 63.984375 64.613281 63.734375 C 64.183594 63.484375 64.035156 62.929688 64.285156 62.496094 Z M 61.730469 64.503906 L 62.636719 62.941406 L 62.691406 62.96875 L 62.75 62.996094 L 62.804688 63.019531 L 62.859375 63.039062 L 62.914062 63.054688 L 62.972656 63.074219 L 63.148438 63.097656 L 63.207031 63.101562 L 63.265625 63.101562 L 63.320312 63.097656 L 63.496094 63.074219 L 63.554688 63.058594 L 63.609375 63.042969 L 63.664062 63.019531 L 63.71875 63 L 63.773438 62.976562 L 63.824219 62.949219 L 63.871094 62.921875 L 63.921875 62.890625 L 63.96875 62.855469 L 64.019531 62.820312 L 64.144531 62.695312 L 64.179688 62.648438 L 64.21875 62.601562 L 64.253906 62.550781 L 64.285156 62.496094 L 65.855469 63.402344 L 65.773438 63.535156 L 65.6875 63.664062 L 65.59375 63.785156 L 65.496094 63.898438 L 65.394531 64.007812 L 65.289062 64.109375 L 65.171875 64.207031 L 65.058594 64.300781 L 64.941406 64.382812 L 64.816406 64.464844 L 64.691406 64.535156 L 64.5625 64.601562 L 64.429688 64.664062 L 64.296875 64.71875 L 64.160156 64.765625 L 64.023438 64.808594 L 63.878906 64.839844 L 63.738281 64.867188 L 63.59375 64.886719 L 63.453125 64.902344 L 63.308594 64.90625 L 63.160156 64.90625 L 63.015625 64.902344 L 62.871094 64.886719 L 62.722656 64.867188 L 62.578125 64.835938 L 62.433594 64.800781 L 62.289062 64.757812 L 62.148438 64.707031 L 62.007812 64.648438 L 61.867188 64.582031 Z M 61.730469 64.503906 C 61.300781 64.257812 61.152344 63.703125 61.402344 63.269531 C 61.652344 62.835938 62.203125 62.691406 62.636719 62.941406 Z M 52.070312 56.839844 L 62.636719 62.941406 L 61.730469 64.503906 L 51.164062 58.40625 L 50.710938 57.621094 Z M 51.164062 58.40625 C 50.730469 58.15625 50.582031 57.601562 50.832031 57.167969 C 51.082031 56.738281 51.636719 56.589844 52.070312 56.839844 Z M 50.710938 69.824219 L 50.710938 57.621094 L 52.519531 57.621094 L 52.519531 69.824219 Z M 52.519531 69.824219 C 52.519531 70.324219 52.113281 70.730469 51.613281 70.730469 C 51.113281 70.730469 50.710938 70.324219 50.710938 69.824219 Z M 49.503906 72.84375 L 49.503906 71.03125 L 49.566406 71.03125 L 49.625 71.023438 L 49.683594 71.019531 L 49.746094 71.007812 L 49.804688 70.992188 L 49.914062 70.960938 L 50.023438 70.914062 L 50.125 70.859375 L 50.175781 70.828125 L 50.222656 70.792969 L 50.269531 70.753906 L 50.3125 70.714844 L 50.355469 70.679688 L 50.398438 70.636719 L 50.433594 70.589844 L 50.46875 70.546875 L 50.503906 70.496094 L 50.535156 70.449219 L 50.5625 70.398438 L 50.589844 70.34375 L 50.617188 70.292969 L 50.65625 70.183594 L 50.671875 70.125 L 50.707031 69.949219 L 50.710938 69.886719 L 50.710938 69.824219 L 52.519531 69.824219 L 52.515625 69.980469 L 52.507812 70.132812 L 52.484375 70.28125 L 52.457031 70.433594 L 52.386719 70.722656 L 52.335938 70.863281 L 52.28125 71 L 52.222656 71.132812 L 52.15625 71.265625 L 52.082031 71.390625 L 52.003906 71.511719 L 51.917969 71.628906 L 51.828125 71.742188 L 51.734375 71.851562 L 51.636719 71.957031 L 51.53125 72.054688 L 51.421875 72.152344 L 51.308594 72.238281 L 51.191406 72.324219 L 51.066406 72.402344 L 50.941406 72.476562 L 50.808594 72.542969 L 50.679688 72.605469 L 50.539062 72.660156 L 50.257812 72.746094 L 50.113281 72.78125 L 49.964844 72.808594 L 49.808594 72.824219 L 49.65625 72.839844 Z M 49.503906 72.84375 C 49.003906 72.84375 48.597656 72.4375 48.597656 71.9375 C 48.597656 71.4375 49.003906 71.03125 49.503906 71.03125 Z M 37.375 71.03125 L 49.503906 71.03125 L 49.503906 72.84375 L 37.375 72.84375 Z M 37.375 72.84375 C 36.875 72.84375 36.46875 72.4375 36.46875 71.9375 C 36.46875 71.4375 36.875 71.03125 37.375 71.03125 Z M 34.355469 69.824219 L 36.167969 69.824219 L 36.167969 69.886719 L 36.175781 69.949219 L 36.191406 70.066406 L 36.222656 70.183594 L 36.261719 70.292969 L 36.285156 70.34375 L 36.3125 70.398438 L 36.339844 70.449219 L 36.371094 70.496094 L 36.40625 70.546875 L 36.441406 70.589844 L 36.484375 70.636719 L 36.523438 70.679688 L 36.5625 70.714844 L 36.609375 70.753906 L 36.652344 70.792969 L 36.703125 70.828125 L 36.75 70.859375 L 36.804688 70.886719 L 36.855469 70.914062 L 36.90625 70.9375 L 36.960938 70.960938 L 37.019531 70.976562 L 37.074219 70.992188 L 37.132812 71.007812 L 37.191406 71.019531 L 37.25 71.023438 L 37.3125 71.03125 L 37.375 71.03125 L 37.375 72.84375 L 37.21875 72.839844 L 37.066406 72.824219 L 36.917969 72.808594 L 36.769531 72.78125 L 36.621094 72.746094 L 36.476562 72.703125 L 36.339844 72.660156 L 36.199219 72.605469 L 36.066406 72.542969 L 35.9375 72.476562 L 35.8125 72.402344 L 35.6875 72.324219 L 35.570312 72.238281 L 35.457031 72.152344 L 35.347656 72.054688 L 35.242188 71.957031 L 35.144531 71.851562 L 35.046875 71.742188 L 34.960938 71.628906 L 34.875 71.511719 L 34.796875 71.390625 L 34.726562 71.265625 L 34.65625 71.132812 L 34.597656 71 L 34.539062 70.863281 L 34.496094 70.722656 L 34.453125 70.578125 L 34.417969 70.433594 L 34.390625 70.28125 L 34.375 70.132812 L 34.359375 69.980469 Z M 34.355469 69.824219 C 34.355469 69.324219 34.761719 68.921875 35.261719 68.921875 C 35.761719 68.921875 36.167969 69.324219 36.167969 69.824219 Z M 36.167969 57.621094 L 36.167969 69.824219 L 34.355469 69.824219 L 34.355469 57.621094 L 34.8125 56.839844 Z M 34.355469 57.621094 C 34.355469 57.121094 34.761719 56.714844 35.261719 56.714844 C 35.761719 56.714844 36.167969 57.121094 36.167969 57.621094 Z M 24.238281 62.941406 L 34.8125 56.839844 L 35.714844 58.40625 L 25.144531 64.503906 L 25.144531 64.507812 Z M 25.144531 64.503906 C 24.710938 64.757812 24.160156 64.609375 23.910156 64.175781 C 23.660156 63.742188 23.804688 63.191406 24.238281 62.941406 Z M 21.027344 63.402344 L 22.589844 62.496094 L 22.625 62.550781 L 22.660156 62.601562 L 22.695312 62.648438 L 22.734375 62.695312 L 22.777344 62.738281 L 22.816406 62.78125 L 22.863281 62.820312 L 22.90625 62.855469 L 22.957031 62.890625 L 23.003906 62.921875 L 23.105469 62.976562 L 23.160156 63 L 23.214844 63.019531 L 23.269531 63.042969 L 23.328125 63.058594 L 23.382812 63.074219 L 23.4375 63.082031 L 23.554688 63.097656 L 23.613281 63.101562 L 23.675781 63.101562 L 23.730469 63.097656 L 23.847656 63.082031 L 23.902344 63.074219 L 23.960938 63.054688 L 24.015625 63.039062 L 24.078125 63.019531 L 24.132812 62.996094 L 24.183594 62.96875 L 24.238281 62.941406 L 25.144531 64.507812 L 25.011719 64.582031 L 24.871094 64.648438 L 24.730469 64.707031 L 24.589844 64.757812 L 24.445312 64.800781 L 24.300781 64.835938 L 24.15625 64.867188 L 24.011719 64.886719 L 23.863281 64.902344 L 23.71875 64.90625 L 23.574219 64.90625 L 23.429688 64.902344 L 23.28125 64.886719 L 23.140625 64.867188 L 22.996094 64.839844 L 22.859375 64.808594 L 22.71875 64.765625 L 22.582031 64.71875 L 22.449219 64.664062 L 22.316406 64.601562 L 22.1875 64.535156 L 22.0625 64.464844 L 21.9375 64.382812 L 21.816406 64.300781 L 21.703125 64.207031 L 21.59375 64.109375 L 21.484375 64.007812 L 21.378906 63.898438 L 21.285156 63.785156 L 21.191406 63.664062 L 21.105469 63.535156 L 21.023438 63.402344 Z M 21.023438 63.402344 C 20.773438 62.96875 20.921875 62.417969 21.355469 62.167969 C 21.789062 61.917969 22.339844 62.066406 22.589844 62.496094 Z M 16.527344 51.996094 L 22.589844 62.496094 L 21.027344 63.402344 L 14.957031 52.898438 Z M 14.957031 52.898438 C 14.707031 52.464844 14.859375 51.910156 15.292969 51.660156 C 15.726562 51.410156 16.277344 51.5625 16.527344 51.996094 Z M 16.066406 48.777344 L 16.96875 50.347656 L 16.914062 50.378906 L 16.867188 50.414062 L 16.816406 50.449219 L 16.773438 50.488281 L 16.726562 50.527344 L 16.648438 50.613281 L 16.578125 50.707031 L 16.546875 50.753906 L 16.515625 50.808594 L 16.46875 50.910156 L 16.445312 50.96875 L 16.425781 51.023438 L 16.394531 51.132812 L 16.382812 51.191406 L 16.378906 51.25 L 16.371094 51.308594 L 16.367188 51.367188 L 16.367188 51.425781 L 16.371094 51.484375 L 16.378906 51.542969 L 16.382812 51.597656 L 16.394531 51.65625 L 16.414062 51.71875 L 16.425781 51.773438 L 16.445312 51.828125 L 16.5 51.9375 L 16.527344 51.996094 L 14.957031 52.898438 L 14.886719 52.761719 L 14.820312 52.625 L 14.761719 52.484375 L 14.707031 52.339844 L 14.667969 52.199219 L 14.628906 52.054688 L 14.601562 51.90625 L 14.582031 51.761719 L 14.566406 51.617188 L 14.558594 51.46875 L 14.558594 51.324219 L 14.566406 51.179688 L 14.582031 51.035156 L 14.601562 50.890625 L 14.625 50.75 L 14.660156 50.609375 L 14.703125 50.472656 L 14.75 50.335938 L 14.800781 50.199219 L 14.863281 50.070312 L 14.929688 49.941406 L 15.003906 49.8125 L 15.078125 49.691406 L 15.167969 49.574219 L 15.257812 49.453125 L 15.460938 49.234375 L 15.570312 49.136719 L 15.683594 49.039062 L 15.804688 48.945312 L 15.933594 48.859375 Z M 16.066406 48.777344 C 16.496094 48.527344 17.050781 48.675781 17.300781 49.109375 C 17.550781 49.542969 17.402344 50.097656 16.96875 50.347656 Z M 27.539062 44.242188 L 16.96875 50.347656 L 16.066406 48.777344 L 26.632812 42.675781 L 27.539062 42.675781 Z M 26.632812 42.675781 C 27.066406 42.425781 27.617188 42.574219 27.867188 43.007812 C 28.117188 43.4375 27.972656 43.992188 27.539062 44.242188 Z M 16.96875 36.570312 L 27.539062 42.675781 L 26.632812 44.242188 L 16.066406 38.140625 Z M 16.066406 38.140625 C 15.632812 37.890625 15.480469 37.335938 15.730469 36.90625 C 15.980469 36.472656 16.539062 36.324219 16.96875 36.570312 Z M 14.957031 34.019531 L 16.527344 34.925781 L 16.445312 35.089844 L 16.425781 35.144531 L 16.414062 35.207031 L 16.394531 35.261719 L 16.382812 35.320312 L 16.378906 35.375 L 16.371094 35.433594 L 16.367188 35.492188 L 16.367188 35.550781 L 16.371094 35.609375 L 16.378906 35.667969 L 16.382812 35.726562 L 16.394531 35.78125 L 16.410156 35.839844 L 16.425781 35.894531 L 16.445312 35.949219 L 16.46875 36.007812 L 16.515625 36.109375 L 16.546875 36.164062 L 16.578125 36.210938 L 16.648438 36.304688 L 16.726562 36.390625 L 16.773438 36.429688 L 16.816406 36.46875 L 16.867188 36.507812 L 16.914062 36.539062 L 16.96875 36.570312 L 16.066406 38.140625 L 15.933594 38.0625 L 15.804688 37.972656 L 15.683594 37.878906 L 15.570312 37.78125 L 15.460938 37.683594 L 15.257812 37.464844 L 15.167969 37.347656 L 15.078125 37.226562 L 14.929688 36.976562 L 14.863281 36.851562 L 14.800781 36.71875 L 14.75 36.582031 L 14.703125 36.445312 L 14.660156 36.308594 L 14.628906 36.167969 L 14.601562 36.027344 L 14.582031 35.882812 L 14.566406 35.738281 L 14.558594 35.59375 L 14.558594 35.449219 L 14.566406 35.300781 L 14.582031 35.15625 L 14.601562 35.011719 L 14.628906 34.863281 L 14.667969 34.71875 L 14.707031 34.578125 L 14.761719 34.433594 L 14.820312 34.292969 L 14.886719 34.152344 Z M 14.957031 34.019531 C 15.207031 33.589844 15.761719 33.4375 16.195312 33.6875 C 16.628906 33.9375 16.777344 34.492188 16.527344 34.925781 Z M 22.589844 24.421875 L 16.527344 34.925781 L 14.957031 34.019531 L 21.027344 23.515625 Z M 21.027344 23.515625 C 21.277344 23.082031 21.828125 22.933594 22.261719 23.183594 C 22.695312 23.433594 22.839844 23.988281 22.589844 24.421875 Z M 25.144531 22.410156 L 24.238281 23.976562 L 24.1875 23.949219 L 24.132812 23.921875 L 24.078125 23.898438 L 24.015625 23.878906 L 23.90625 23.847656 L 23.847656 23.835938 L 23.789062 23.828125 L 23.734375 23.820312 L 23.675781 23.816406 L 23.613281 23.816406 L 23.554688 23.820312 L 23.496094 23.828125 L 23.441406 23.835938 L 23.382812 23.847656 L 23.328125 23.859375 L 23.269531 23.878906 L 23.214844 23.894531 L 23.105469 23.941406 L 23.054688 23.96875 L 23.003906 24 L 22.957031 24.03125 L 22.90625 24.0625 L 22.863281 24.097656 L 22.816406 24.136719 L 22.777344 24.179688 L 22.734375 24.222656 L 22.695312 24.269531 L 22.660156 24.316406 L 22.625 24.367188 L 22.589844 24.421875 L 21.027344 23.515625 L 21.105469 23.382812 L 21.191406 23.257812 L 21.285156 23.132812 L 21.378906 23.019531 L 21.484375 22.914062 L 21.59375 22.808594 L 21.703125 22.710938 L 21.816406 22.617188 L 21.9375 22.535156 L 22.0625 22.453125 L 22.1875 22.382812 L 22.316406 22.3125 L 22.449219 22.253906 L 22.582031 22.203125 L 22.71875 22.152344 L 22.859375 22.109375 L 22.996094 22.078125 L 23.140625 22.050781 L 23.28125 22.03125 L 23.429688 22.015625 L 23.574219 22.011719 L 23.71875 22.011719 L 23.863281 22.015625 L 24.011719 22.03125 L 24.15625 22.050781 L 24.300781 22.078125 L 24.445312 22.117188 L 24.589844 22.160156 L 24.730469 22.210938 L 24.871094 22.269531 L 25.011719 22.335938 Z M 25.144531 22.410156 C 25.578125 22.660156 25.726562 23.214844 25.476562 23.648438 C 25.226562 24.078125 24.671875 24.226562 24.238281 23.976562 Z M 34.8125 30.082031 L 24.238281 23.976562 L 25.144531 22.410156 L 35.714844 28.511719 L 36.167969 29.296875 Z M 35.714844 28.511719 C 36.148438 28.761719 36.296875 29.316406 36.046875 29.75 C 35.796875 30.179688 35.242188 30.332031 34.8125 30.082031 Z M 36.167969 17.089844 L 36.167969 29.296875 L 34.355469 29.296875 L 34.355469 17.089844 Z M 34.355469 17.089844 C 34.355469 16.589844 34.761719 16.1875 35.261719 16.1875 C 35.761719 16.1875 36.167969 16.589844 36.167969 17.089844 Z M 37.375 14.074219 L 37.375 15.886719 L 37.3125 15.886719 L 37.25 15.894531 L 37.132812 15.910156 L 37.074219 15.925781 L 37.019531 15.9375 L 36.960938 15.960938 L 36.90625 15.980469 L 36.855469 16.003906 L 36.804688 16.03125 L 36.75 16.058594 L 36.703125 16.089844 L 36.652344 16.125 L 36.609375 16.160156 L 36.5625 16.203125 L 36.484375 16.28125 L 36.441406 16.328125 L 36.40625 16.371094 L 36.371094 16.421875 L 36.339844 16.46875 L 36.3125 16.519531 L 36.285156 16.574219 L 36.261719 16.625 L 36.242188 16.679688 L 36.222656 16.738281 L 36.207031 16.792969 L 36.191406 16.851562 L 36.175781 16.96875 L 36.167969 17.03125 L 36.167969 17.089844 L 34.355469 17.089844 L 34.359375 16.9375 L 34.390625 16.632812 L 34.417969 16.488281 L 34.453125 16.339844 L 34.496094 16.195312 L 34.539062 16.054688 L 34.597656 15.917969 L 34.65625 15.785156 L 34.726562 15.652344 L 34.796875 15.527344 L 34.875 15.40625 L 34.960938 15.289062 L 35.046875 15.175781 L 35.144531 15.0625 L 35.242188 14.960938 L 35.347656 14.859375 L 35.457031 14.765625 L 35.570312 14.675781 L 35.6875 14.59375 L 35.8125 14.515625 L 35.9375 14.441406 L 36.066406 14.375 L 36.199219 14.316406 L 36.339844 14.257812 L 36.476562 14.210938 L 36.621094 14.171875 L 36.769531 14.136719 L 36.917969 14.109375 L 37.066406 14.09375 L 37.21875 14.078125 Z M 37.375 14.074219 C 37.875 14.074219 38.277344 14.480469 38.277344 14.980469 C 38.277344 15.480469 37.875 15.886719 37.375 15.886719 Z M 37.375 14.074219 " fill-opacity="1" fill-rule="nonzero"/><g clip-path="url(#2fd8d61c70)"><path fill="#5f5c9e" d="M 43.289062 66.707031 C 43.007812 66.707031 42.785156 66.480469 42.785156 66.203125 L 42.785156 30.804688 C 42.785156 30.527344 43.011719 30.300781 43.289062 30.300781 C 43.566406 30.300781 43.789062 30.527344 43.789062 30.804688 L 43.789062 66.203125 C 43.792969 66.480469 43.566406 66.707031 43.289062 66.707031 Z M 43.289062 66.707031 " fill-opacity="1" fill-rule="nonzero"/></g><g clip-path="url(#d0fca5357d)"><path fill="#5f5c9e" d="M 43.289062 30.644531 C 42.621094 30.644531 42.078125 30.101562 42.078125 29.4375 C 42.078125 28.769531 42.621094 28.226562 43.289062 28.226562 C 43.953125 28.226562 44.496094 28.769531 44.496094 29.4375 C 44.496094 30.101562 43.953125 30.644531 43.289062 30.644531 Z M 43.289062 29.234375 C 43.175781 29.234375 43.085938 29.324219 43.085938 29.433594 C 43.085938 29.546875 43.175781 29.636719 43.289062 29.636719 C 43.398438 29.636719 43.492188 29.546875 43.492188 29.433594 C 43.492188 29.324219 43.402344 29.234375 43.289062 29.234375 Z M 43.289062 29.234375 " fill-opacity="1" fill-rule="nonzero"/></g><g clip-path="url(#b4ceb6930f)"><path fill="#5f5c9e" d="M 39.316406 38.742188 C 30.511719 38.742188 26.542969 36.007812 26.378906 35.890625 C 26.15625 35.734375 26.097656 35.4375 26.242188 35.210938 C 26.386719 34.984375 26.683594 34.910156 26.917969 35.042969 C 27.058594 35.125 27.25 35.164062 27.480469 35.164062 C 28.5625 35.164062 30.265625 34.339844 32.066406 33.464844 C 33.941406 32.558594 35.875 31.621094 37.550781 31.378906 C 39.664062 31.074219 40.871094 31.324219 41.222656 32.144531 C 41.472656 32.730469 41.230469 33.453125 40.5 34.300781 C 40.953125 34.410156 41.824219 34.496094 42.664062 34.5 C 42.871094 34.5 43.054688 34.625 43.128906 34.816406 C 43.207031 35.003906 43.160156 35.222656 43.011719 35.363281 L 39.667969 38.597656 C 39.574219 38.691406 39.449219 38.742188 39.316406 38.742188 Z M 28.757812 35.964844 C 30.640625 36.730469 34.039062 37.707031 39.113281 37.734375 L 41.464844 35.460938 C 39.621094 35.3125 39.421875 34.851562 39.347656 34.679688 C 39.292969 34.550781 39.203125 34.210938 39.535156 33.863281 C 40.257812 33.101562 40.351562 32.667969 40.296875 32.542969 C 40.25 32.4375 39.945312 32.257812 39.097656 32.257812 C 38.703125 32.257812 38.230469 32.296875 37.691406 32.375 C 36.171875 32.59375 34.308594 33.496094 32.507812 34.371094 C 31.160156 35.023438 29.863281 35.652344 28.757812 35.964844 Z M 28.757812 35.964844 " fill-opacity="1" fill-rule="nonzero"/></g><path fill="#5f5c9e" d="M 30.648438 37.441406 C 30.4375 37.441406 30.246094 37.3125 30.171875 37.105469 C 30.078125 36.84375 30.21875 36.558594 30.480469 36.464844 L 33.527344 35.398438 C 33.789062 35.304688 34.078125 35.445312 34.167969 35.703125 C 34.261719 35.96875 34.121094 36.253906 33.859375 36.347656 L 30.8125 37.414062 C 30.757812 37.433594 30.703125 37.441406 30.648438 37.441406 Z M 30.648438 37.441406 " fill-opacity="1" fill-rule="nonzero"/><path fill="#5f5c9e" d="M 34.664062 38.273438 C 34.457031 38.273438 34.261719 38.140625 34.1875 37.933594 C 34.097656 37.671875 34.234375 37.386719 34.496094 37.292969 L 37.546875 36.226562 C 37.808594 36.136719 38.09375 36.273438 38.1875 36.535156 C 38.277344 36.800781 38.140625 37.085938 37.878906 37.175781 L 34.828125 38.242188 C 34.777344 38.261719 34.71875 38.273438 34.664062 38.273438 Z M 34.664062 38.273438 " fill-opacity="1" fill-rule="nonzero"/><g clip-path="url(#0e857a9371)"><path fill="#5f5c9e" d="M 47.394531 38.742188 C 47.265625 38.742188 47.140625 38.691406 47.046875 38.597656 L 43.703125 35.367188 C 43.554688 35.222656 43.507812 35.003906 43.585938 34.816406 C 43.660156 34.625 43.84375 34.5 44.050781 34.5 C 44.890625 34.496094 45.761719 34.410156 46.214844 34.300781 C 45.484375 33.449219 45.242188 32.726562 45.492188 32.144531 C 45.84375 31.320312 47.050781 31.070312 49.164062 31.378906 C 50.839844 31.621094 52.773438 32.558594 54.644531 33.464844 C 56.445312 34.339844 58.148438 35.164062 59.230469 35.164062 C 59.464844 35.164062 59.65625 35.125 59.796875 35.042969 C 60.027344 34.910156 60.324219 34.984375 60.46875 35.210938 C 60.613281 35.4375 60.554688 35.738281 60.335938 35.890625 C 60.171875 36.007812 56.203125 38.742188 47.394531 38.742188 Z M 45.25 35.460938 L 47.597656 37.734375 C 52.675781 37.710938 56.070312 36.730469 57.953125 35.964844 C 56.847656 35.652344 55.550781 35.023438 54.203125 34.371094 C 52.402344 33.496094 50.539062 32.59375 49.019531 32.371094 C 48.480469 32.292969 48.007812 32.253906 47.613281 32.253906 C 46.765625 32.253906 46.460938 32.4375 46.417969 32.542969 C 46.363281 32.664062 46.453125 33.097656 47.175781 33.863281 C 47.511719 34.210938 47.417969 34.550781 47.363281 34.679688 C 47.292969 34.851562 47.09375 35.3125 45.25 35.460938 Z M 45.25 35.460938 " fill-opacity="1" fill-rule="nonzero"/></g><path fill="#5f5c9e" d="M 56.066406 37.441406 C 56.011719 37.441406 55.953125 37.433594 55.898438 37.414062 L 52.851562 36.347656 C 52.589844 36.253906 52.453125 35.96875 52.542969 35.703125 C 52.636719 35.445312 52.921875 35.304688 53.183594 35.398438 L 56.230469 36.464844 C 56.496094 36.554688 56.632812 36.84375 56.539062 37.105469 C 56.46875 37.3125 56.273438 37.441406 56.066406 37.441406 Z M 56.066406 37.441406 " fill-opacity="1" fill-rule="nonzero"/><path fill="#5f5c9e" d="M 52.050781 38.273438 C 51.992188 38.273438 51.9375 38.261719 51.882812 38.242188 L 48.835938 37.175781 C 48.574219 37.085938 48.433594 36.796875 48.527344 36.535156 C 48.621094 36.273438 48.90625 36.132812 49.167969 36.226562 L 52.214844 37.292969 C 52.480469 37.386719 52.617188 37.671875 52.523438 37.933594 C 52.453125 38.140625 52.257812 38.273438 52.050781 38.273438 Z M 52.050781 38.273438 " fill-opacity="1" fill-rule="nonzero"/><path fill="#5f5c9e" d="M 41.253906 64.085938 C 41.082031 64.085938 40.914062 63.996094 40.820312 63.835938 C 40.679688 63.597656 40.757812 63.289062 40.996094 63.148438 L 43.03125 61.945312 C 44.167969 61.355469 44.539062 60.875 44.511719 60.621094 C 44.476562 60.234375 43.640625 59.785156 43.050781 59.609375 C 43.035156 59.605469 43.015625 59.597656 43 59.589844 C 41.183594 58.824219 40.304688 57.988281 40.304688 57.03125 C 40.308594 55.84375 41.699219 55.085938 42.527344 54.738281 C 45.1875 53.628906 45.449219 52.78125 45.4375 52.46875 C 45.410156 51.65625 43.777344 50.851562 42.992188 50.589844 C 39.203125 49.398438 39.125 47.421875 39.140625 47.097656 C 39.144531 46.785156 39.355469 45.082031 43.453125 44.351562 C 46.726562 43.765625 47.09375 42.3125 47.097656 42.300781 C 47.101562 42.289062 47.105469 42.265625 47.109375 42.253906 C 47.136719 42.140625 47.128906 41.972656 46.921875 41.871094 C 46.671875 41.746094 46.570312 41.445312 46.691406 41.195312 C 46.8125 40.945312 47.117188 40.84375 47.363281 40.964844 C 48.160156 41.355469 48.183594 42.132812 48.078125 42.515625 C 48.011719 42.84375 47.453125 44.660156 43.628906 45.339844 C 40.273438 45.941406 40.144531 47.105469 40.144531 47.117188 C 40.144531 47.152344 40.148438 47.128906 40.140625 47.164062 C 40.144531 47.164062 40.101562 48.628906 43.300781 49.632812 C 43.621094 49.738281 46.378906 50.703125 46.445312 52.429688 C 46.488281 53.601562 45.335938 54.65625 42.914062 55.667969 C 41.941406 56.074219 41.3125 56.609375 41.3125 57.035156 C 41.3125 57.257812 41.511719 57.863281 43.367188 58.652344 C 43.675781 58.75 45.402344 59.335938 45.515625 60.523438 C 45.589844 61.335938 44.9375 62.085938 43.519531 62.824219 L 41.507812 64.011719 C 41.429688 64.0625 41.34375 64.085938 41.253906 64.085938 Z M 41.253906 64.085938 " fill-opacity="1" fill-rule="nonzero"/><path fill="#5f5c9e" d="M 46.554688 41.484375 C 46.125 41.484375 45.652344 41.191406 45.46875 41.066406 C 45.25 40.914062 44.730469 40.515625 44.644531 40.046875 C 44.613281 39.867188 44.648438 39.6875 44.746094 39.546875 C 44.816406 39.445312 44.992188 39.269531 45.328125 39.269531 C 45.761719 39.269531 46.234375 39.5625 46.417969 39.6875 C 47.152344 40.195312 47.429688 40.773438 47.140625 41.199219 C 47.066406 41.308594 46.894531 41.484375 46.554688 41.484375 Z M 46.554688 41.484375 " fill-opacity="1" fill-rule="nonzero"/><path fill="#5f5c9e" d="M 45.339844 64.085938 C 45.253906 64.085938 45.164062 64.0625 45.085938 64.011719 L 43.050781 62.8125 C 41.652344 62.085938 41 61.335938 41.078125 60.523438 C 41.191406 59.335938 42.914062 58.75 43.226562 58.652344 C 45.082031 57.867188 45.28125 57.261719 45.28125 57.035156 C 45.28125 56.613281 44.652344 56.074219 43.675781 55.667969 C 41.257812 54.660156 40.105469 53.601562 40.148438 52.429688 C 40.214844 50.703125 42.972656 49.742188 43.285156 49.636719 C 46.464844 48.636719 46.453125 47.179688 46.449219 47.164062 C 46.449219 47.140625 46.449219 47.117188 46.449219 47.089844 C 46.445312 47.089844 46.300781 45.9375 42.964844 45.34375 C 39.140625 44.660156 38.582031 42.84375 38.511719 42.515625 C 38.410156 42.132812 38.433594 41.355469 39.226562 40.964844 C 39.476562 40.84375 39.777344 40.945312 39.902344 41.195312 C 40.023438 41.445312 39.921875 41.746094 39.671875 41.871094 C 39.421875 41.992188 39.472656 42.210938 39.484375 42.253906 C 39.492188 42.273438 39.496094 42.292969 39.5 42.3125 C 39.5 42.3125 39.867188 43.765625 43.140625 44.351562 C 47.238281 45.082031 47.453125 46.785156 47.453125 47.097656 C 47.46875 47.421875 47.390625 49.398438 43.59375 50.59375 C 42.816406 50.851562 41.183594 51.65625 41.152344 52.46875 C 41.144531 52.78125 41.402344 53.628906 44.0625 54.738281 C 44.894531 55.082031 46.285156 55.84375 46.285156 57.03125 C 46.289062 57.988281 45.40625 58.824219 43.59375 59.589844 C 43.574219 59.597656 43.558594 59.601562 43.539062 59.609375 C 42.949219 59.785156 42.113281 60.234375 42.078125 60.621094 C 42.054688 60.875 42.425781 61.355469 43.535156 61.933594 L 45.59375 63.148438 C 45.832031 63.289062 45.914062 63.597656 45.773438 63.839844 C 45.679688 63.996094 45.511719 64.085938 45.339844 64.085938 Z M 45.339844 64.085938 " fill-opacity="1" fill-rule="nonzero"/><path fill="#5f5c9e" d="M 40.039062 41.484375 C 39.703125 41.484375 39.53125 41.308594 39.457031 41.207031 C 39.164062 40.773438 39.441406 40.195312 40.179688 39.6875 C 40.359375 39.5625 40.832031 39.269531 41.265625 39.269531 C 41.601562 39.269531 41.777344 39.445312 41.847656 39.550781 C 41.945312 39.691406 41.984375 39.867188 41.949219 40.046875 C 41.863281 40.511719 41.34375 40.914062 41.128906 41.066406 C 40.941406 41.191406 40.46875 41.484375 40.039062 41.484375 Z M 40.039062 41.484375 " fill-opacity="1" fill-rule="nonzero"/></g></g><g fill="#000000" fill-opacity="1"><g transform="translate(122.009922, 188.376784)"><g><path d="M 18.59375 0 L 6.21875 -17.484375 L 6.21875 -3.75 C 6.21875 -3.289062 6.257812 -2.925781 6.34375 -2.65625 C 6.4375 -2.394531 6.550781 -2.191406 6.6875 -2.046875 C 6.832031 -1.898438 7.003906 -1.800781 7.203125 -1.75 C 7.410156 -1.707031 7.625 -1.6875 7.84375 -1.6875 L 9.171875 -1.6875 L 9.171875 0 L 0.890625 0 L 0.890625 -1.6875 L 2.21875 -1.6875 C 2.445312 -1.6875 2.65625 -1.707031 2.84375 -1.75 C 3.039062 -1.800781 3.210938 -1.898438 3.359375 -2.046875 C 3.515625 -2.191406 3.632812 -2.394531 3.71875 -2.65625 C 3.800781 -2.925781 3.84375 -3.289062 3.84375 -3.75 L 3.84375 -19.046875 C 3.84375 -19.460938 3.796875 -19.796875 3.703125 -20.046875 C 3.617188 -20.304688 3.5 -20.503906 3.34375 -20.640625 C 3.195312 -20.773438 3.023438 -20.863281 2.828125 -20.90625 C 2.640625 -20.957031 2.4375 -20.984375 2.21875 -20.984375 L 0.890625 -20.984375 L 0.890625 -22.65625 L 7.9375 -22.65625 L 19.140625 -6.8125 L 19.140625 -19.046875 C 19.140625 -19.460938 19.09375 -19.796875 19 -20.046875 C 18.914062 -20.304688 18.796875 -20.503906 18.640625 -20.640625 C 18.492188 -20.773438 18.320312 -20.863281 18.125 -20.90625 C 17.925781 -20.957031 17.722656 -20.984375 17.515625 -20.984375 L 16.171875 -20.984375 L 16.171875 -22.65625 L 24.46875 -22.65625 L 24.46875 -20.984375 L 23.140625 -20.984375 C 22.921875 -20.984375 22.710938 -20.957031 22.515625 -20.90625 C 22.316406 -20.863281 22.140625 -20.769531 21.984375 -20.625 C 21.835938 -20.476562 21.722656 -20.269531 21.640625 -20 C 21.554688 -19.726562 21.515625 -19.367188 21.515625 -18.921875 L 21.515625 0 Z M 18.59375 0 "/></g></g></g><g fill="#000000" fill-opacity="1"><g transform="translate(147.019335, 188.376784)"><g><path d="M 8.875 -1.9375 L 15.234375 -1.9375 C 15.554688 -1.9375 15.828125 -1.992188 16.046875 -2.109375 C 16.273438 -2.234375 16.472656 -2.398438 16.640625 -2.609375 C 16.804688 -2.828125 16.9375 -3.082031 17.03125 -3.375 C 17.132812 -3.675781 17.210938 -4.003906 17.265625 -4.359375 L 17.515625 -5.84375 L 19.703125 -5.84375 L 19.484375 0 L 0.890625 0 L 0.890625 -1.6875 L 2.21875 -1.6875 C 2.445312 -1.6875 2.65625 -1.707031 2.84375 -1.75 C 3.039062 -1.789062 3.210938 -1.875 3.359375 -2 C 3.515625 -2.132812 3.632812 -2.328125 3.71875 -2.578125 C 3.800781 -2.828125 3.84375 -3.160156 3.84375 -3.578125 L 3.84375 -18.921875 C 3.84375 -19.367188 3.800781 -19.726562 3.71875 -20 C 3.632812 -20.269531 3.519531 -20.476562 3.375 -20.625 C 3.226562 -20.769531 3.054688 -20.863281 2.859375 -20.90625 C 2.671875 -20.957031 2.457031 -20.984375 2.21875 -20.984375 L 0.890625 -20.984375 L 0.890625 -22.65625 L 18.5 -22.65625 L 18.625 -16.8125 L 16.40625 -16.8125 L 16.25 -18.3125 C 16.164062 -19.09375 15.96875 -19.6875 15.65625 -20.09375 C 15.351562 -20.507812 14.875 -20.71875 14.21875 -20.71875 L 8.875 -20.71875 L 8.875 -12.78125 L 16.40625 -12.78125 L 16.40625 -10.875 L 8.875 -10.875 Z M 8.875 -1.9375 "/></g></g></g><g fill="#000000" fill-opacity="1"><g transform="translate(167.73655, 188.376784)"><g><path d="M 19.171875 -22.4375 L 23.546875 -10.3125 C 23.734375 -9.820312 23.90625 -9.320312 24.0625 -8.8125 C 24.226562 -8.300781 24.378906 -7.8125 24.515625 -7.34375 C 24.648438 -6.875 24.769531 -6.441406 24.875 -6.046875 C 24.976562 -5.660156 25.054688 -5.328125 25.109375 -5.046875 C 25.179688 -5.429688 25.265625 -5.851562 25.359375 -6.3125 C 25.453125 -6.78125 25.550781 -7.269531 25.65625 -7.78125 C 25.769531 -8.289062 25.882812 -8.816406 26 -9.359375 C 26.125 -9.898438 26.25 -10.421875 26.375 -10.921875 L 28.046875 -17.765625 C 28.078125 -17.890625 28.109375 -18.035156 28.140625 -18.203125 C 28.179688 -18.367188 28.21875 -18.53125 28.25 -18.6875 C 28.28125 -18.851562 28.300781 -19.003906 28.3125 -19.140625 C 28.332031 -19.285156 28.34375 -19.398438 28.34375 -19.484375 C 28.34375 -20.023438 28.175781 -20.410156 27.84375 -20.640625 C 27.519531 -20.867188 27.007812 -20.984375 26.3125 -20.984375 L 25.578125 -20.984375 L 25.578125 -22.65625 L 33.859375 -22.65625 L 33.859375 -20.984375 L 33.25 -20.984375 C 32.9375 -20.984375 32.660156 -20.953125 32.421875 -20.890625 C 32.191406 -20.828125 31.984375 -20.703125 31.796875 -20.515625 C 31.609375 -20.335938 31.4375 -20.085938 31.28125 -19.765625 C 31.132812 -19.453125 30.988281 -19.03125 30.84375 -18.5 L 25.921875 0 L 22.3125 0 L 16.984375 -14.890625 L 12.40625 0 L 8.46875 0 L 2.671875 -19.296875 C 2.578125 -19.617188 2.460938 -19.890625 2.328125 -20.109375 C 2.191406 -20.328125 2.03125 -20.5 1.84375 -20.625 C 1.664062 -20.757812 1.460938 -20.851562 1.234375 -20.90625 C 1.003906 -20.957031 0.734375 -20.984375 0.421875 -20.984375 L 0 -20.984375 L 0 -22.65625 L 10.59375 -22.65625 L 10.59375 -20.984375 L 9.875 -20.984375 C 9.226562 -20.984375 8.75 -20.859375 8.4375 -20.609375 C 8.125 -20.359375 7.96875 -19.972656 7.96875 -19.453125 C 7.96875 -19.273438 8 -19.015625 8.0625 -18.671875 C 8.132812 -18.335938 8.210938 -18.023438 8.296875 -17.734375 L 10.40625 -10.40625 C 10.519531 -10.007812 10.640625 -9.578125 10.765625 -9.109375 C 10.898438 -8.640625 11.023438 -8.160156 11.140625 -7.671875 C 11.253906 -7.191406 11.359375 -6.726562 11.453125 -6.28125 C 11.546875 -5.84375 11.613281 -5.453125 11.65625 -5.109375 C 11.800781 -5.796875 11.957031 -6.4375 12.125 -7.03125 C 12.289062 -7.625 12.46875 -8.226562 12.65625 -8.84375 L 16.84375 -22.4375 Z M 19.171875 -22.4375 "/></g></g></g><g fill="#000000" fill-opacity="1"><g transform="translate(201.593779, 188.376784)"><g/></g></g><g fill="#000000" fill-opacity="1"><g transform="translate(209.837278, 188.376784)"><g><path d="M 14.140625 0 L 14.140625 -1.6875 L 15.515625 -1.6875 C 15.742188 -1.6875 15.953125 -1.707031 16.140625 -1.75 C 16.335938 -1.800781 16.507812 -1.898438 16.65625 -2.046875 C 16.8125 -2.191406 16.929688 -2.394531 17.015625 -2.65625 C 17.097656 -2.925781 17.140625 -3.289062 17.140625 -3.75 L 17.140625 -10.84375 L 8.84375 -10.84375 L 8.84375 -3.75 C 8.84375 -3.289062 8.882812 -2.925781 8.96875 -2.65625 C 9.0625 -2.394531 9.179688 -2.191406 9.328125 -2.046875 C 9.472656 -1.898438 9.644531 -1.800781 9.84375 -1.75 C 10.039062 -1.707031 10.25 -1.6875 10.46875 -1.6875 L 11.84375 -1.6875 L 11.84375 0 L 0.890625 0 L 0.890625 -1.6875 L 2.21875 -1.6875 C 2.445312 -1.6875 2.65625 -1.707031 2.84375 -1.75 C 3.039062 -1.800781 3.210938 -1.898438 3.359375 -2.046875 C 3.515625 -2.191406 3.632812 -2.394531 3.71875 -2.65625 C 3.800781 -2.925781 3.84375 -3.289062 3.84375 -3.75 L 3.84375 -19.03125 C 3.84375 -19.445312 3.796875 -19.78125 3.703125 -20.03125 C 3.617188 -20.289062 3.5 -20.488281 3.34375 -20.625 C 3.195312 -20.757812 3.023438 -20.847656 2.828125 -20.890625 C 2.640625 -20.941406 2.4375 -20.96875 2.21875 -20.96875 L 0.890625 -20.96875 L 0.890625 -22.65625 L 11.84375 -22.65625 L 11.84375 -20.96875 L 10.46875 -20.96875 C 10.25 -20.96875 10.039062 -20.941406 9.84375 -20.890625 C 9.644531 -20.847656 9.472656 -20.753906 9.328125 -20.609375 C 9.179688 -20.460938 9.0625 -20.253906 8.96875 -19.984375 C 8.882812 -19.722656 8.84375 -19.363281 8.84375 -18.90625 L 8.84375 -12.78125 L 17.140625 -12.78125 L 17.140625 -18.90625 C 17.140625 -19.363281 17.097656 -19.722656 17.015625 -19.984375 C 16.929688 -20.253906 16.8125 -20.460938 16.65625 -20.609375 C 16.507812 -20.753906 16.335938 -20.847656 16.140625 -20.890625 C 15.953125 -20.941406 15.742188 -20.96875 15.515625 -20.96875 L 14.140625 -20.96875 L 14.140625 -22.65625 L 25.109375 -22.65625 L 25.109375 -20.96875 L 23.765625 -20.96875 C 23.546875 -20.96875 23.335938 -20.941406 23.140625 -20.890625 C 22.953125 -20.847656 22.78125 -20.753906 22.625 -20.609375 C 22.476562 -20.460938 22.363281 -20.253906 22.28125 -19.984375 C 22.195312 -19.722656 22.15625 -19.363281 22.15625 -18.90625 L 22.15625 -3.578125 C 22.15625 -3.160156 22.195312 -2.828125 22.28125 -2.578125 C 22.375 -2.328125 22.492188 -2.132812 22.640625 -2 C 22.796875 -1.875 22.96875 -1.789062 23.15625 -1.75 C 23.34375 -1.707031 23.546875 -1.6875 23.765625 -1.6875 L 25.109375 -1.6875 L 25.109375 0 Z M 14.140625 0 "/></g></g></g><g fill="#000000" fill-opacity="1"><g transform="translate(235.822895, 188.376784)"><g><path d="M 8.875 -1.9375 L 15.234375 -1.9375 C 15.554688 -1.9375 15.828125 -1.992188 16.046875 -2.109375 C 16.273438 -2.234375 16.472656 -2.398438 16.640625 -2.609375 C 16.804688 -2.828125 16.9375 -3.082031 17.03125 -3.375 C 17.132812 -3.675781 17.210938 -4.003906 17.265625 -4.359375 L 17.515625 -5.84375 L 19.703125 -5.84375 L 19.484375 0 L 0.890625 0 L 0.890625 -1.6875 L 2.21875 -1.6875 C 2.445312 -1.6875 2.65625 -1.707031 2.84375 -1.75 C 3.039062 -1.789062 3.210938 -1.875 3.359375 -2 C 3.515625 -2.132812 3.632812 -2.328125 3.71875 -2.578125 C 3.800781 -2.828125 3.84375 -3.160156 3.84375 -3.578125 L 3.84375 -18.921875 C 3.84375 -19.367188 3.800781 -19.726562 3.71875 -20 C 3.632812 -20.269531 3.519531 -20.476562 3.375 -20.625 C 3.226562 -20.769531 3.054688 -20.863281 2.859375 -20.90625 C 2.671875 -20.957031 2.457031 -20.984375 2.21875 -20.984375 L 0.890625 -20.984375 L 0.890625 -22.65625 L 18.5 -22.65625 L 18.625 -16.8125 L 16.40625 -16.8125 L 16.25 -18.3125 C 16.164062 -19.09375 15.96875 -19.6875 15.65625 -20.09375 C 15.351562 -20.507812 14.875 -20.71875 14.21875 -20.71875 L 8.875 -20.71875 L 8.875 -12.78125 L 16.40625 -12.78125 L 16.40625 -10.875 L 8.875 -10.875 Z M 8.875 -1.9375 "/></g></g></g><g fill="#000000" fill-opacity="1"><g transform="translate(256.54011, 188.376784)"><g><path d="M 6.90625 -7.453125 L 6 -4.71875 C 5.914062 -4.46875 5.828125 -4.164062 5.734375 -3.8125 C 5.648438 -3.46875 5.609375 -3.164062 5.609375 -2.90625 C 5.609375 -2.707031 5.648438 -2.53125 5.734375 -2.375 C 5.816406 -2.21875 5.925781 -2.085938 6.0625 -1.984375 C 6.195312 -1.890625 6.347656 -1.816406 6.515625 -1.765625 C 6.679688 -1.710938 6.859375 -1.6875 7.046875 -1.6875 L 8.390625 -1.6875 L 8.390625 0 L 0.125 0 L 0.125 -1.6875 L 0.515625 -1.6875 C 0.796875 -1.6875 1.050781 -1.71875 1.28125 -1.78125 C 1.507812 -1.84375 1.722656 -1.957031 1.921875 -2.125 C 2.128906 -2.300781 2.320312 -2.535156 2.5 -2.828125 C 2.6875 -3.128906 2.867188 -3.519531 3.046875 -4 L 9.9375 -22.65625 L 14.28125 -22.65625 L 20.921875 -3.96875 C 21.078125 -3.519531 21.238281 -3.148438 21.40625 -2.859375 C 21.570312 -2.566406 21.753906 -2.332031 21.953125 -2.15625 C 22.160156 -1.988281 22.378906 -1.867188 22.609375 -1.796875 C 22.835938 -1.722656 23.078125 -1.6875 23.328125 -1.6875 L 23.890625 -1.6875 L 23.890625 0 L 13.421875 0 L 13.421875 -1.6875 L 14.65625 -1.6875 C 14.8125 -1.6875 14.972656 -1.707031 15.140625 -1.75 C 15.304688 -1.800781 15.453125 -1.875 15.578125 -1.96875 C 15.710938 -2.070312 15.816406 -2.203125 15.890625 -2.359375 C 15.972656 -2.515625 16.015625 -2.695312 16.015625 -2.90625 C 16.015625 -3.164062 15.984375 -3.414062 15.921875 -3.65625 C 15.867188 -3.894531 15.8125 -4.101562 15.75 -4.28125 L 14.625 -7.453125 Z M 12.3125 -14.59375 C 12.195312 -14.957031 12.082031 -15.335938 11.96875 -15.734375 C 11.851562 -16.128906 11.734375 -16.535156 11.609375 -16.953125 C 11.492188 -17.367188 11.378906 -17.78125 11.265625 -18.1875 C 11.160156 -18.59375 11.066406 -18.984375 10.984375 -19.359375 C 10.890625 -19.035156 10.78125 -18.679688 10.65625 -18.296875 C 10.53125 -17.921875 10.398438 -17.53125 10.265625 -17.125 C 10.128906 -16.71875 9.988281 -16.3125 9.84375 -15.90625 C 9.707031 -15.507812 9.578125 -15.125 9.453125 -14.75 L 7.578125 -9.390625 L 14 -9.390625 Z M 12.3125 -14.59375 "/></g></g></g><g fill="#000000" fill-opacity="1"><g transform="translate(280.433861, 188.376784)"><g><path d="M 0.890625 0 L 0.890625 -1.6875 L 2.21875 -1.6875 C 2.457031 -1.6875 2.671875 -1.707031 2.859375 -1.75 C 3.054688 -1.800781 3.226562 -1.898438 3.375 -2.046875 C 3.519531 -2.191406 3.632812 -2.394531 3.71875 -2.65625 C 3.800781 -2.925781 3.84375 -3.289062 3.84375 -3.75 L 3.84375 -18.921875 C 3.84375 -19.367188 3.800781 -19.726562 3.71875 -20 C 3.632812 -20.269531 3.519531 -20.476562 3.375 -20.625 C 3.226562 -20.769531 3.054688 -20.863281 2.859375 -20.90625 C 2.671875 -20.957031 2.457031 -20.984375 2.21875 -20.984375 L 0.890625 -20.984375 L 0.890625 -22.65625 L 11.84375 -22.65625 L 11.84375 -20.984375 L 10.5 -20.984375 C 10.289062 -20.984375 10.082031 -20.957031 9.875 -20.90625 C 9.675781 -20.863281 9.503906 -20.773438 9.359375 -20.640625 C 9.210938 -20.503906 9.09375 -20.304688 9 -20.046875 C 8.914062 -19.796875 8.875 -19.460938 8.875 -19.046875 L 8.875 -1.9375 L 14.78125 -1.9375 C 15.519531 -1.9375 16.097656 -2.171875 16.515625 -2.640625 C 16.929688 -3.109375 17.234375 -3.789062 17.421875 -4.6875 L 17.921875 -7.078125 L 19.703125 -7.078125 L 19.484375 0 Z M 0.890625 0 "/></g></g></g><g fill="#000000" fill-opacity="1"><g transform="translate(301.182066, 188.376784)"><g><path d="M 12.875 -3.75 C 12.875 -3.289062 12.914062 -2.925781 13 -2.65625 C 13.082031 -2.394531 13.195312 -2.191406 13.34375 -2.046875 C 13.5 -1.898438 13.671875 -1.800781 13.859375 -1.75 C 14.054688 -1.707031 14.269531 -1.6875 14.5 -1.6875 L 15.84375 -1.6875 L 15.84375 0 L 4.875 0 L 4.875 -1.6875 L 6.21875 -1.6875 C 6.445312 -1.6875 6.660156 -1.707031 6.859375 -1.75 C 7.054688 -1.800781 7.226562 -1.898438 7.375 -2.046875 C 7.519531 -2.191406 7.632812 -2.394531 7.71875 -2.65625 C 7.800781 -2.925781 7.84375 -3.289062 7.84375 -3.75 L 7.84375 -20.71875 L 5.296875 -20.71875 C 4.828125 -20.71875 4.429688 -20.664062 4.109375 -20.5625 C 3.785156 -20.457031 3.519531 -20.304688 3.3125 -20.109375 C 3.113281 -19.921875 2.96875 -19.6875 2.875 -19.40625 C 2.78125 -19.132812 2.710938 -18.820312 2.671875 -18.46875 L 2.453125 -16.5 L 0.3125 -16.5 L 0.484375 -22.65625 L 20.25 -22.65625 L 20.40625 -16.5 L 18.28125 -16.5 L 18.046875 -18.46875 C 18.003906 -18.820312 17.9375 -19.132812 17.84375 -19.40625 C 17.75 -19.6875 17.597656 -19.921875 17.390625 -20.109375 C 17.191406 -20.304688 16.929688 -20.457031 16.609375 -20.5625 C 16.285156 -20.664062 15.890625 -20.71875 15.421875 -20.71875 L 12.875 -20.71875 Z M 12.875 -3.75 "/></g></g></g><g fill="#000000" fill-opacity="1"><g transform="translate(321.899281, 188.376784)"><g><path d="M 14.140625 0 L 14.140625 -1.6875 L 15.515625 -1.6875 C 15.742188 -1.6875 15.953125 -1.707031 16.140625 -1.75 C 16.335938 -1.800781 16.507812 -1.898438 16.65625 -2.046875 C 16.8125 -2.191406 16.929688 -2.394531 17.015625 -2.65625 C 17.097656 -2.925781 17.140625 -3.289062 17.140625 -3.75 L 17.140625 -10.84375 L 8.84375 -10.84375 L 8.84375 -3.75 C 8.84375 -3.289062 8.882812 -2.925781 8.96875 -2.65625 C 9.0625 -2.394531 9.179688 -2.191406 9.328125 -2.046875 C 9.472656 -1.898438 9.644531 -1.800781 9.84375 -1.75 C 10.039062 -1.707031 10.25 -1.6875 10.46875 -1.6875 L 11.84375 -1.6875 L 11.84375 0 L 0.890625 0 L 0.890625 -1.6875 L 2.21875 -1.6875 C 2.445312 -1.6875 2.65625 -1.707031 2.84375 -1.75 C 3.039062 -1.800781 3.210938 -1.898438 3.359375 -2.046875 C 3.515625 -2.191406 3.632812 -2.394531 3.71875 -2.65625 C 3.800781 -2.925781 3.84375 -3.289062 3.84375 -3.75 L 3.84375 -19.03125 C 3.84375 -19.445312 3.796875 -19.78125 3.703125 -20.03125 C 3.617188 -20.289062 3.5 -20.488281 3.34375 -20.625 C 3.195312 -20.757812 3.023438 -20.847656 2.828125 -20.890625 C 2.640625 -20.941406 2.4375 -20.96875 2.21875 -20.96875 L 0.890625 -20.96875 L 0.890625 -22.65625 L 11.84375 -22.65625 L 11.84375 -20.96875 L 10.46875 -20.96875 C 10.25 -20.96875 10.039062 -20.941406 9.84375 -20.890625 C 9.644531 -20.847656 9.472656 -20.753906 9.328125 -20.609375 C 9.179688 -20.460938 9.0625 -20.253906 8.96875 -19.984375 C 8.882812 -19.722656 8.84375 -19.363281 8.84375 -18.90625 L 8.84375 -12.78125 L 17.140625 -12.78125 L 17.140625 -18.90625 C 17.140625 -19.363281 17.097656 -19.722656 17.015625 -19.984375 C 16.929688 -20.253906 16.8125 -20.460938 16.65625 -20.609375 C 16.507812 -20.753906 16.335938 -20.847656 16.140625 -20.890625 C 15.953125 -20.941406 15.742188 -20.96875 15.515625 -20.96875 L 14.140625 -20.96875 L 14.140625 -22.65625 L 25.109375 -22.65625 L 25.109375 -20.96875 L 23.765625 -20.96875 C 23.546875 -20.96875 23.335938 -20.941406 23.140625 -20.890625 C 22.953125 -20.847656 22.78125 -20.753906 22.625 -20.609375 C 22.476562 -20.460938 22.363281 -20.253906 22.28125 -19.984375 C 22.195312 -19.722656 22.15625 -19.363281 22.15625 -18.90625 L 22.15625 -3.578125 C 22.15625 -3.160156 22.195312 -2.828125 22.28125 -2.578125 C 22.375 -2.328125 22.492188 -2.132812 22.640625 -2 C 22.796875 -1.875 22.96875 -1.789062 23.15625 -1.75 C 23.34375 -1.707031 23.546875 -1.6875 23.765625 -1.6875 L 25.109375 -1.6875 L 25.109375 0 Z M 14.140625 0 "/></g></g></g><g fill="#000000" fill-opacity="1"><g transform="translate(122.009922, 210.55147)"><g><path d="M 10.453125 0 L 10.453125 -0.6875 L 10.515625 -0.6875 C 10.691406 -0.6875 10.847656 -0.695312 10.984375 -0.71875 C 11.128906 -0.75 11.25 -0.800781 11.34375 -0.875 C 11.445312 -0.945312 11.53125 -1.050781 11.59375 -1.1875 C 11.65625 -1.320312 11.691406 -1.503906 11.703125 -1.734375 L 11.703125 -10.546875 L 7.921875 0 L 7.03125 0 L 3.203125 -10.515625 L 3.203125 -1.875 C 3.203125 -1.613281 3.226562 -1.40625 3.28125 -1.25 C 3.332031 -1.09375 3.410156 -0.972656 3.515625 -0.890625 C 3.617188 -0.816406 3.742188 -0.765625 3.890625 -0.734375 C 4.035156 -0.703125 4.203125 -0.6875 4.390625 -0.6875 L 4.4375 -0.6875 L 4.4375 0 L 0.625 0 L 0.625 -0.6875 L 0.84375 -0.6875 C 1.019531 -0.6875 1.191406 -0.695312 1.359375 -0.71875 C 1.523438 -0.75 1.664062 -0.800781 1.78125 -0.875 C 1.90625 -0.945312 2.003906 -1.054688 2.078125 -1.203125 C 2.148438 -1.359375 2.1875 -1.554688 2.1875 -1.796875 L 2.1875 -9.96875 C 2.1875 -10.207031 2.148438 -10.398438 2.078125 -10.546875 C 2.003906 -10.691406 1.90625 -10.804688 1.78125 -10.890625 C 1.664062 -10.972656 1.523438 -11.023438 1.359375 -11.046875 C 1.191406 -11.078125 1.019531 -11.09375 0.84375 -11.09375 L 0.625 -11.09375 L 0.625 -11.78125 L 4.390625 -11.78125 L 7.8125 -2.34375 L 11.1875 -11.78125 L 14.84375 -11.78125 L 14.84375 -11.09375 L 14.640625 -11.09375 C 14.453125 -11.09375 14.273438 -11.078125 14.109375 -11.046875 C 13.941406 -11.015625 13.796875 -10.957031 13.671875 -10.875 C 13.554688 -10.789062 13.460938 -10.671875 13.390625 -10.515625 C 13.316406 -10.359375 13.28125 -10.15625 13.28125 -9.90625 L 13.28125 -1.875 C 13.28125 -1.613281 13.316406 -1.40625 13.390625 -1.25 C 13.460938 -1.09375 13.554688 -0.972656 13.671875 -0.890625 C 13.796875 -0.816406 13.941406 -0.765625 14.109375 -0.734375 C 14.273438 -0.703125 14.453125 -0.6875 14.640625 -0.6875 L 14.84375 -0.6875 L 14.84375 0 Z M 10.453125 0 "/></g></g></g><g fill="#000000" fill-opacity="1"><g transform="translate(150.6929, 210.55147)"><g><path d="M 3.859375 -0.828125 L 7.046875 -0.828125 C 7.304688 -0.828125 7.53125 -0.863281 7.71875 -0.9375 C 7.90625 -1.007812 8.054688 -1.101562 8.171875 -1.21875 C 8.296875 -1.34375 8.394531 -1.488281 8.46875 -1.65625 C 8.539062 -1.820312 8.585938 -1.992188 8.609375 -2.171875 L 8.71875 -2.890625 L 9.59375 -2.890625 L 9.46875 0 L 0.625 0 L 0.625 -0.6875 L 0.84375 -0.6875 C 1.019531 -0.6875 1.191406 -0.695312 1.359375 -0.71875 C 1.523438 -0.75 1.664062 -0.800781 1.78125 -0.875 C 1.90625 -0.945312 2.003906 -1.054688 2.078125 -1.203125 C 2.148438 -1.359375 2.1875 -1.554688 2.1875 -1.796875 L 2.1875 -9.90625 C 2.1875 -10.15625 2.148438 -10.359375 2.078125 -10.515625 C 2.015625 -10.671875 1.921875 -10.789062 1.796875 -10.875 C 1.671875 -10.957031 1.523438 -11.015625 1.359375 -11.046875 C 1.203125 -11.078125 1.03125 -11.09375 0.84375 -11.09375 L 0.625 -11.09375 L 0.625 -11.78125 L 8.9375 -11.78125 L 9.03125 -8.890625 L 8.171875 -8.890625 L 8.09375 -9.609375 C 8.070312 -9.785156 8.03125 -9.957031 7.96875 -10.125 C 7.90625 -10.289062 7.816406 -10.429688 7.703125 -10.546875 C 7.585938 -10.671875 7.441406 -10.769531 7.265625 -10.84375 C 7.085938 -10.914062 6.875 -10.953125 6.625 -10.953125 L 3.859375 -10.953125 L 3.859375 -6.5625 L 7.84375 -6.5625 L 7.84375 -5.765625 L 3.859375 -5.765625 Z M 3.859375 -0.828125 "/></g></g></g><g fill="#000000" fill-opacity="1"><g transform="translate(174.179345, 210.55147)"><g><path d="M 11.046875 -5.90625 C 11.046875 -5 10.929688 -4.179688 10.703125 -3.453125 C 10.484375 -2.734375 10.148438 -2.113281 9.703125 -1.59375 C 9.265625 -1.082031 8.707031 -0.6875 8.03125 -0.40625 C 7.363281 -0.132812 6.582031 0 5.6875 0 L 0.625 0 L 0.625 -0.6875 L 0.84375 -0.6875 C 1.03125 -0.6875 1.203125 -0.703125 1.359375 -0.734375 C 1.523438 -0.765625 1.671875 -0.816406 1.796875 -0.890625 C 1.921875 -0.972656 2.015625 -1.09375 2.078125 -1.25 C 2.148438 -1.40625 2.1875 -1.613281 2.1875 -1.875 L 2.1875 -9.96875 C 2.1875 -10.207031 2.148438 -10.398438 2.078125 -10.546875 C 2.003906 -10.691406 1.90625 -10.804688 1.78125 -10.890625 C 1.664062 -10.972656 1.523438 -11.023438 1.359375 -11.046875 C 1.191406 -11.078125 1.019531 -11.09375 0.84375 -11.09375 L 0.625 -11.09375 L 0.625 -11.78125 L 5.6875 -11.78125 C 6.53125 -11.78125 7.285156 -11.648438 7.953125 -11.390625 C 8.617188 -11.128906 9.179688 -10.75 9.640625 -10.25 C 10.097656 -9.75 10.445312 -9.132812 10.6875 -8.40625 C 10.925781 -7.675781 11.046875 -6.84375 11.046875 -5.90625 Z M 5.296875 -0.84375 C 5.953125 -0.84375 6.523438 -0.953125 7.015625 -1.171875 C 7.503906 -1.390625 7.910156 -1.710938 8.234375 -2.140625 C 8.566406 -2.578125 8.8125 -3.109375 8.96875 -3.734375 C 9.132812 -4.367188 9.21875 -5.09375 9.21875 -5.90625 C 9.21875 -7.539062 8.890625 -8.789062 8.234375 -9.65625 C 7.585938 -10.519531 6.613281 -10.953125 5.3125 -10.953125 L 3.859375 -10.953125 L 3.859375 -0.84375 Z M 5.296875 -0.84375 "/></g></g></g><g fill="#000000" fill-opacity="1"><g transform="translate(199.381854, 210.55147)"><g><path d="M 0.625 0 L 0.625 -0.6875 L 0.84375 -0.6875 C 1.03125 -0.6875 1.203125 -0.703125 1.359375 -0.734375 C 1.523438 -0.765625 1.671875 -0.816406 1.796875 -0.890625 C 1.921875 -0.972656 2.015625 -1.09375 2.078125 -1.25 C 2.148438 -1.40625 2.1875 -1.613281 2.1875 -1.875 L 2.1875 -9.90625 C 2.1875 -10.15625 2.148438 -10.359375 2.078125 -10.515625 C 2.015625 -10.671875 1.921875 -10.789062 1.796875 -10.875 C 1.671875 -10.957031 1.523438 -11.015625 1.359375 -11.046875 C 1.203125 -11.078125 1.03125 -11.09375 0.84375 -11.09375 L 0.625 -11.09375 L 0.625 -11.78125 L 5.4375 -11.78125 L 5.4375 -11.09375 L 5.21875 -11.09375 C 5.03125 -11.09375 4.851562 -11.078125 4.6875 -11.046875 C 4.519531 -11.015625 4.375 -10.957031 4.25 -10.875 C 4.132812 -10.789062 4.039062 -10.671875 3.96875 -10.515625 C 3.894531 -10.359375 3.859375 -10.15625 3.859375 -9.90625 L 3.859375 -1.875 C 3.859375 -1.613281 3.894531 -1.40625 3.96875 -1.25 C 4.039062 -1.09375 4.132812 -0.972656 4.25 -0.890625 C 4.375 -0.816406 4.519531 -0.765625 4.6875 -0.734375 C 4.851562 -0.703125 5.03125 -0.6875 5.21875 -0.6875 L 5.4375 -0.6875 L 5.4375 0 Z M 0.625 0 "/></g></g></g><g fill="#000000" fill-opacity="1"><g transform="translate(218.64662, 210.55147)"><g><path d="M 6.234375 -11.953125 C 6.796875 -11.953125 7.285156 -11.90625 7.703125 -11.8125 C 8.117188 -11.71875 8.460938 -11.585938 8.734375 -11.421875 C 9.015625 -11.253906 9.222656 -11.054688 9.359375 -10.828125 C 9.503906 -10.597656 9.578125 -10.351562 9.578125 -10.09375 C 9.578125 -9.914062 9.539062 -9.753906 9.46875 -9.609375 C 9.394531 -9.472656 9.289062 -9.351562 9.15625 -9.25 C 9.03125 -9.15625 8.878906 -9.078125 8.703125 -9.015625 C 8.523438 -8.960938 8.335938 -8.9375 8.140625 -8.9375 C 8.140625 -9.195312 8.101562 -9.453125 8.03125 -9.703125 C 7.96875 -9.960938 7.859375 -10.191406 7.703125 -10.390625 C 7.554688 -10.585938 7.359375 -10.75 7.109375 -10.875 C 6.867188 -11 6.566406 -11.0625 6.203125 -11.0625 C 5.578125 -11.0625 5.046875 -10.945312 4.609375 -10.71875 C 4.179688 -10.5 3.828125 -10.171875 3.546875 -9.734375 C 3.273438 -9.296875 3.078125 -8.753906 2.953125 -8.109375 C 2.828125 -7.460938 2.765625 -6.726562 2.765625 -5.90625 C 2.765625 -5.164062 2.828125 -4.488281 2.953125 -3.875 C 3.085938 -3.269531 3.296875 -2.75 3.578125 -2.3125 C 3.859375 -1.875 4.210938 -1.53125 4.640625 -1.28125 C 5.078125 -1.039062 5.597656 -0.921875 6.203125 -0.921875 C 6.609375 -0.921875 6.960938 -0.957031 7.265625 -1.03125 C 7.578125 -1.113281 7.847656 -1.21875 8.078125 -1.34375 C 8.316406 -1.476562 8.523438 -1.628906 8.703125 -1.796875 C 8.890625 -1.960938 9.050781 -2.140625 9.1875 -2.328125 C 9.28125 -2.265625 9.351562 -2.179688 9.40625 -2.078125 C 9.46875 -1.984375 9.5 -1.851562 9.5 -1.6875 C 9.5 -1.476562 9.425781 -1.265625 9.28125 -1.046875 C 9.144531 -0.828125 8.929688 -0.628906 8.640625 -0.453125 C 8.347656 -0.273438 7.976562 -0.128906 7.53125 -0.015625 C 7.09375 0.0976562 6.566406 0.15625 5.953125 0.15625 C 5.128906 0.15625 4.40625 0.015625 3.78125 -0.265625 C 3.164062 -0.554688 2.644531 -0.96875 2.21875 -1.5 C 1.800781 -2.03125 1.484375 -2.671875 1.265625 -3.421875 C 1.046875 -4.171875 0.9375 -5 0.9375 -5.90625 C 0.9375 -6.800781 1.050781 -7.617188 1.28125 -8.359375 C 1.507812 -9.097656 1.84375 -9.734375 2.28125 -10.265625 C 2.726562 -10.796875 3.28125 -11.207031 3.9375 -11.5 C 4.601562 -11.800781 5.367188 -11.953125 6.234375 -11.953125 Z M 6.234375 -11.953125 "/></g></g></g><g fill="#000000" fill-opacity="1"><g transform="translate(241.979988, 210.55147)"><g><path d="M 3.328125 -3.9375 L 2.703125 -2.203125 C 2.660156 -2.078125 2.625 -1.953125 2.59375 -1.828125 C 2.5625 -1.703125 2.546875 -1.59375 2.546875 -1.5 C 2.546875 -1.21875 2.632812 -1.007812 2.8125 -0.875 C 3 -0.75 3.28125 -0.6875 3.65625 -0.6875 L 4.03125 -0.6875 L 4.03125 0 L 0 0 L 0 -0.6875 L 0.3125 -0.6875 C 0.476562 -0.6875 0.613281 -0.703125 0.71875 -0.734375 C 0.832031 -0.773438 0.9375 -0.84375 1.03125 -0.9375 C 1.125 -1.039062 1.210938 -1.175781 1.296875 -1.34375 C 1.378906 -1.507812 1.472656 -1.722656 1.578125 -1.984375 L 5.234375 -11.78125 L 6.515625 -11.78125 L 10.25 -1.578125 C 10.3125 -1.398438 10.375 -1.253906 10.4375 -1.140625 C 10.507812 -1.023438 10.585938 -0.9375 10.671875 -0.875 C 10.765625 -0.8125 10.867188 -0.765625 10.984375 -0.734375 C 11.109375 -0.703125 11.253906 -0.6875 11.421875 -0.6875 L 11.640625 -0.6875 L 11.640625 0 L 7.09375 0 L 7.09375 -0.6875 L 7.484375 -0.6875 C 8.140625 -0.6875 8.46875 -0.953125 8.46875 -1.484375 C 8.46875 -1.578125 8.453125 -1.671875 8.421875 -1.765625 C 8.398438 -1.859375 8.367188 -1.96875 8.328125 -2.09375 L 7.671875 -3.9375 Z M 6.34375 -7.65625 C 6.175781 -8.144531 6.019531 -8.601562 5.875 -9.03125 C 5.726562 -9.457031 5.613281 -9.867188 5.53125 -10.265625 C 5.488281 -10.066406 5.441406 -9.875 5.390625 -9.6875 C 5.335938 -9.5 5.28125 -9.304688 5.21875 -9.109375 C 5.164062 -8.921875 5.101562 -8.71875 5.03125 -8.5 C 4.957031 -8.289062 4.867188 -8.0625 4.765625 -7.8125 L 3.65625 -4.765625 L 7.375 -4.765625 Z M 6.34375 -7.65625 "/></g></g></g><g fill="#000000" fill-opacity="1"><g transform="translate(266.819949, 210.55147)"><g><path d="M 0.625 0 L 0.625 -0.6875 L 0.84375 -0.6875 C 1.03125 -0.6875 1.203125 -0.703125 1.359375 -0.734375 C 1.523438 -0.765625 1.671875 -0.816406 1.796875 -0.890625 C 1.921875 -0.972656 2.015625 -1.09375 2.078125 -1.25 C 2.148438 -1.40625 2.1875 -1.613281 2.1875 -1.875 L 2.1875 -9.90625 C 2.1875 -10.15625 2.148438 -10.359375 2.078125 -10.515625 C 2.015625 -10.671875 1.921875 -10.789062 1.796875 -10.875 C 1.671875 -10.957031 1.523438 -11.015625 1.359375 -11.046875 C 1.203125 -11.078125 1.03125 -11.09375 0.84375 -11.09375 L 0.625 -11.09375 L 0.625 -11.78125 L 5.4375 -11.78125 L 5.4375 -11.09375 L 5.21875 -11.09375 C 5.03125 -11.09375 4.851562 -11.078125 4.6875 -11.046875 C 4.53125 -11.023438 4.390625 -10.972656 4.265625 -10.890625 C 4.140625 -10.804688 4.039062 -10.691406 3.96875 -10.546875 C 3.894531 -10.398438 3.859375 -10.207031 3.859375 -9.96875 L 3.859375 -0.828125 L 7.109375 -0.828125 C 7.359375 -0.828125 7.570312 -0.867188 7.75 -0.953125 C 7.925781 -1.046875 8.066406 -1.160156 8.171875 -1.296875 C 8.285156 -1.441406 8.375 -1.601562 8.4375 -1.78125 C 8.5 -1.957031 8.539062 -2.132812 8.5625 -2.3125 L 8.71875 -3.546875 L 9.59375 -3.546875 L 9.46875 0 Z M 0.625 0 "/></g></g></g><g fill="#000000" fill-opacity="1"><g transform="translate(290.306394, 210.55147)"><g><path d="M 4.078125 0.15625 C 3.535156 0.15625 3.054688 0.101562 2.640625 0 C 2.234375 -0.113281 1.890625 -0.269531 1.609375 -0.46875 C 1.335938 -0.675781 1.132812 -0.921875 1 -1.203125 C 0.863281 -1.492188 0.796875 -1.8125 0.796875 -2.15625 C 0.796875 -2.488281 0.894531 -2.753906 1.09375 -2.953125 C 1.300781 -3.160156 1.597656 -3.265625 1.984375 -3.265625 C 1.992188 -2.921875 2.039062 -2.59375 2.125 -2.28125 C 2.21875 -1.96875 2.351562 -1.6875 2.53125 -1.4375 C 2.707031 -1.195312 2.929688 -1.003906 3.203125 -0.859375 C 3.484375 -0.710938 3.816406 -0.640625 4.203125 -0.640625 C 4.941406 -0.640625 5.519531 -0.816406 5.9375 -1.171875 C 6.351562 -1.535156 6.5625 -2.050781 6.5625 -2.71875 C 6.5625 -3.019531 6.519531 -3.285156 6.4375 -3.515625 C 6.351562 -3.753906 6.210938 -3.96875 6.015625 -4.15625 C 5.816406 -4.351562 5.550781 -4.539062 5.21875 -4.71875 C 4.894531 -4.90625 4.492188 -5.097656 4.015625 -5.296875 C 3.503906 -5.503906 3.054688 -5.726562 2.671875 -5.96875 C 2.296875 -6.207031 1.976562 -6.472656 1.71875 -6.765625 C 1.46875 -7.054688 1.28125 -7.378906 1.15625 -7.734375 C 1.03125 -8.097656 0.96875 -8.503906 0.96875 -8.953125 C 0.96875 -9.429688 1.054688 -9.851562 1.234375 -10.21875 C 1.421875 -10.59375 1.675781 -10.90625 2 -11.15625 C 2.320312 -11.414062 2.703125 -11.613281 3.140625 -11.75 C 3.578125 -11.882812 4.054688 -11.953125 4.578125 -11.953125 C 5.078125 -11.953125 5.515625 -11.898438 5.890625 -11.796875 C 6.273438 -11.691406 6.597656 -11.550781 6.859375 -11.375 C 7.128906 -11.207031 7.332031 -11.007812 7.46875 -10.78125 C 7.601562 -10.5625 7.671875 -10.332031 7.671875 -10.09375 C 7.671875 -9.738281 7.550781 -9.472656 7.3125 -9.296875 C 7.082031 -9.117188 6.769531 -9.03125 6.375 -9.03125 C 6.375 -9.28125 6.34375 -9.53125 6.28125 -9.78125 C 6.21875 -10.03125 6.113281 -10.253906 5.96875 -10.453125 C 5.820312 -10.648438 5.628906 -10.8125 5.390625 -10.9375 C 5.160156 -11.0625 4.867188 -11.125 4.515625 -11.125 C 4.203125 -11.125 3.921875 -11.078125 3.671875 -10.984375 C 3.421875 -10.898438 3.207031 -10.773438 3.03125 -10.609375 C 2.863281 -10.441406 2.734375 -10.242188 2.640625 -10.015625 C 2.546875 -9.785156 2.5 -9.523438 2.5 -9.234375 C 2.5 -8.910156 2.539062 -8.625 2.625 -8.375 C 2.71875 -8.125 2.863281 -7.894531 3.0625 -7.6875 C 3.269531 -7.488281 3.535156 -7.300781 3.859375 -7.125 C 4.179688 -6.945312 4.582031 -6.757812 5.0625 -6.5625 C 5.550781 -6.363281 5.984375 -6.15625 6.359375 -5.9375 C 6.734375 -5.71875 7.050781 -5.472656 7.3125 -5.203125 C 7.582031 -4.929688 7.785156 -4.625 7.921875 -4.28125 C 8.066406 -3.945312 8.140625 -3.570312 8.140625 -3.15625 C 8.140625 -2.632812 8.039062 -2.164062 7.84375 -1.75 C 7.65625 -1.34375 7.382812 -0.992188 7.03125 -0.703125 C 6.675781 -0.421875 6.25 -0.207031 5.75 -0.0625 C 5.25 0.0820312 4.691406 0.15625 4.078125 0.15625 Z M 4.078125 0.15625 "/></g></g></g></svg>