<svg xmlns="http://www.w3.org/2000/svg" xmlns:xlink="http://www.w3.org/1999/xlink" width="500" zoomAndPan="magnify" viewBox="0 0 375 374.999991" height="500" preserveAspectRatio="xMidYMid meet" version="1.0"><defs><g/><clipPath id="78bb907a07"><path d="M 3.933594 4.007812 L 81.824219 4.007812 L 81.824219 83.484375 L 3.933594 83.484375 Z M 3.933594 4.007812 " clip-rule="nonzero"/></clipPath><clipPath id="e941ea253e"><path d="M 42 30 L 44 30 L 44 66.429688 L 42 66.429688 Z M 42 30 " clip-rule="nonzero"/></clipPath><clipPath id="167c74ce5e"><path d="M 41 28.28125 L 44 28.28125 L 44 31 L 41 31 Z M 41 28.28125 " clip-rule="nonzero"/></clipPath><clipPath id="37842f6080"><path d="M 25.539062 31 L 43 31 L 43 39 L 25.539062 39 Z M 25.539062 31 " clip-rule="nonzero"/></clipPath><clipPath id="bdf57aca2a"><path d="M 42 31 L 59.714844 31 L 59.714844 39 L 42 39 Z M 42 31 " clip-rule="nonzero"/></clipPath><clipPath id="45a6d4ceb6"><rect x="0" width="84" y="0" height="84"/></clipPath></defs><g transform="matrix(1, 0, 0, 1, 148, 111)"><g clip-path="url(#45a6d4ceb6)"><g clip-path="url(#78bb907a07)"><path fill="#5f5c9e" d="M 62.101562 15.945312 L 58.496094 18.027344 L 57.589844 16.460938 L 61.195312 14.378906 Z M 61.195312 14.378906 C 61.628906 14.128906 62.183594 14.277344 62.433594 14.710938 C 62.683594 15.144531 62.535156 15.695312 62.101562 15.945312 Z M 73.59375 17.699219 L 72.027344 18.605469 L 71.832031 18.289062 L 71.621094 17.980469 L 71.402344 17.695312 L 71.167969 17.417969 L 70.925781 17.152344 L 70.664062 16.902344 L 70.398438 16.671875 L 70.121094 16.449219 L 69.835938 16.242188 L 69.535156 16.054688 L 69.234375 15.875 L 68.921875 15.714844 L 68.605469 15.570312 L 68.28125 15.441406 L 67.949219 15.328125 L 67.613281 15.226562 L 67.273438 15.148438 L 66.929688 15.078125 L 66.585938 15.03125 L 66.238281 15 L 65.886719 14.980469 L 65.53125 14.980469 L 65.183594 15 L 64.832031 15.03125 L 64.480469 15.085938 L 64.132812 15.152344 L 63.785156 15.242188 L 63.441406 15.34375 L 63.101562 15.464844 L 62.765625 15.609375 L 62.429688 15.769531 L 62.101562 15.945312 L 61.195312 14.378906 L 61.605469 14.160156 L 62.023438 13.957031 L 62.445312 13.78125 L 62.871094 13.628906 L 63.300781 13.496094 L 63.734375 13.386719 L 64.171875 13.300781 L 64.609375 13.234375 L 65.050781 13.195312 L 65.488281 13.167969 L 65.929688 13.167969 L 66.367188 13.191406 L 66.800781 13.230469 L 67.230469 13.292969 L 67.660156 13.378906 L 68.082031 13.476562 L 68.5 13.601562 L 68.914062 13.746094 L 69.316406 13.910156 L 69.714844 14.089844 L 70.101562 14.289062 L 70.480469 14.507812 L 70.851562 14.75 L 71.210938 15.003906 L 71.554688 15.277344 L 71.894531 15.574219 L 72.214844 15.882812 L 72.519531 16.210938 L 72.816406 16.558594 L 73.089844 16.921875 L 73.355469 17.304688 Z M 73.59375 17.699219 C 73.84375 18.132812 73.695312 18.6875 73.261719 18.9375 C 72.828125 19.1875 72.277344 19.039062 72.027344 18.605469 Z M 79.03125 30.734375 L 72.027344 18.605469 L 73.59375 17.699219 L 80.597656 29.832031 Z M 80.597656 29.832031 C 80.847656 30.265625 80.699219 30.816406 80.265625 31.066406 C 79.835938 31.316406 79.28125 31.167969 79.03125 30.734375 Z M 77.273438 42.226562 L 76.371094 40.660156 L 76.6875 40.464844 L 76.992188 40.257812 L 77.285156 40.035156 L 77.5625 39.800781 L 77.824219 39.554688 L 78.070312 39.300781 L 78.308594 39.03125 L 78.527344 38.753906 L 78.730469 38.464844 L 78.921875 38.171875 L 79.097656 37.867188 L 79.257812 37.554688 L 79.40625 37.238281 L 79.535156 36.910156 L 79.652344 36.582031 L 79.746094 36.246094 L 79.832031 35.90625 L 79.898438 35.5625 L 79.945312 35.214844 L 79.980469 34.867188 L 79.996094 34.519531 L 79.996094 34.167969 L 79.980469 33.816406 L 79.945312 33.464844 L 79.894531 33.113281 L 79.824219 32.765625 L 79.738281 32.417969 L 79.632812 32.074219 L 79.507812 31.730469 L 79.367188 31.394531 L 79.207031 31.0625 L 79.03125 30.734375 L 80.597656 29.832031 L 80.820312 30.238281 L 81.019531 30.65625 L 81.195312 31.074219 L 81.351562 31.503906 L 81.480469 31.933594 L 81.589844 32.367188 L 81.675781 32.804688 L 81.738281 33.246094 L 81.785156 33.683594 L 81.804688 34.121094 L 81.804688 34.558594 L 81.785156 34.996094 L 81.742188 35.429688 L 81.679688 35.863281 L 81.601562 36.289062 L 81.496094 36.714844 L 81.375 37.132812 L 81.234375 37.542969 L 81.070312 37.949219 L 80.890625 38.34375 L 80.6875 38.734375 L 80.46875 39.113281 L 80.230469 39.484375 L 79.972656 39.84375 L 79.695312 40.191406 L 79.40625 40.523438 L 79.09375 40.847656 L 78.761719 41.15625 L 78.414062 41.445312 L 78.054688 41.722656 L 77.671875 41.984375 Z M 77.273438 42.226562 C 76.84375 42.476562 76.289062 42.328125 76.039062 41.894531 C 75.789062 41.464844 75.9375 40.910156 76.371094 40.660156 Z M 72.765625 42.742188 L 76.371094 40.660156 L 77.273438 42.226562 L 73.667969 44.308594 L 72.765625 44.308594 Z M 73.667969 44.308594 C 73.234375 44.558594 72.683594 44.410156 72.433594 43.976562 C 72.183594 43.546875 72.332031 42.992188 72.765625 42.742188 Z M 76.371094 46.390625 L 72.765625 44.308594 L 73.667969 42.742188 L 77.273438 44.824219 Z M 77.273438 44.824219 C 77.707031 45.074219 77.855469 45.628906 77.605469 46.058594 C 77.359375 46.492188 76.800781 46.640625 76.371094 46.390625 Z M 80.597656 57.21875 L 79.03125 56.3125 L 79.207031 55.988281 L 79.371094 55.65625 L 79.507812 55.316406 L 79.632812 54.972656 L 79.738281 54.632812 L 79.824219 54.285156 L 79.894531 53.9375 L 79.945312 53.585938 L 79.980469 53.234375 L 79.996094 52.882812 L 79.996094 52.53125 L 79.980469 52.179688 L 79.945312 51.832031 L 79.898438 51.488281 L 79.832031 51.144531 L 79.746094 50.804688 L 79.652344 50.46875 L 79.535156 50.136719 L 79.40625 49.8125 L 79.261719 49.496094 L 79.097656 49.183594 L 78.925781 48.878906 L 78.734375 48.582031 L 78.527344 48.296875 L 78.308594 48.019531 L 78.070312 47.75 L 77.824219 47.496094 L 77.5625 47.246094 L 77.285156 47.015625 L 76.992188 46.792969 L 76.6875 46.585938 L 76.371094 46.390625 L 77.273438 44.824219 L 77.671875 45.066406 L 78.054688 45.324219 L 78.414062 45.601562 L 78.761719 45.894531 L 79.09375 46.203125 L 79.40625 46.527344 L 79.695312 46.859375 L 79.972656 47.207031 L 80.230469 47.566406 L 80.46875 47.933594 L 80.6875 48.316406 L 80.890625 48.703125 L 81.070312 49.101562 L 81.234375 49.507812 L 81.375 49.914062 L 81.496094 50.335938 L 81.601562 50.757812 L 81.679688 51.1875 L 81.742188 51.621094 L 81.785156 52.054688 L 81.804688 52.492188 L 81.804688 52.925781 L 81.785156 53.367188 L 81.742188 53.804688 L 81.675781 54.246094 L 81.589844 54.683594 L 81.480469 55.117188 L 81.351562 55.546875 L 81.195312 55.972656 L 81.019531 56.394531 L 80.820312 56.808594 Z M 80.597656 57.21875 C 80.347656 57.652344 79.792969 57.800781 79.363281 57.550781 C 78.929688 57.300781 78.78125 56.746094 79.03125 56.3125 Z M 72.027344 68.445312 L 79.03125 56.3125 L 80.597656 57.21875 L 73.59375 69.347656 Z M 73.59375 69.347656 C 73.34375 69.78125 72.792969 69.929688 72.359375 69.679688 C 71.925781 69.429688 71.777344 68.878906 72.027344 68.445312 Z M 61.199219 72.667969 L 62.101562 71.105469 L 62.429688 71.28125 L 62.765625 71.441406 L 63.101562 71.582031 L 63.441406 71.703125 L 63.785156 71.808594 L 64.132812 71.894531 L 64.480469 71.964844 L 64.832031 72.015625 L 65.183594 72.050781 L 65.535156 72.070312 L 65.886719 72.070312 L 66.238281 72.050781 L 66.585938 72.019531 L 66.929688 71.96875 L 67.273438 71.902344 L 67.613281 71.824219 L 67.949219 71.722656 L 68.28125 71.609375 L 68.605469 71.480469 L 68.921875 71.332031 L 69.234375 71.175781 L 69.535156 70.996094 L 69.835938 70.804688 L 70.121094 70.601562 L 70.398438 70.378906 L 70.664062 70.148438 L 70.921875 69.898438 L 71.167969 69.632812 L 71.402344 69.355469 L 71.621094 69.066406 L 71.832031 68.761719 L 72.027344 68.445312 L 73.59375 69.347656 L 73.351562 69.746094 L 73.089844 70.125 L 72.816406 70.492188 L 72.519531 70.835938 L 72.214844 71.167969 L 71.894531 71.476562 L 71.554688 71.769531 L 71.210938 72.042969 L 70.851562 72.300781 L 70.480469 72.542969 L 70.101562 72.757812 L 69.714844 72.960938 L 69.320312 73.140625 L 68.914062 73.304688 L 68.5 73.445312 L 68.082031 73.566406 L 67.660156 73.671875 L 67.230469 73.753906 L 66.800781 73.816406 L 66.367188 73.859375 L 65.929688 73.878906 L 65.488281 73.878906 L 65.050781 73.855469 L 64.609375 73.8125 L 64.171875 73.75 L 63.734375 73.660156 L 63.300781 73.554688 L 62.871094 73.421875 L 62.445312 73.269531 L 62.023438 73.09375 L 61.605469 72.890625 Z M 61.199219 72.667969 C 60.765625 72.417969 60.617188 71.867188 60.867188 71.433594 C 61.117188 71 61.671875 70.855469 62.101562 71.105469 Z M 58.496094 69.019531 L 62.101562 71.105469 L 61.199219 72.667969 L 57.589844 70.585938 L 57.140625 69.804688 Z M 57.589844 70.585938 C 57.160156 70.335938 57.011719 69.785156 57.261719 69.351562 C 57.511719 68.917969 58.0625 68.769531 58.496094 69.019531 Z M 57.140625 73.96875 L 57.140625 69.804688 L 58.953125 69.804688 L 58.953125 73.96875 Z M 58.953125 73.96875 C 58.953125 74.464844 58.546875 74.871094 58.046875 74.871094 C 57.546875 74.871094 57.140625 74.464844 57.140625 73.96875 Z M 49.875 83.042969 L 49.875 81.230469 L 50.25 81.222656 L 50.617188 81.195312 L 50.980469 81.148438 L 51.339844 81.085938 L 51.691406 81.003906 L 52.03125 80.90625 L 52.371094 80.792969 L 52.699219 80.664062 L 53.023438 80.519531 L 53.335938 80.355469 L 53.640625 80.179688 L 53.933594 79.992188 L 54.21875 79.789062 L 54.492188 79.574219 L 54.757812 79.34375 L 55.011719 79.101562 L 55.25 78.847656 L 55.476562 78.585938 L 55.695312 78.3125 L 55.898438 78.027344 L 56.085938 77.730469 L 56.261719 77.425781 L 56.421875 77.113281 L 56.566406 76.792969 L 56.699219 76.460938 L 56.8125 76.125 L 56.910156 75.78125 L 56.992188 75.429688 L 57.058594 75.074219 L 57.101562 74.710938 L 57.128906 74.339844 L 57.140625 73.96875 L 58.953125 73.96875 L 58.9375 74.433594 L 58.902344 74.894531 L 58.84375 75.347656 L 58.765625 75.796875 L 58.664062 76.234375 L 58.542969 76.664062 L 58.394531 77.085938 L 58.238281 77.5 L 58.054688 77.902344 L 57.851562 78.289062 L 57.632812 78.671875 L 57.398438 79.039062 L 57.144531 79.398438 L 56.875 79.738281 L 56.589844 80.066406 L 56.289062 80.382812 L 55.972656 80.683594 L 55.644531 80.96875 L 55.300781 81.234375 L 54.949219 81.488281 L 54.578125 81.726562 L 54.199219 81.945312 L 53.804688 82.144531 L 53.402344 82.328125 L 52.996094 82.492188 L 52.570312 82.632812 L 52.140625 82.753906 L 51.699219 82.859375 L 51.257812 82.9375 L 50.800781 82.996094 L 50.339844 83.03125 Z M 49.875 83.042969 C 49.375 83.042969 48.96875 82.636719 48.96875 82.136719 C 48.96875 81.636719 49.375 81.230469 49.875 81.230469 Z M 35.867188 81.230469 L 49.875 81.230469 L 49.875 83.042969 L 35.867188 83.042969 Z M 35.867188 83.042969 C 35.367188 83.042969 34.960938 82.636719 34.960938 82.136719 C 34.960938 81.636719 35.367188 81.230469 35.867188 81.230469 Z M 26.796875 73.96875 L 28.601562 73.96875 L 28.613281 74.339844 L 28.640625 74.710938 L 28.691406 75.074219 L 28.753906 75.429688 L 28.832031 75.78125 L 28.933594 76.125 L 29.046875 76.460938 L 29.175781 76.792969 L 29.320312 77.113281 L 29.480469 77.425781 L 29.65625 77.730469 L 29.84375 78.027344 L 30.050781 78.3125 L 30.265625 78.585938 L 30.492188 78.847656 L 30.738281 79.101562 L 30.988281 79.34375 L 31.25 79.574219 L 31.527344 79.789062 L 31.8125 79.992188 L 32.105469 80.179688 L 32.410156 80.355469 L 32.726562 80.519531 L 33.042969 80.664062 L 33.375 80.792969 L 33.710938 80.90625 L 34.058594 81.003906 L 34.40625 81.085938 L 34.765625 81.148438 L 35.125 81.195312 L 35.492188 81.222656 L 35.867188 81.230469 L 35.867188 83.042969 L 35.402344 83.03125 L 34.945312 82.996094 L 34.492188 82.9375 L 34.042969 82.859375 L 33.601562 82.753906 L 33.171875 82.632812 L 32.753906 82.492188 L 32.339844 82.328125 L 31.9375 82.144531 L 31.546875 81.945312 L 31.167969 81.726562 L 30.800781 81.488281 L 30.441406 81.234375 L 30.097656 80.96875 L 29.769531 80.683594 L 29.457031 80.382812 L 29.15625 80.066406 L 28.871094 79.738281 L 28.597656 79.398438 L 28.347656 79.039062 L 28.109375 78.671875 L 27.890625 78.289062 L 27.691406 77.902344 L 27.511719 77.5 L 27.347656 77.085938 L 27.203125 76.664062 L 27.078125 76.234375 L 26.980469 75.796875 L 26.898438 75.347656 L 26.839844 74.894531 L 26.804688 74.433594 Z M 26.796875 73.96875 C 26.796875 73.46875 27.203125 73.066406 27.699219 73.066406 C 28.199219 73.066406 28.601562 73.46875 28.601562 73.96875 Z M 28.601562 69.804688 L 28.601562 73.96875 L 26.796875 73.96875 L 26.796875 69.804688 L 27.246094 69.019531 Z M 26.796875 69.804688 C 26.796875 69.304688 27.203125 68.902344 27.699219 68.902344 C 28.199219 68.902344 28.601562 69.304688 28.601562 69.804688 Z M 23.640625 71.105469 L 27.246094 69.019531 L 28.152344 70.585938 L 24.546875 72.667969 Z M 24.546875 72.667969 C 24.113281 72.917969 23.558594 72.773438 23.308594 72.339844 C 23.058594 71.90625 23.207031 71.355469 23.640625 71.105469 Z M 12.148438 69.347656 L 13.71875 68.445312 L 13.914062 68.761719 L 14.121094 69.066406 L 14.34375 69.355469 L 14.574219 69.632812 L 14.820312 69.898438 L 15.078125 70.148438 L 15.347656 70.378906 L 15.625 70.601562 L 15.910156 70.804688 L 16.207031 70.996094 L 16.511719 71.175781 L 16.820312 71.332031 L 17.140625 71.480469 L 17.464844 71.609375 L 17.796875 71.722656 L 18.132812 71.824219 L 18.46875 71.902344 L 18.8125 71.96875 L 19.160156 72.019531 L 19.507812 72.050781 L 19.859375 72.070312 L 20.210938 72.070312 L 20.5625 72.050781 L 20.910156 72.015625 L 21.261719 71.964844 L 21.613281 71.894531 L 21.957031 71.808594 L 22.300781 71.703125 L 22.640625 71.582031 L 22.980469 71.441406 L 23.3125 71.28125 L 23.640625 71.105469 L 24.546875 72.667969 L 24.136719 72.890625 L 23.722656 73.09375 L 23.300781 73.269531 L 22.875 73.421875 L 22.441406 73.554688 L 22.007812 73.660156 L 21.570312 73.75 L 21.132812 73.8125 L 20.691406 73.855469 L 20.253906 73.878906 L 19.816406 73.878906 L 19.382812 73.859375 L 18.945312 73.816406 L 18.511719 73.753906 L 18.085938 73.671875 L 17.664062 73.566406 L 17.242188 73.445312 L 16.832031 73.304688 L 16.429688 73.140625 L 16.027344 72.960938 L 15.640625 72.757812 L 15.261719 72.542969 L 14.890625 72.300781 L 14.535156 72.042969 L 14.1875 71.769531 L 13.851562 71.476562 L 13.53125 71.167969 L 13.222656 70.835938 L 12.929688 70.492188 L 12.652344 70.125 L 12.394531 69.746094 Z M 12.148438 69.347656 C 11.902344 68.914062 12.050781 68.363281 12.480469 68.113281 C 12.914062 67.863281 13.46875 68.011719 13.71875 68.445312 Z M 6.714844 56.3125 L 13.71875 68.445312 L 12.148438 69.347656 L 5.144531 57.21875 Z M 5.144531 57.21875 C 4.894531 56.785156 5.042969 56.234375 5.476562 55.984375 C 5.910156 55.734375 6.464844 55.878906 6.714844 56.3125 Z M 8.46875 44.824219 L 9.375 46.390625 L 9.054688 46.585938 L 8.75 46.792969 L 8.457031 47.015625 L 8.179688 47.246094 L 7.921875 47.496094 L 7.671875 47.75 L 7.433594 48.019531 L 7.214844 48.296875 L 7.011719 48.582031 L 6.820312 48.878906 L 6.644531 49.183594 L 6.484375 49.496094 L 6.339844 49.8125 L 6.207031 50.136719 L 6.09375 50.46875 L 5.996094 50.804688 L 5.910156 51.144531 L 5.847656 51.488281 L 5.796875 51.832031 L 5.761719 52.179688 L 5.75 52.53125 L 5.75 52.882812 L 5.765625 53.234375 L 5.800781 53.585938 L 5.847656 53.9375 L 5.917969 54.285156 L 6.007812 54.632812 L 6.113281 54.972656 L 6.234375 55.316406 L 6.375 55.65625 L 6.535156 55.988281 L 6.714844 56.3125 L 5.144531 57.21875 L 4.921875 56.808594 L 4.726562 56.394531 L 4.546875 55.972656 L 4.394531 55.546875 L 4.265625 55.117188 L 4.152344 54.683594 L 4.066406 54.246094 L 4.003906 53.804688 L 3.957031 53.367188 L 3.9375 52.925781 L 3.9375 52.492188 L 3.957031 52.054688 L 4 51.621094 L 4.0625 51.1875 L 4.144531 50.757812 L 4.246094 50.335938 L 4.371094 49.914062 L 4.515625 49.507812 L 4.671875 49.101562 L 4.855469 48.703125 L 5.054688 48.316406 L 5.277344 47.933594 L 5.511719 47.566406 L 5.769531 47.207031 L 6.046875 46.859375 L 6.339844 46.527344 L 6.652344 46.203125 L 6.980469 45.894531 L 7.328125 45.601562 L 7.691406 45.324219 L 8.070312 45.066406 Z M 8.46875 44.824219 C 8.902344 44.574219 9.453125 44.722656 9.703125 45.15625 C 9.953125 45.585938 9.804688 46.140625 9.375 46.390625 Z M 12.980469 44.308594 L 9.375 46.390625 L 8.46875 44.824219 L 12.074219 42.742188 L 12.980469 42.742188 Z M 12.074219 42.742188 C 12.507812 42.492188 13.058594 42.640625 13.308594 43.074219 C 13.558594 43.503906 13.414062 44.058594 12.980469 44.308594 Z M 9.375 40.660156 L 12.980469 42.742188 L 12.074219 44.308594 L 8.46875 42.226562 Z M 8.46875 42.226562 C 8.035156 41.976562 7.886719 41.421875 8.136719 40.992188 C 8.386719 40.558594 8.941406 40.410156 9.375 40.660156 Z M 5.148438 29.832031 L 6.714844 30.734375 L 6.535156 31.0625 L 6.375 31.394531 L 6.234375 31.730469 L 6.113281 32.074219 L 6.007812 32.417969 L 5.917969 32.765625 L 5.851562 33.113281 L 5.800781 33.464844 L 5.765625 33.816406 L 5.75 34.167969 L 5.75 34.519531 L 5.761719 34.867188 L 5.796875 35.214844 L 5.847656 35.5625 L 5.910156 35.90625 L 5.996094 36.246094 L 6.097656 36.582031 L 6.207031 36.910156 L 6.339844 37.238281 L 6.484375 37.554688 L 6.644531 37.867188 L 6.820312 38.171875 L 7.011719 38.464844 L 7.214844 38.753906 L 7.433594 39.03125 L 7.671875 39.300781 L 7.921875 39.554688 L 8.183594 39.800781 L 8.457031 40.035156 L 8.75 40.257812 L 9.054688 40.464844 L 9.375 40.660156 L 8.46875 42.226562 L 8.070312 41.984375 L 7.691406 41.722656 L 7.328125 41.445312 L 6.980469 41.15625 L 6.652344 40.847656 L 6.339844 40.523438 L 6.046875 40.191406 L 5.773438 39.84375 L 5.511719 39.484375 L 5.277344 39.113281 L 5.054688 38.734375 L 4.855469 38.34375 L 4.671875 37.949219 L 4.515625 37.542969 L 4.371094 37.132812 L 4.246094 36.714844 L 4.144531 36.289062 L 4.0625 35.863281 L 4 35.429688 L 3.957031 34.996094 L 3.9375 34.558594 L 3.9375 34.121094 L 3.957031 33.683594 L 4.003906 33.246094 L 4.070312 32.804688 L 4.15625 32.367188 L 4.265625 31.933594 L 4.394531 31.503906 L 4.546875 31.074219 L 4.726562 30.65625 L 4.921875 30.238281 Z M 5.148438 29.832031 C 5.398438 29.398438 5.949219 29.246094 6.382812 29.496094 C 6.816406 29.746094 6.964844 30.300781 6.714844 30.734375 Z M 13.71875 18.605469 L 6.714844 30.734375 L 5.148438 29.832031 L 12.148438 17.699219 Z M 12.148438 17.699219 C 12.398438 17.265625 12.953125 17.121094 13.386719 17.371094 C 13.820312 17.621094 13.96875 18.171875 13.71875 18.605469 Z M 24.546875 14.378906 L 23.640625 15.945312 L 23.3125 15.769531 L 22.980469 15.609375 L 22.640625 15.464844 L 22.300781 15.34375 L 21.957031 15.242188 L 21.613281 15.152344 L 21.261719 15.085938 L 20.910156 15.03125 L 20.5625 15 L 20.210938 14.980469 L 19.859375 14.980469 L 19.507812 15 L 19.160156 15.03125 L 18.8125 15.078125 L 18.472656 15.148438 L 18.132812 15.226562 L 17.796875 15.328125 L 17.464844 15.441406 L 17.140625 15.570312 L 16.820312 15.714844 L 16.511719 15.875 L 16.207031 16.054688 L 15.910156 16.242188 L 15.625 16.449219 L 15.347656 16.671875 L 15.078125 16.902344 L 14.820312 17.152344 L 14.574219 17.417969 L 14.34375 17.695312 L 14.121094 17.980469 L 13.914062 18.289062 L 13.71875 18.605469 L 12.148438 17.699219 L 12.394531 17.304688 L 12.652344 16.921875 L 12.929688 16.558594 L 13.222656 16.210938 L 13.53125 15.882812 L 13.851562 15.574219 L 14.1875 15.277344 L 14.535156 15.003906 L 14.890625 14.75 L 15.261719 14.507812 L 15.640625 14.289062 L 16.027344 14.089844 L 16.429688 13.910156 L 16.835938 13.746094 L 17.242188 13.601562 L 17.664062 13.476562 L 18.085938 13.378906 L 18.511719 13.292969 L 18.945312 13.230469 L 19.382812 13.191406 L 19.816406 13.167969 L 20.253906 13.167969 L 20.695312 13.195312 L 21.132812 13.234375 L 21.570312 13.300781 L 22.007812 13.386719 L 22.441406 13.496094 L 22.875 13.628906 L 23.300781 13.78125 L 23.722656 13.957031 L 24.136719 14.160156 Z M 24.546875 14.378906 C 24.980469 14.628906 25.125 15.183594 24.875 15.617188 C 24.625 16.050781 24.074219 16.195312 23.640625 15.945312 Z M 27.246094 18.027344 L 23.640625 15.945312 L 24.546875 14.378906 L 28.152344 16.460938 L 28.601562 17.246094 Z M 28.152344 16.460938 C 28.585938 16.710938 28.734375 17.265625 28.484375 17.699219 C 28.230469 18.132812 27.679688 18.277344 27.246094 18.027344 Z M 28.601562 13.078125 L 28.601562 17.246094 L 26.796875 17.246094 L 26.796875 13.078125 Z M 26.796875 13.078125 C 26.796875 12.578125 27.203125 12.175781 27.699219 12.175781 C 28.199219 12.175781 28.601562 12.578125 28.601562 13.078125 Z M 35.867188 4.007812 L 35.867188 5.816406 L 35.492188 5.824219 L 35.125 5.855469 L 34.765625 5.902344 L 34.40625 5.964844 L 34.058594 6.046875 L 33.710938 6.144531 L 33.375 6.257812 L 33.042969 6.386719 L 32.726562 6.53125 L 32.410156 6.695312 L 32.105469 6.867188 L 31.8125 7.058594 L 31.527344 7.261719 L 31.25 7.476562 L 30.988281 7.707031 L 30.738281 7.949219 L 30.492188 8.203125 L 30.265625 8.464844 L 30.050781 8.738281 L 29.84375 9.023438 L 29.65625 9.320312 L 29.480469 9.625 L 29.320312 9.9375 L 29.175781 10.257812 L 29.046875 10.589844 L 28.933594 10.925781 L 28.832031 11.269531 L 28.753906 11.617188 L 28.691406 11.976562 L 28.640625 12.335938 L 28.613281 12.707031 L 28.601562 13.078125 L 26.796875 13.078125 L 26.804688 12.613281 L 26.839844 12.15625 L 26.898438 11.703125 L 26.980469 11.253906 L 27.078125 10.816406 L 27.203125 10.386719 L 27.347656 9.964844 L 27.511719 9.550781 L 27.691406 9.148438 L 27.890625 8.757812 L 28.109375 8.378906 L 28.347656 8.011719 L 28.597656 7.652344 L 28.871094 7.3125 L 29.15625 6.984375 L 29.457031 6.667969 L 29.769531 6.367188 L 30.097656 6.082031 L 30.441406 5.8125 L 30.800781 5.558594 L 31.167969 5.320312 L 31.546875 5.101562 L 31.9375 4.902344 L 32.339844 4.722656 L 32.753906 4.558594 L 33.171875 4.414062 L 33.601562 4.292969 L 34.042969 4.191406 L 34.492188 4.109375 L 34.945312 4.054688 L 35.402344 4.015625 Z M 35.867188 4.007812 C 36.367188 4.007812 36.773438 4.414062 36.773438 4.910156 C 36.773438 5.410156 36.367188 5.816406 35.867188 5.816406 Z M 49.875 5.816406 L 35.867188 5.816406 L 35.867188 4.007812 L 49.875 4.007812 Z M 49.875 4.007812 C 50.375 4.007812 50.78125 4.414062 50.78125 4.910156 C 50.78125 5.410156 50.375 5.816406 49.875 5.816406 Z M 58.953125 13.078125 L 57.140625 13.078125 L 57.128906 12.707031 L 57.101562 12.335938 L 57.058594 11.976562 L 56.992188 11.617188 L 56.910156 11.269531 L 56.8125 10.925781 L 56.699219 10.589844 L 56.566406 10.257812 L 56.421875 9.9375 L 56.261719 9.625 L 56.085938 9.320312 L 55.898438 9.023438 L 55.695312 8.738281 L 55.476562 8.464844 L 55.25 8.203125 L 55.011719 7.949219 L 54.757812 7.707031 L 54.492188 7.476562 L 54.21875 7.261719 L 53.933594 7.058594 L 53.640625 6.867188 L 53.335938 6.695312 L 53.023438 6.53125 L 52.699219 6.386719 L 52.371094 6.257812 L 52.03125 6.144531 L 51.691406 6.046875 L 51.339844 5.964844 L 50.980469 5.902344 L 50.617188 5.855469 L 50.25 5.824219 L 49.875 5.816406 L 49.875 4.007812 L 50.339844 4.015625 L 50.800781 4.054688 L 51.257812 4.109375 L 51.699219 4.191406 L 52.140625 4.292969 L 52.570312 4.414062 L 52.992188 4.558594 L 53.402344 4.722656 L 53.804688 4.902344 L 54.199219 5.101562 L 54.578125 5.320312 L 54.949219 5.558594 L 55.300781 5.8125 L 55.644531 6.082031 L 55.972656 6.367188 L 56.289062 6.667969 L 56.589844 6.984375 L 56.875 7.3125 L 57.144531 7.652344 L 57.398438 8.011719 L 57.632812 8.378906 L 57.851562 8.761719 L 58.054688 9.148438 L 58.238281 9.550781 L 58.394531 9.964844 L 58.542969 10.386719 L 58.664062 10.816406 L 58.765625 11.253906 L 58.84375 11.703125 L 58.902344 12.15625 L 58.9375 12.613281 Z M 58.953125 13.078125 C 58.953125 13.582031 58.546875 13.984375 58.046875 13.984375 C 57.546875 13.984375 57.140625 13.582031 57.140625 13.078125 Z M 57.140625 17.246094 L 57.140625 13.078125 L 58.953125 13.078125 L 58.953125 17.246094 L 58.496094 18.027344 Z M 58.953125 17.246094 C 58.953125 17.746094 58.546875 18.148438 58.046875 18.148438 C 57.546875 18.148438 57.140625 17.746094 57.140625 17.246094 Z M 58.953125 17.246094 " fill-opacity="1" fill-rule="nonzero"/></g><path fill="#5f5c9e" d="M 48.9375 15.953125 L 36.808594 15.953125 L 36.808594 14.140625 L 48.9375 14.140625 Z M 48.9375 14.140625 C 49.4375 14.140625 49.84375 14.546875 49.84375 15.046875 C 49.84375 15.546875 49.4375 15.953125 48.9375 15.953125 Z M 51.953125 17.15625 L 50.140625 17.15625 L 50.140625 17.035156 L 50.105469 16.859375 L 50.089844 16.800781 L 50.070312 16.746094 L 50.046875 16.691406 L 50.023438 16.640625 L 49.996094 16.585938 L 49.96875 16.535156 L 49.9375 16.488281 L 49.902344 16.4375 L 49.867188 16.394531 L 49.828125 16.347656 L 49.789062 16.304688 L 49.746094 16.269531 L 49.703125 16.226562 L 49.609375 16.15625 L 49.558594 16.125 L 49.457031 16.070312 L 49.347656 16.023438 L 49.292969 16.003906 L 49.238281 15.992188 L 49.175781 15.976562 L 49.117188 15.964844 L 49.058594 15.960938 L 49 15.953125 L 48.9375 15.953125 L 48.9375 14.140625 L 49.089844 14.144531 L 49.394531 14.175781 L 49.546875 14.203125 L 49.691406 14.238281 L 49.832031 14.277344 L 49.972656 14.324219 L 50.109375 14.378906 L 50.242188 14.441406 L 50.375 14.507812 L 50.625 14.65625 L 50.742188 14.742188 L 50.851562 14.832031 L 50.964844 14.925781 L 51.070312 15.027344 L 51.167969 15.128906 L 51.261719 15.242188 L 51.351562 15.355469 L 51.4375 15.472656 L 51.515625 15.59375 L 51.589844 15.71875 L 51.65625 15.851562 L 51.714844 15.984375 L 51.769531 16.121094 L 51.816406 16.261719 L 51.855469 16.40625 L 51.890625 16.550781 L 51.917969 16.699219 L 51.9375 16.851562 L 51.949219 17.003906 Z M 51.953125 17.15625 C 51.953125 17.65625 51.546875 18.0625 51.046875 18.0625 C 50.546875 18.0625 50.140625 17.65625 50.140625 17.15625 Z M 50.140625 29.363281 L 50.140625 17.15625 L 51.953125 17.15625 L 51.953125 29.363281 L 51.503906 30.144531 Z M 51.953125 29.363281 C 51.953125 29.863281 51.546875 30.269531 51.046875 30.269531 C 50.546875 30.269531 50.140625 29.863281 50.140625 29.363281 Z M 62.070312 24.042969 L 51.503906 30.144531 L 50.597656 28.578125 L 61.164062 22.476562 Z M 61.164062 22.476562 C 61.597656 22.226562 62.152344 22.375 62.402344 22.808594 C 62.652344 23.242188 62.503906 23.792969 62.070312 24.042969 Z M 65.285156 23.582031 L 63.71875 24.488281 L 63.6875 24.433594 L 63.652344 24.382812 L 63.613281 24.335938 L 63.578125 24.289062 L 63.453125 24.164062 L 63.402344 24.128906 L 63.359375 24.09375 L 63.304688 24.0625 L 63.257812 24.03125 L 63.207031 24.007812 L 63.097656 23.960938 L 63.042969 23.941406 L 62.988281 23.925781 L 62.925781 23.910156 L 62.871094 23.902344 L 62.753906 23.886719 L 62.695312 23.882812 L 62.640625 23.882812 L 62.582031 23.886719 L 62.523438 23.894531 L 62.460938 23.902344 L 62.40625 23.910156 L 62.347656 23.929688 L 62.292969 23.945312 L 62.238281 23.964844 L 62.179688 23.988281 L 62.070312 24.042969 L 61.164062 22.476562 L 61.300781 22.402344 L 61.4375 22.335938 L 61.582031 22.277344 L 61.722656 22.226562 L 61.867188 22.183594 L 62.011719 22.144531 L 62.15625 22.117188 L 62.304688 22.097656 L 62.449219 22.082031 L 62.59375 22.074219 L 62.738281 22.074219 L 62.886719 22.082031 L 63.027344 22.097656 L 63.171875 22.117188 L 63.3125 22.144531 L 63.453125 22.175781 L 63.59375 22.21875 L 63.730469 22.265625 L 63.863281 22.320312 L 63.996094 22.378906 L 64.125 22.449219 L 64.25 22.519531 L 64.375 22.601562 L 64.492188 22.683594 L 64.605469 22.777344 L 64.722656 22.875 L 64.828125 22.976562 L 64.929688 23.085938 L 65.027344 23.199219 L 65.121094 23.320312 L 65.207031 23.449219 Z M 65.285156 23.582031 C 65.535156 24.011719 65.386719 24.566406 64.953125 24.816406 C 64.523438 25.066406 63.96875 24.917969 63.71875 24.488281 Z M 69.785156 34.988281 L 63.71875 24.488281 L 65.285156 23.582031 L 71.351562 34.085938 Z M 71.351562 34.085938 C 71.601562 34.519531 71.453125 35.074219 71.019531 35.324219 C 70.589844 35.574219 70.035156 35.421875 69.785156 34.988281 Z M 70.25 38.207031 L 69.34375 36.636719 L 69.394531 36.605469 L 69.445312 36.570312 L 69.492188 36.535156 L 69.539062 36.496094 L 69.582031 36.457031 L 69.625 36.414062 L 69.660156 36.371094 L 69.699219 36.320312 L 69.730469 36.277344 L 69.792969 36.175781 L 69.847656 36.074219 L 69.867188 36.015625 L 69.882812 35.960938 L 69.902344 35.90625 L 69.914062 35.847656 L 69.925781 35.792969 L 69.9375 35.730469 L 69.941406 35.671875 L 69.941406 35.5 L 69.9375 35.441406 L 69.925781 35.386719 L 69.902344 35.269531 L 69.882812 35.210938 L 69.863281 35.15625 L 69.816406 35.046875 L 69.785156 34.988281 L 71.351562 34.085938 L 71.425781 34.21875 L 71.492188 34.359375 L 71.550781 34.5 L 71.601562 34.644531 L 71.644531 34.785156 L 71.679688 34.929688 L 71.710938 35.078125 L 71.730469 35.222656 L 71.746094 35.367188 L 71.753906 35.515625 L 71.753906 35.660156 L 71.746094 35.804688 L 71.734375 35.949219 L 71.710938 36.09375 L 71.683594 36.234375 L 71.648438 36.375 L 71.609375 36.511719 L 71.5625 36.648438 L 71.507812 36.785156 L 71.449219 36.914062 L 71.382812 37.042969 L 71.308594 37.167969 L 71.230469 37.292969 L 71.144531 37.410156 L 71.054688 37.53125 L 70.957031 37.640625 L 70.851562 37.75 L 70.742188 37.847656 L 70.625 37.945312 L 70.503906 38.039062 L 70.378906 38.125 Z M 70.25 38.207031 C 69.816406 38.457031 69.257812 38.308594 69.007812 37.875 C 68.761719 37.441406 68.910156 36.886719 69.34375 36.636719 Z M 58.769531 42.742188 L 69.34375 36.636719 L 70.25 38.207031 L 59.675781 44.308594 L 58.769531 44.308594 Z M 59.675781 44.308594 C 59.246094 44.558594 58.691406 44.410156 58.441406 43.976562 C 58.191406 43.546875 58.339844 42.992188 58.769531 42.742188 Z M 69.34375 50.410156 L 58.769531 44.308594 L 59.675781 42.742188 L 70.25 48.84375 Z M 70.25 48.84375 C 70.679688 49.09375 70.828125 49.648438 70.578125 50.078125 C 70.328125 50.511719 69.777344 50.660156 69.34375 50.410156 Z M 71.351562 52.964844 L 69.785156 52.058594 L 69.816406 52.003906 L 69.863281 51.894531 L 69.882812 51.839844 L 69.902344 51.78125 L 69.925781 51.664062 L 69.9375 51.609375 L 69.941406 51.550781 L 69.941406 51.375 L 69.9375 51.316406 L 69.914062 51.199219 L 69.902344 51.144531 L 69.882812 51.089844 L 69.867188 51.03125 L 69.847656 50.976562 L 69.792969 50.875 L 69.765625 50.820312 L 69.730469 50.773438 L 69.699219 50.722656 L 69.660156 50.679688 L 69.625 50.632812 L 69.496094 50.515625 L 69.445312 50.476562 L 69.394531 50.441406 L 69.34375 50.414062 L 70.25 48.84375 L 70.378906 48.921875 L 70.503906 49.011719 L 70.625 49.105469 L 70.742188 49.203125 L 70.851562 49.300781 L 70.957031 49.410156 L 71.054688 49.519531 L 71.144531 49.636719 L 71.230469 49.757812 L 71.308594 49.878906 L 71.382812 50.007812 L 71.449219 50.132812 L 71.507812 50.265625 L 71.5625 50.402344 L 71.609375 50.535156 L 71.648438 50.675781 L 71.683594 50.816406 L 71.710938 50.957031 L 71.734375 51.101562 L 71.746094 51.246094 L 71.753906 51.390625 L 71.753906 51.535156 L 71.746094 51.683594 L 71.730469 51.828125 L 71.710938 51.972656 L 71.679688 52.121094 L 71.648438 52.265625 L 71.601562 52.40625 L 71.550781 52.550781 L 71.492188 52.691406 L 71.425781 52.828125 L 71.351562 52.960938 Z M 71.351562 52.960938 C 71.101562 53.394531 70.546875 53.546875 70.117188 53.296875 C 69.683594 53.046875 69.535156 52.492188 69.785156 52.058594 Z M 63.71875 62.5625 L 69.785156 52.058594 L 71.351562 52.964844 L 65.285156 63.46875 Z M 65.285156 63.46875 C 65.035156 63.902344 64.480469 64.050781 64.046875 63.800781 C 63.617188 63.550781 63.46875 62.996094 63.71875 62.5625 Z M 61.164062 64.570312 L 62.070312 63.007812 L 62.179688 63.0625 L 62.238281 63.085938 L 62.292969 63.105469 L 62.347656 63.121094 L 62.40625 63.136719 L 62.460938 63.148438 L 62.523438 63.15625 L 62.582031 63.164062 L 62.640625 63.167969 L 62.699219 63.167969 L 62.753906 63.164062 L 62.871094 63.148438 L 62.925781 63.136719 L 62.988281 63.125 L 63.152344 63.066406 L 63.207031 63.042969 L 63.257812 63.011719 L 63.304688 62.984375 L 63.355469 62.953125 L 63.402344 62.917969 L 63.453125 62.886719 L 63.578125 62.761719 L 63.613281 62.714844 L 63.652344 62.667969 L 63.6875 62.617188 L 63.71875 62.5625 L 65.285156 63.46875 L 65.207031 63.601562 L 65.121094 63.726562 L 65.027344 63.851562 L 64.929688 63.964844 L 64.828125 64.070312 L 64.722656 64.175781 L 64.605469 64.273438 L 64.492188 64.367188 L 64.375 64.449219 L 64.25 64.53125 L 64.125 64.601562 L 63.996094 64.667969 L 63.863281 64.730469 L 63.730469 64.78125 L 63.59375 64.832031 L 63.453125 64.875 L 63.3125 64.90625 L 63.171875 64.933594 L 63.027344 64.953125 L 62.886719 64.96875 L 62.738281 64.972656 L 62.59375 64.972656 L 62.449219 64.96875 L 62.304688 64.953125 L 62.15625 64.933594 L 62.011719 64.902344 L 61.867188 64.867188 L 61.722656 64.824219 L 61.582031 64.773438 L 61.4375 64.714844 L 61.300781 64.648438 Z M 61.164062 64.570312 C 60.734375 64.320312 60.585938 63.769531 60.835938 63.335938 C 61.085938 62.902344 61.636719 62.757812 62.070312 63.007812 Z M 51.503906 56.902344 L 62.070312 63.007812 L 61.164062 64.570312 L 50.597656 58.472656 L 50.140625 57.6875 Z M 50.597656 58.472656 C 50.164062 58.222656 50.015625 57.667969 50.261719 57.234375 C 50.511719 56.804688 51.070312 56.652344 51.503906 56.902344 Z M 50.140625 69.890625 L 50.140625 57.6875 L 51.953125 57.6875 L 51.953125 69.890625 Z M 51.953125 69.890625 C 51.953125 70.390625 51.546875 70.796875 51.046875 70.796875 C 50.546875 70.796875 50.140625 70.390625 50.140625 69.890625 Z M 48.9375 72.910156 L 48.9375 71.097656 L 49 71.097656 L 49.175781 71.074219 L 49.238281 71.058594 L 49.292969 71.042969 L 49.402344 71.003906 L 49.457031 70.980469 L 49.558594 70.925781 L 49.609375 70.894531 L 49.65625 70.859375 L 49.703125 70.820312 L 49.789062 70.742188 L 49.828125 70.703125 L 49.867188 70.65625 L 49.902344 70.613281 L 49.9375 70.5625 L 49.96875 70.515625 L 49.996094 70.460938 L 50.023438 70.410156 L 50.046875 70.359375 L 50.070312 70.304688 L 50.089844 70.246094 L 50.105469 70.191406 L 50.140625 70.015625 L 50.140625 69.890625 L 51.953125 69.890625 L 51.949219 70.046875 L 51.9375 70.199219 L 51.917969 70.347656 L 51.890625 70.496094 L 51.855469 70.644531 L 51.816406 70.789062 L 51.769531 70.925781 L 51.714844 71.066406 L 51.65625 71.199219 L 51.589844 71.332031 L 51.515625 71.457031 L 51.4375 71.578125 L 51.351562 71.695312 L 51.261719 71.808594 L 51.167969 71.917969 L 51.070312 72.023438 L 50.964844 72.121094 L 50.851562 72.21875 L 50.742188 72.304688 L 50.625 72.390625 L 50.5 72.46875 L 50.375 72.542969 L 50.242188 72.609375 L 50.109375 72.667969 L 49.972656 72.726562 L 49.691406 72.8125 L 49.546875 72.847656 L 49.394531 72.875 L 49.089844 72.90625 Z M 48.9375 72.910156 C 48.4375 72.910156 48.03125 72.503906 48.03125 72.003906 C 48.03125 71.503906 48.4375 71.097656 48.9375 71.097656 Z M 36.808594 71.097656 L 48.9375 71.097656 L 48.9375 72.910156 L 36.808594 72.910156 Z M 36.808594 72.910156 C 36.308594 72.910156 35.902344 72.503906 35.902344 72.003906 C 35.902344 71.503906 36.308594 71.097656 36.808594 71.097656 Z M 33.789062 69.890625 L 35.601562 69.890625 L 35.601562 69.953125 L 35.609375 70.015625 L 35.613281 70.074219 L 35.625 70.132812 L 35.640625 70.191406 L 35.65625 70.246094 L 35.675781 70.304688 L 35.695312 70.359375 L 35.71875 70.410156 L 35.746094 70.460938 L 35.773438 70.515625 L 35.804688 70.5625 L 35.839844 70.613281 L 35.875 70.65625 L 35.917969 70.703125 L 35.953125 70.742188 L 35.996094 70.78125 L 36.042969 70.820312 L 36.085938 70.859375 L 36.136719 70.894531 L 36.183594 70.925781 L 36.234375 70.953125 L 36.289062 70.980469 L 36.339844 71.003906 L 36.394531 71.023438 L 36.453125 71.042969 L 36.507812 71.058594 L 36.566406 71.074219 L 36.683594 71.089844 L 36.746094 71.097656 L 36.808594 71.097656 L 36.808594 72.910156 L 36.652344 72.90625 L 36.5 72.890625 L 36.351562 72.875 L 36.203125 72.847656 L 36.054688 72.8125 L 35.910156 72.769531 L 35.769531 72.726562 L 35.632812 72.667969 L 35.5 72.609375 L 35.367188 72.542969 L 35.242188 72.46875 L 35.121094 72.390625 L 35.003906 72.304688 L 34.890625 72.21875 L 34.78125 72.121094 L 34.675781 72.023438 L 34.578125 71.917969 L 34.480469 71.808594 L 34.394531 71.695312 L 34.308594 71.578125 L 34.230469 71.453125 L 34.15625 71.332031 L 34.089844 71.199219 L 34.03125 71.066406 L 33.972656 70.925781 L 33.929688 70.789062 L 33.886719 70.644531 L 33.851562 70.496094 L 33.824219 70.347656 L 33.808594 70.199219 L 33.792969 70.046875 Z M 33.789062 69.890625 C 33.789062 69.390625 34.195312 68.988281 34.695312 68.988281 C 35.195312 68.988281 35.601562 69.390625 35.601562 69.890625 Z M 35.601562 57.6875 L 35.601562 69.890625 L 33.789062 69.890625 L 33.789062 57.6875 L 34.246094 56.902344 Z M 33.789062 57.6875 C 33.789062 57.1875 34.195312 56.78125 34.695312 56.78125 C 35.195312 56.78125 35.601562 57.1875 35.601562 57.6875 Z M 23.671875 63.007812 L 34.246094 56.902344 L 35.148438 58.472656 L 24.578125 64.570312 L 24.578125 64.574219 Z M 24.578125 64.570312 C 24.144531 64.824219 23.59375 64.675781 23.34375 64.242188 C 23.09375 63.808594 23.238281 63.257812 23.671875 63.007812 Z M 20.460938 63.46875 L 22.023438 62.5625 L 22.058594 62.617188 L 22.09375 62.667969 L 22.128906 62.714844 L 22.167969 62.761719 L 22.207031 62.804688 L 22.25 62.847656 L 22.296875 62.886719 L 22.339844 62.917969 L 22.390625 62.953125 L 22.4375 62.984375 L 22.484375 63.011719 L 22.539062 63.042969 L 22.59375 63.066406 L 22.703125 63.105469 L 22.761719 63.125 L 22.871094 63.148438 L 22.988281 63.164062 L 23.046875 63.167969 L 23.105469 63.167969 L 23.164062 63.164062 L 23.28125 63.148438 L 23.335938 63.136719 L 23.394531 63.121094 L 23.449219 63.105469 L 23.507812 63.085938 L 23.566406 63.0625 L 23.617188 63.035156 L 23.671875 63.007812 L 24.578125 64.574219 L 24.441406 64.648438 L 24.304688 64.714844 L 24.164062 64.773438 L 24.023438 64.824219 L 23.878906 64.867188 L 23.734375 64.902344 L 23.589844 64.933594 L 23.445312 64.953125 L 23.296875 64.96875 L 23.152344 64.972656 L 23.007812 64.972656 L 22.859375 64.96875 L 22.714844 64.953125 L 22.574219 64.933594 L 22.429688 64.90625 L 22.292969 64.875 L 22.152344 64.832031 L 22.015625 64.78125 L 21.882812 64.730469 L 21.75 64.667969 L 21.617188 64.601562 L 21.492188 64.53125 L 21.367188 64.449219 L 21.25 64.367188 L 21.136719 64.273438 L 21.027344 64.175781 L 20.917969 64.070312 L 20.8125 63.964844 L 20.714844 63.851562 L 20.625 63.726562 L 20.539062 63.601562 L 20.457031 63.46875 Z M 20.457031 63.46875 C 20.207031 63.035156 20.355469 62.484375 20.789062 62.234375 C 21.222656 61.984375 21.773438 62.132812 22.023438 62.5625 Z M 15.960938 52.058594 L 22.023438 62.5625 L 20.460938 63.46875 L 14.390625 52.964844 L 14.390625 52.960938 Z M 14.390625 52.964844 C 14.140625 52.53125 14.292969 51.976562 14.726562 51.726562 C 15.160156 51.476562 15.710938 51.625 15.960938 52.058594 Z M 15.5 48.84375 L 16.402344 50.410156 L 16.347656 50.441406 L 16.300781 50.476562 L 16.25 50.515625 L 16.207031 50.554688 L 16.160156 50.59375 L 16.121094 50.632812 L 16.082031 50.679688 L 16.046875 50.722656 L 16.011719 50.773438 L 15.980469 50.820312 L 15.949219 50.875 L 15.902344 50.976562 L 15.875 51.03125 L 15.859375 51.089844 L 15.828125 51.199219 L 15.816406 51.257812 L 15.8125 51.316406 L 15.804688 51.375 L 15.800781 51.433594 L 15.800781 51.492188 L 15.804688 51.550781 L 15.8125 51.609375 L 15.816406 51.664062 L 15.828125 51.722656 L 15.859375 51.839844 L 15.878906 51.894531 L 15.960938 52.058594 L 14.390625 52.960938 L 14.320312 52.828125 L 14.253906 52.691406 L 14.195312 52.550781 L 14.140625 52.40625 L 14.101562 52.265625 L 14.0625 52.117188 L 14.035156 51.972656 L 14.011719 51.828125 L 14 51.683594 L 13.992188 51.535156 L 13.992188 51.390625 L 14 51.246094 L 14.011719 51.101562 L 14.035156 50.957031 L 14.058594 50.816406 L 14.09375 50.675781 L 14.136719 50.535156 L 14.183594 50.402344 L 14.234375 50.265625 L 14.292969 50.132812 L 14.363281 50.007812 L 14.4375 49.878906 L 14.511719 49.757812 L 14.601562 49.636719 L 14.691406 49.519531 L 14.789062 49.410156 L 14.894531 49.300781 L 15.003906 49.203125 L 15.117188 49.105469 L 15.238281 49.011719 L 15.367188 48.921875 Z M 15.5 48.84375 C 15.929688 48.59375 16.484375 48.742188 16.734375 49.171875 C 16.984375 49.605469 16.835938 50.164062 16.402344 50.410156 Z M 26.972656 44.308594 L 16.402344 50.410156 L 15.5 48.84375 L 26.066406 42.742188 L 26.972656 42.742188 Z M 26.066406 42.742188 C 26.5 42.492188 27.050781 42.640625 27.300781 43.074219 C 27.550781 43.503906 27.40625 44.058594 26.972656 44.308594 Z M 16.402344 36.636719 L 26.972656 42.742188 L 26.066406 44.308594 L 15.5 38.207031 Z M 15.5 38.207031 C 15.066406 37.957031 14.914062 37.402344 15.164062 36.972656 C 15.414062 36.539062 15.96875 36.386719 16.402344 36.636719 Z M 14.390625 34.085938 L 15.960938 34.988281 L 15.933594 35.046875 L 15.878906 35.15625 L 15.859375 35.210938 L 15.828125 35.328125 L 15.816406 35.386719 L 15.8125 35.441406 L 15.804688 35.5 L 15.800781 35.558594 L 15.800781 35.617188 L 15.804688 35.671875 L 15.8125 35.730469 L 15.816406 35.792969 L 15.828125 35.847656 L 15.84375 35.90625 L 15.875 36.015625 L 15.902344 36.074219 L 15.949219 36.175781 L 16.011719 36.277344 L 16.046875 36.320312 L 16.082031 36.371094 L 16.160156 36.457031 L 16.207031 36.496094 L 16.25 36.535156 L 16.300781 36.570312 L 16.347656 36.605469 L 16.402344 36.636719 L 15.5 38.207031 L 15.367188 38.125 L 15.238281 38.039062 L 15.117188 37.945312 L 15.003906 37.847656 L 14.894531 37.75 L 14.789062 37.640625 L 14.691406 37.53125 L 14.601562 37.410156 L 14.511719 37.292969 L 14.363281 37.042969 L 14.292969 36.914062 L 14.234375 36.785156 L 14.183594 36.648438 L 14.136719 36.511719 L 14.09375 36.375 L 14.0625 36.234375 L 14.035156 36.09375 L 14.011719 35.949219 L 14 35.804688 L 13.992188 35.660156 L 13.992188 35.515625 L 14 35.367188 L 14.011719 35.222656 L 14.035156 35.078125 L 14.0625 34.929688 L 14.101562 34.785156 L 14.140625 34.644531 L 14.195312 34.5 L 14.253906 34.359375 L 14.320312 34.21875 Z M 14.390625 34.085938 C 14.640625 33.652344 15.195312 33.503906 15.628906 33.753906 C 16.0625 34.003906 16.210938 34.558594 15.960938 34.988281 Z M 22.023438 24.488281 L 15.960938 34.988281 L 14.390625 34.085938 L 20.460938 23.582031 Z M 20.460938 23.582031 C 20.710938 23.148438 21.261719 23 21.695312 23.25 C 22.128906 23.5 22.273438 24.054688 22.023438 24.488281 Z M 24.578125 22.476562 L 23.671875 24.042969 L 23.621094 24.015625 L 23.566406 23.988281 L 23.507812 23.964844 L 23.449219 23.945312 L 23.394531 23.929688 L 23.339844 23.910156 L 23.222656 23.894531 L 23.167969 23.886719 L 23.105469 23.882812 L 23.046875 23.882812 L 22.988281 23.886719 L 22.929688 23.894531 L 22.875 23.902344 L 22.816406 23.910156 L 22.761719 23.925781 L 22.703125 23.941406 L 22.648438 23.960938 L 22.484375 24.03125 L 22.390625 24.09375 L 22.339844 24.128906 L 22.296875 24.164062 L 22.25 24.203125 L 22.207031 24.246094 L 22.167969 24.289062 L 22.128906 24.335938 L 22.09375 24.382812 L 22.058594 24.433594 L 22.023438 24.488281 L 20.460938 23.582031 L 20.539062 23.449219 L 20.625 23.320312 L 20.714844 23.199219 L 20.8125 23.085938 L 20.917969 22.976562 L 21.027344 22.875 L 21.136719 22.777344 L 21.25 22.683594 L 21.492188 22.519531 L 21.617188 22.449219 L 21.75 22.378906 L 21.882812 22.320312 L 22.015625 22.265625 L 22.152344 22.21875 L 22.292969 22.175781 L 22.429688 22.144531 L 22.574219 22.117188 L 22.714844 22.097656 L 22.859375 22.082031 L 23.007812 22.074219 L 23.152344 22.074219 L 23.296875 22.082031 L 23.445312 22.097656 L 23.589844 22.117188 L 23.734375 22.144531 L 23.878906 22.183594 L 24.023438 22.226562 L 24.164062 22.277344 L 24.304688 22.335938 L 24.441406 22.402344 Z M 24.578125 22.476562 C 25.011719 22.726562 25.160156 23.28125 24.910156 23.714844 C 24.660156 24.144531 24.105469 24.292969 23.671875 24.042969 Z M 34.246094 30.144531 L 23.671875 24.042969 L 24.578125 22.476562 L 35.148438 28.578125 L 35.601562 29.363281 Z M 35.148438 28.578125 C 35.582031 28.828125 35.730469 29.382812 35.480469 29.816406 C 35.230469 30.246094 34.675781 30.394531 34.246094 30.144531 Z M 35.601562 17.15625 L 35.601562 29.363281 L 33.789062 29.363281 L 33.789062 17.15625 Z M 33.789062 17.15625 C 33.789062 16.65625 34.195312 16.253906 34.695312 16.253906 C 35.195312 16.253906 35.601562 16.65625 35.601562 17.15625 Z M 36.808594 14.140625 L 36.808594 15.953125 L 36.746094 15.953125 L 36.683594 15.960938 L 36.625 15.964844 L 36.566406 15.976562 L 36.507812 15.992188 L 36.453125 16.003906 L 36.394531 16.023438 L 36.339844 16.046875 L 36.289062 16.070312 L 36.234375 16.097656 L 36.183594 16.125 L 36.136719 16.15625 L 36.085938 16.191406 L 36.042969 16.226562 L 35.996094 16.269531 L 35.953125 16.304688 L 35.917969 16.347656 L 35.875 16.394531 L 35.839844 16.4375 L 35.804688 16.488281 L 35.773438 16.535156 L 35.746094 16.585938 L 35.71875 16.640625 L 35.695312 16.691406 L 35.65625 16.800781 L 35.625 16.917969 L 35.613281 16.976562 L 35.609375 17.035156 L 35.601562 17.097656 L 35.601562 17.15625 L 33.789062 17.15625 L 33.792969 17.003906 L 33.824219 16.699219 L 33.851562 16.550781 L 33.886719 16.40625 L 33.929688 16.261719 L 33.972656 16.121094 L 34.03125 15.984375 L 34.089844 15.851562 L 34.15625 15.71875 L 34.230469 15.59375 L 34.308594 15.472656 L 34.394531 15.355469 L 34.480469 15.242188 L 34.578125 15.128906 L 34.675781 15.027344 L 34.78125 14.925781 L 34.890625 14.832031 L 35.003906 14.742188 L 35.121094 14.65625 L 35.242188 14.582031 L 35.367188 14.507812 L 35.5 14.441406 L 35.632812 14.378906 L 35.769531 14.324219 L 35.910156 14.277344 L 36.054688 14.238281 L 36.203125 14.203125 L 36.351562 14.175781 L 36.5 14.160156 L 36.652344 14.144531 Z M 36.808594 14.140625 C 37.308594 14.140625 37.710938 14.546875 37.710938 15.046875 C 37.710938 15.546875 37.308594 15.953125 36.808594 15.953125 Z M 36.808594 14.140625 " fill-opacity="1" fill-rule="nonzero"/><g clip-path="url(#e941ea253e)"><path fill="#5f5c9e" d="M 42.722656 66.769531 C 42.441406 66.769531 42.21875 66.546875 42.21875 66.265625 L 42.21875 30.871094 C 42.21875 30.59375 42.445312 30.367188 42.722656 30.367188 C 42.996094 30.367188 43.222656 30.59375 43.222656 30.871094 L 43.222656 66.269531 C 43.226562 66.546875 43 66.769531 42.722656 66.769531 Z M 42.722656 66.769531 " fill-opacity="1" fill-rule="nonzero"/></g><g clip-path="url(#167c74ce5e)"><path fill="#5f5c9e" d="M 42.722656 30.710938 C 42.054688 30.710938 41.511719 30.167969 41.511719 29.5 C 41.511719 28.835938 42.054688 28.292969 42.722656 28.292969 C 43.386719 28.292969 43.929688 28.835938 43.929688 29.5 C 43.929688 30.167969 43.386719 30.710938 42.722656 30.710938 Z M 42.722656 29.300781 C 42.609375 29.300781 42.519531 29.390625 42.519531 29.5 C 42.519531 29.613281 42.609375 29.703125 42.722656 29.703125 C 42.832031 29.703125 42.921875 29.613281 42.921875 29.5 C 42.921875 29.390625 42.835938 29.300781 42.722656 29.300781 Z M 42.722656 29.300781 " fill-opacity="1" fill-rule="nonzero"/></g><g clip-path="url(#37842f6080)"><path fill="#5f5c9e" d="M 38.75 38.808594 C 29.945312 38.808594 25.976562 36.074219 25.8125 35.957031 C 25.589844 35.800781 25.53125 35.503906 25.675781 35.277344 C 25.820312 35.050781 26.117188 34.976562 26.347656 35.109375 C 26.492188 35.191406 26.683594 35.230469 26.914062 35.230469 C 27.996094 35.230469 29.699219 34.40625 31.5 33.53125 C 33.371094 32.625 35.304688 31.6875 36.980469 31.441406 C 39.097656 31.136719 40.300781 31.390625 40.65625 32.210938 C 40.90625 32.792969 40.664062 33.519531 39.933594 34.363281 C 40.386719 34.476562 41.257812 34.5625 42.097656 34.566406 C 42.304688 34.566406 42.488281 34.691406 42.5625 34.878906 C 42.640625 35.070312 42.59375 35.289062 42.445312 35.429688 L 39.101562 38.664062 C 39.003906 38.757812 38.882812 38.808594 38.75 38.808594 Z M 28.191406 36.03125 C 30.074219 36.796875 33.472656 37.773438 38.546875 37.800781 L 40.898438 35.527344 C 39.054688 35.378906 38.855469 34.914062 38.78125 34.746094 C 38.726562 34.617188 38.636719 34.277344 38.96875 33.929688 C 39.691406 33.167969 39.78125 32.730469 39.730469 32.609375 C 39.683594 32.503906 39.378906 32.320312 38.53125 32.320312 C 38.136719 32.320312 37.664062 32.363281 37.125 32.441406 C 35.605469 32.660156 33.742188 33.5625 31.941406 34.4375 C 30.59375 35.089844 29.296875 35.71875 28.191406 36.03125 Z M 28.191406 36.03125 " fill-opacity="1" fill-rule="nonzero"/></g><path fill="#5f5c9e" d="M 30.078125 37.507812 C 29.871094 37.507812 29.679688 37.378906 29.605469 37.171875 C 29.511719 36.910156 29.652344 36.621094 29.914062 36.53125 L 32.960938 35.460938 C 33.222656 35.371094 33.507812 35.507812 33.601562 35.769531 C 33.691406 36.035156 33.554688 36.320312 33.292969 36.414062 L 30.246094 37.480469 C 30.191406 37.5 30.136719 37.507812 30.078125 37.507812 Z M 30.078125 37.507812 " fill-opacity="1" fill-rule="nonzero"/><path fill="#5f5c9e" d="M 34.097656 38.335938 C 33.890625 38.335938 33.695312 38.207031 33.621094 38 C 33.53125 37.738281 33.667969 37.453125 33.929688 37.359375 L 36.980469 36.292969 C 37.238281 36.203125 37.527344 36.339844 37.617188 36.601562 C 37.710938 36.863281 37.574219 37.152344 37.3125 37.242188 L 34.261719 38.308594 C 34.207031 38.328125 34.152344 38.335938 34.097656 38.335938 Z M 34.097656 38.335938 " fill-opacity="1" fill-rule="nonzero"/><g clip-path="url(#bdf57aca2a)"><path fill="#5f5c9e" d="M 46.828125 38.808594 C 46.699219 38.808594 46.574219 38.757812 46.480469 38.664062 L 43.132812 35.429688 C 42.988281 35.289062 42.941406 35.070312 43.019531 34.882812 C 43.09375 34.691406 43.277344 34.566406 43.484375 34.566406 C 44.324219 34.5625 45.195312 34.476562 45.648438 34.367188 C 44.917969 33.515625 44.675781 32.792969 44.925781 32.210938 C 45.277344 31.386719 46.484375 31.136719 48.597656 31.441406 C 50.273438 31.6875 52.207031 32.625 54.078125 33.53125 C 55.878906 34.40625 57.582031 35.230469 58.664062 35.230469 C 58.898438 35.230469 59.085938 35.191406 59.230469 35.109375 C 59.460938 34.976562 59.757812 35.050781 59.902344 35.277344 C 60.046875 35.503906 59.988281 35.804688 59.769531 35.957031 C 59.605469 36.074219 55.636719 38.808594 46.828125 38.808594 Z M 44.683594 35.527344 L 47.03125 37.800781 C 52.105469 37.773438 55.503906 36.796875 57.386719 36.03125 C 56.28125 35.71875 54.984375 35.089844 53.636719 34.4375 C 51.835938 33.5625 49.972656 32.660156 48.453125 32.4375 C 47.914062 32.359375 47.441406 32.320312 47.046875 32.320312 C 46.199219 32.320312 45.894531 32.503906 45.847656 32.609375 C 45.796875 32.730469 45.886719 33.164062 46.609375 33.929688 C 46.941406 34.277344 46.851562 34.617188 46.796875 34.746094 C 46.726562 34.914062 46.527344 35.378906 44.683594 35.527344 Z M 44.683594 35.527344 " fill-opacity="1" fill-rule="nonzero"/></g><path fill="#5f5c9e" d="M 55.5 37.507812 C 55.445312 37.507812 55.386719 37.5 55.332031 37.480469 L 52.285156 36.414062 C 52.023438 36.320312 51.886719 36.035156 51.976562 35.769531 C 52.070312 35.507812 52.355469 35.371094 52.617188 35.460938 L 55.664062 36.53125 C 55.929688 36.621094 56.066406 36.910156 55.972656 37.171875 C 55.902344 37.378906 55.707031 37.507812 55.5 37.507812 Z M 55.5 37.507812 " fill-opacity="1" fill-rule="nonzero"/><path fill="#5f5c9e" d="M 51.480469 38.335938 C 51.425781 38.335938 51.371094 38.328125 51.316406 38.308594 L 48.269531 37.242188 C 48.007812 37.152344 47.867188 36.863281 47.960938 36.601562 C 48.054688 36.339844 48.339844 36.199219 48.601562 36.292969 L 51.648438 37.359375 C 51.910156 37.453125 52.050781 37.738281 51.957031 38 C 51.886719 38.207031 51.691406 38.335938 51.480469 38.335938 Z M 51.480469 38.335938 " fill-opacity="1" fill-rule="nonzero"/><path fill="#5f5c9e" d="M 40.6875 64.148438 C 40.515625 64.148438 40.347656 64.0625 40.253906 63.902344 C 40.113281 63.664062 40.191406 63.355469 40.429688 63.214844 L 42.464844 62.011719 C 43.601562 61.417969 43.972656 60.941406 43.945312 60.683594 C 43.910156 60.300781 43.074219 59.847656 42.484375 59.675781 C 42.464844 59.667969 42.449219 59.664062 42.433594 59.65625 C 40.617188 58.886719 39.734375 58.050781 39.738281 57.097656 C 39.738281 55.910156 41.132812 55.152344 41.960938 54.804688 C 44.621094 53.691406 44.882812 52.847656 44.871094 52.535156 C 44.839844 51.722656 43.210938 50.917969 42.425781 50.65625 C 38.636719 49.464844 38.558594 47.488281 38.574219 47.164062 C 38.578125 46.851562 38.789062 45.148438 42.886719 44.414062 C 46.160156 43.832031 46.527344 42.378906 46.53125 42.363281 C 46.53125 42.355469 46.539062 42.328125 46.542969 42.320312 C 46.570312 42.207031 46.5625 42.039062 46.355469 41.933594 C 46.105469 41.8125 46.003906 41.511719 46.125 41.261719 C 46.246094 41.011719 46.546875 40.910156 46.796875 41.03125 C 47.59375 41.421875 47.613281 42.199219 47.511719 42.582031 C 47.445312 42.910156 46.886719 44.722656 43.0625 45.40625 C 39.707031 46.003906 39.578125 47.171875 39.578125 47.183594 C 39.578125 47.21875 39.582031 47.195312 39.574219 47.230469 C 39.578125 47.230469 39.535156 48.695312 42.734375 49.699219 C 43.054688 49.804688 45.8125 50.769531 45.875 52.496094 C 45.921875 53.664062 44.765625 54.722656 42.347656 55.734375 C 41.375 56.140625 40.742188 56.675781 40.742188 57.101562 C 40.742188 57.324219 40.945312 57.929688 42.800781 58.71875 C 43.109375 58.8125 44.835938 59.402344 44.945312 60.589844 C 45.023438 61.402344 44.371094 62.152344 42.949219 62.890625 L 40.941406 64.078125 C 40.863281 64.128906 40.773438 64.148438 40.6875 64.148438 Z M 40.6875 64.148438 " fill-opacity="1" fill-rule="nonzero"/><path fill="#5f5c9e" d="M 45.988281 41.550781 C 45.558594 41.550781 45.085938 41.257812 44.902344 41.132812 C 44.683594 40.980469 44.164062 40.578125 44.078125 40.113281 C 44.046875 39.933594 44.082031 39.753906 44.179688 39.613281 C 44.25 39.511719 44.425781 39.332031 44.761719 39.332031 C 45.195312 39.332031 45.667969 39.628906 45.851562 39.753906 C 46.585938 40.261719 46.863281 40.839844 46.574219 41.265625 C 46.5 41.375 46.328125 41.550781 45.988281 41.550781 Z M 45.988281 41.550781 " fill-opacity="1" fill-rule="nonzero"/><path fill="#5f5c9e" d="M 44.773438 64.148438 C 44.6875 64.148438 44.597656 64.128906 44.519531 64.078125 L 42.484375 62.878906 C 41.085938 62.152344 40.433594 61.402344 40.511719 60.589844 C 40.625 59.402344 42.347656 58.8125 42.660156 58.71875 C 44.515625 57.929688 44.714844 57.324219 44.714844 57.101562 C 44.714844 56.679688 44.085938 56.140625 43.109375 55.734375 C 40.691406 54.726562 39.539062 53.664062 39.582031 52.496094 C 39.648438 50.769531 42.402344 49.808594 42.71875 49.703125 C 45.898438 48.703125 45.886719 47.246094 45.882812 47.230469 C 45.882812 47.207031 45.878906 47.183594 45.882812 47.15625 C 45.878906 47.15625 45.734375 46.003906 42.398438 45.40625 C 38.574219 44.726562 38.015625 42.910156 37.945312 42.582031 C 37.84375 42.199219 37.867188 41.421875 38.660156 41.03125 C 38.910156 40.910156 39.210938 41.011719 39.335938 41.261719 C 39.457031 41.511719 39.355469 41.8125 39.105469 41.933594 C 38.855469 42.058594 38.90625 42.277344 38.917969 42.320312 C 38.925781 42.339844 38.929688 42.359375 38.929688 42.375 C 38.933594 42.378906 39.300781 43.832031 42.574219 44.414062 C 46.671875 45.148438 46.882812 46.851562 46.886719 47.164062 C 46.902344 47.488281 46.824219 49.464844 43.027344 50.660156 C 42.25 50.917969 40.617188 51.722656 40.585938 52.535156 C 40.574219 52.847656 40.835938 53.691406 43.496094 54.804688 C 44.328125 55.148438 45.71875 55.910156 45.71875 57.097656 C 45.722656 58.050781 44.839844 58.886719 43.027344 59.65625 C 43.007812 59.664062 42.992188 59.667969 42.972656 59.675781 C 42.382812 59.851562 41.546875 60.300781 41.511719 60.6875 C 41.488281 60.941406 41.859375 61.421875 42.96875 61.996094 L 45.027344 63.214844 C 45.265625 63.355469 45.347656 63.664062 45.207031 63.902344 C 45.113281 64.0625 44.945312 64.148438 44.773438 64.148438 Z M 44.773438 64.148438 " fill-opacity="1" fill-rule="nonzero"/><path fill="#5f5c9e" d="M 39.472656 41.550781 C 39.136719 41.550781 38.960938 41.375 38.890625 41.273438 C 38.597656 40.835938 38.875 40.257812 39.613281 39.753906 C 39.792969 39.628906 40.265625 39.332031 40.699219 39.332031 C 41.035156 39.332031 41.210938 39.511719 41.28125 39.617188 C 41.378906 39.753906 41.414062 39.933594 41.382812 40.113281 C 41.296875 40.578125 40.777344 40.980469 40.558594 41.132812 C 40.375 41.257812 39.902344 41.550781 39.472656 41.550781 Z M 39.472656 41.550781 " fill-opacity="1" fill-rule="nonzero"/></g></g><g fill="#000000" fill-opacity="1"><g transform="translate(101.97656, 232.843418)"><g><path d="M 14.21875 0 L 4.84375 -14.40625 L 4.84375 -2.84375 C 4.84375 -2.457031 4.894531 -2.144531 5 -1.90625 C 5.113281 -1.664062 5.257812 -1.484375 5.4375 -1.359375 C 5.625 -1.234375 5.84375 -1.148438 6.09375 -1.109375 C 6.351562 -1.066406 6.617188 -1.046875 6.890625 -1.046875 L 7.234375 -1.046875 L 7.234375 0 L 0.953125 0 L 0.953125 -1.046875 L 1.265625 -1.046875 C 1.554688 -1.046875 1.820312 -1.066406 2.0625 -1.109375 C 2.3125 -1.148438 2.53125 -1.234375 2.71875 -1.359375 C 2.90625 -1.484375 3.050781 -1.664062 3.15625 -1.90625 C 3.269531 -2.144531 3.328125 -2.457031 3.328125 -2.84375 L 3.328125 -15.09375 C 3.328125 -15.46875 3.269531 -15.765625 3.15625 -15.984375 C 3.039062 -16.210938 2.890625 -16.382812 2.703125 -16.5 C 2.515625 -16.625 2.296875 -16.703125 2.046875 -16.734375 C 1.804688 -16.773438 1.546875 -16.796875 1.265625 -16.796875 L 0.953125 -16.796875 L 0.953125 -17.84375 L 5.53125 -17.84375 L 14.484375 -4.03125 L 14.484375 -15.09375 C 14.484375 -15.46875 14.425781 -15.765625 14.3125 -15.984375 C 14.195312 -16.210938 14.046875 -16.382812 13.859375 -16.5 C 13.679688 -16.625 13.46875 -16.703125 13.21875 -16.734375 C 12.96875 -16.773438 12.703125 -16.796875 12.421875 -16.796875 L 12.09375 -16.796875 L 12.09375 -17.84375 L 18.375 -17.84375 L 18.375 -16.796875 L 18.046875 -16.796875 C 17.765625 -16.796875 17.5 -16.773438 17.25 -16.734375 C 17 -16.691406 16.78125 -16.609375 16.59375 -16.484375 C 16.414062 -16.359375 16.269531 -16.175781 16.15625 -15.9375 C 16.050781 -15.707031 16 -15.394531 16 -15 L 16 0 Z M 14.21875 0 "/></g></g></g><g fill="#000000" fill-opacity="1"><g transform="translate(121.053174, 232.843418)"><g><path d="M 5.84375 -1.25 L 10.671875 -1.25 C 11.066406 -1.25 11.40625 -1.300781 11.6875 -1.40625 C 11.96875 -1.519531 12.203125 -1.671875 12.390625 -1.859375 C 12.578125 -2.046875 12.722656 -2.257812 12.828125 -2.5 C 12.929688 -2.75 13.003906 -3.015625 13.046875 -3.296875 L 13.21875 -4.375 L 14.53125 -4.375 L 14.359375 0 L 0.953125 0 L 0.953125 -1.046875 L 1.265625 -1.046875 C 1.546875 -1.046875 1.804688 -1.0625 2.046875 -1.09375 C 2.296875 -1.132812 2.515625 -1.210938 2.703125 -1.328125 C 2.890625 -1.441406 3.039062 -1.609375 3.15625 -1.828125 C 3.269531 -2.054688 3.328125 -2.351562 3.328125 -2.71875 L 3.328125 -15 C 3.328125 -15.394531 3.269531 -15.707031 3.15625 -15.9375 C 3.050781 -16.175781 2.90625 -16.359375 2.71875 -16.484375 C 2.53125 -16.609375 2.3125 -16.691406 2.0625 -16.734375 C 1.820312 -16.773438 1.554688 -16.796875 1.265625 -16.796875 L 0.953125 -16.796875 L 0.953125 -17.84375 L 13.546875 -17.84375 L 13.671875 -13.484375 L 12.375 -13.484375 L 12.25 -14.546875 C 12.21875 -14.828125 12.15625 -15.085938 12.0625 -15.328125 C 11.96875 -15.578125 11.832031 -15.796875 11.65625 -15.984375 C 11.488281 -16.171875 11.269531 -16.320312 11 -16.4375 C 10.738281 -16.550781 10.421875 -16.609375 10.046875 -16.609375 L 5.84375 -16.609375 L 5.84375 -9.953125 L 11.875 -9.953125 L 11.875 -8.734375 L 5.84375 -8.734375 Z M 5.84375 -1.25 "/></g></g></g><g fill="#000000" fill-opacity="1"><g transform="translate(136.626911, 232.843418)"><g><path d="M 14.40625 -17.671875 L 17.53125 -6.84375 C 17.769531 -6.019531 17.976562 -5.226562 18.15625 -4.46875 C 18.34375 -3.707031 18.492188 -3.035156 18.609375 -2.453125 C 18.722656 -3.054688 18.859375 -3.6875 19.015625 -4.34375 C 19.179688 -5.007812 19.378906 -5.75 19.609375 -6.5625 L 21.796875 -14.265625 C 21.828125 -14.367188 21.859375 -14.476562 21.890625 -14.59375 C 21.921875 -14.71875 21.945312 -14.84375 21.96875 -14.96875 C 22 -15.09375 22.023438 -15.207031 22.046875 -15.3125 C 22.066406 -15.414062 22.078125 -15.503906 22.078125 -15.578125 C 22.078125 -16.003906 21.9375 -16.3125 21.65625 -16.5 C 21.382812 -16.695312 20.972656 -16.796875 20.421875 -16.796875 L 19.84375 -16.796875 L 19.84375 -17.84375 L 25.953125 -17.84375 L 25.953125 -16.796875 L 25.46875 -16.796875 C 25.226562 -16.796875 25.015625 -16.769531 24.828125 -16.71875 C 24.648438 -16.675781 24.488281 -16.582031 24.34375 -16.4375 C 24.195312 -16.300781 24.0625 -16.109375 23.9375 -15.859375 C 23.8125 -15.609375 23.691406 -15.273438 23.578125 -14.859375 L 19.34375 0 L 17.109375 0 L 13.03125 -14 L 9.203125 0 L 6.890625 0 L 2.3125 -15.484375 C 2.238281 -15.742188 2.148438 -15.957031 2.046875 -16.125 C 1.941406 -16.289062 1.820312 -16.421875 1.6875 -16.515625 C 1.550781 -16.617188 1.390625 -16.691406 1.203125 -16.734375 C 1.015625 -16.773438 0.796875 -16.796875 0.546875 -16.796875 L 0.21875 -16.796875 L 0.21875 -17.84375 L 7.109375 -17.84375 L 7.109375 -16.796875 L 6.53125 -16.796875 C 6.03125 -16.796875 5.65625 -16.695312 5.40625 -16.5 C 5.15625 -16.3125 5.03125 -16.007812 5.03125 -15.59375 C 5.03125 -15.457031 5.050781 -15.316406 5.09375 -15.171875 C 5.132812 -15.023438 5.175781 -14.859375 5.21875 -14.671875 L 7.515625 -6.671875 C 7.734375 -5.921875 7.9375 -5.179688 8.125 -4.453125 C 8.3125 -3.722656 8.472656 -3.054688 8.609375 -2.453125 C 8.734375 -3.109375 8.878906 -3.816406 9.046875 -4.578125 C 9.210938 -5.347656 9.40625 -6.140625 9.625 -6.953125 L 12.59375 -17.671875 Z M 14.40625 -17.671875 "/></g></g></g><g fill="#000000" fill-opacity="1"><g transform="translate(162.794695, 232.843418)"><g/></g></g><g fill="#000000" fill-opacity="1"><g transform="translate(169.28782, 232.843418)"><g><path d="M 11.59375 0 L 11.59375 -1.046875 L 11.921875 -1.046875 C 12.210938 -1.046875 12.476562 -1.066406 12.71875 -1.109375 C 12.96875 -1.148438 13.179688 -1.234375 13.359375 -1.359375 C 13.546875 -1.484375 13.695312 -1.664062 13.8125 -1.90625 C 13.925781 -2.144531 13.984375 -2.457031 13.984375 -2.84375 L 13.984375 -8.703125 L 5.84375 -8.703125 L 5.84375 -2.84375 C 5.84375 -2.457031 5.894531 -2.144531 6 -1.90625 C 6.113281 -1.664062 6.257812 -1.484375 6.4375 -1.359375 C 6.625 -1.234375 6.84375 -1.148438 7.09375 -1.109375 C 7.351562 -1.066406 7.617188 -1.046875 7.890625 -1.046875 L 8.234375 -1.046875 L 8.234375 0 L 0.953125 0 L 0.953125 -1.046875 L 1.265625 -1.046875 C 1.554688 -1.046875 1.820312 -1.066406 2.0625 -1.109375 C 2.3125 -1.148438 2.53125 -1.234375 2.71875 -1.359375 C 2.90625 -1.484375 3.050781 -1.664062 3.15625 -1.90625 C 3.269531 -2.144531 3.328125 -2.457031 3.328125 -2.84375 L 3.328125 -15.09375 C 3.328125 -15.46875 3.269531 -15.765625 3.15625 -15.984375 C 3.039062 -16.210938 2.890625 -16.382812 2.703125 -16.5 C 2.515625 -16.625 2.296875 -16.703125 2.046875 -16.734375 C 1.804688 -16.773438 1.546875 -16.796875 1.265625 -16.796875 L 0.953125 -16.796875 L 0.953125 -17.84375 L 8.234375 -17.84375 L 8.234375 -16.796875 L 7.890625 -16.796875 C 7.617188 -16.796875 7.351562 -16.773438 7.09375 -16.734375 C 6.84375 -16.691406 6.625 -16.609375 6.4375 -16.484375 C 6.257812 -16.359375 6.113281 -16.175781 6 -15.9375 C 5.894531 -15.707031 5.84375 -15.394531 5.84375 -15 L 5.84375 -9.953125 L 13.984375 -9.953125 L 13.984375 -15 C 13.984375 -15.394531 13.925781 -15.707031 13.8125 -15.9375 C 13.695312 -16.175781 13.546875 -16.359375 13.359375 -16.484375 C 13.179688 -16.609375 12.96875 -16.691406 12.71875 -16.734375 C 12.476562 -16.773438 12.210938 -16.796875 11.921875 -16.796875 L 11.59375 -16.796875 L 11.59375 -17.84375 L 18.875 -17.84375 L 18.875 -16.796875 L 18.5625 -16.796875 C 18.269531 -16.796875 18 -16.773438 17.75 -16.734375 C 17.507812 -16.691406 17.296875 -16.609375 17.109375 -16.484375 C 16.921875 -16.359375 16.769531 -16.175781 16.65625 -15.9375 C 16.550781 -15.707031 16.5 -15.394531 16.5 -15 L 16.5 -2.71875 C 16.5 -2.351562 16.550781 -2.054688 16.65625 -1.828125 C 16.769531 -1.609375 16.921875 -1.441406 17.109375 -1.328125 C 17.296875 -1.210938 17.515625 -1.132812 17.765625 -1.09375 C 18.015625 -1.0625 18.28125 -1.046875 18.5625 -1.046875 L 18.875 -1.046875 L 18.875 0 Z M 11.59375 0 "/></g></g></g><g fill="#000000" fill-opacity="1"><g transform="translate(189.10894, 232.843418)"><g><path d="M 5.84375 -1.25 L 10.671875 -1.25 C 11.066406 -1.25 11.40625 -1.300781 11.6875 -1.40625 C 11.96875 -1.519531 12.203125 -1.671875 12.390625 -1.859375 C 12.578125 -2.046875 12.722656 -2.257812 12.828125 -2.5 C 12.929688 -2.75 13.003906 -3.015625 13.046875 -3.296875 L 13.21875 -4.375 L 14.53125 -4.375 L 14.359375 0 L 0.953125 0 L 0.953125 -1.046875 L 1.265625 -1.046875 C 1.546875 -1.046875 1.804688 -1.0625 2.046875 -1.09375 C 2.296875 -1.132812 2.515625 -1.210938 2.703125 -1.328125 C 2.890625 -1.441406 3.039062 -1.609375 3.15625 -1.828125 C 3.269531 -2.054688 3.328125 -2.351562 3.328125 -2.71875 L 3.328125 -15 C 3.328125 -15.394531 3.269531 -15.707031 3.15625 -15.9375 C 3.050781 -16.175781 2.90625 -16.359375 2.71875 -16.484375 C 2.53125 -16.609375 2.3125 -16.691406 2.0625 -16.734375 C 1.820312 -16.773438 1.554688 -16.796875 1.265625 -16.796875 L 0.953125 -16.796875 L 0.953125 -17.84375 L 13.546875 -17.84375 L 13.671875 -13.484375 L 12.375 -13.484375 L 12.25 -14.546875 C 12.21875 -14.828125 12.15625 -15.085938 12.0625 -15.328125 C 11.96875 -15.578125 11.832031 -15.796875 11.65625 -15.984375 C 11.488281 -16.171875 11.269531 -16.320312 11 -16.4375 C 10.738281 -16.550781 10.421875 -16.609375 10.046875 -16.609375 L 5.84375 -16.609375 L 5.84375 -9.953125 L 11.875 -9.953125 L 11.875 -8.734375 L 5.84375 -8.734375 Z M 5.84375 -1.25 "/></g></g></g><g fill="#000000" fill-opacity="1"><g transform="translate(204.682677, 232.843418)"><g><path d="M 5.046875 -5.96875 L 4.109375 -3.34375 C 4.023438 -3.144531 3.960938 -2.953125 3.921875 -2.765625 C 3.890625 -2.578125 3.875 -2.410156 3.875 -2.265625 C 3.875 -1.847656 4.007812 -1.539062 4.28125 -1.34375 C 4.550781 -1.144531 4.96875 -1.046875 5.53125 -1.046875 L 6.109375 -1.046875 L 6.109375 0 L 0 0 L 0 -1.046875 L 0.46875 -1.046875 C 0.71875 -1.046875 0.925781 -1.070312 1.09375 -1.125 C 1.269531 -1.175781 1.425781 -1.273438 1.5625 -1.421875 C 1.695312 -1.566406 1.828125 -1.765625 1.953125 -2.015625 C 2.085938 -2.273438 2.226562 -2.601562 2.375 -3 L 7.921875 -17.84375 L 9.875 -17.84375 L 15.53125 -2.375 C 15.625 -2.113281 15.722656 -1.898438 15.828125 -1.734375 C 15.929688 -1.566406 16.050781 -1.429688 16.1875 -1.328125 C 16.320312 -1.222656 16.476562 -1.148438 16.65625 -1.109375 C 16.84375 -1.066406 17.054688 -1.046875 17.296875 -1.046875 L 17.625 -1.046875 L 17.625 0 L 10.75 0 L 10.75 -1.046875 L 11.328125 -1.046875 C 12.328125 -1.046875 12.828125 -1.445312 12.828125 -2.25 C 12.828125 -2.382812 12.804688 -2.523438 12.765625 -2.671875 C 12.734375 -2.816406 12.6875 -2.984375 12.625 -3.171875 L 11.625 -5.96875 Z M 9.625 -11.59375 C 9.363281 -12.332031 9.125 -13.023438 8.90625 -13.671875 C 8.6875 -14.328125 8.507812 -14.953125 8.375 -15.546875 C 8.3125 -15.242188 8.242188 -14.953125 8.171875 -14.671875 C 8.097656 -14.398438 8.015625 -14.113281 7.921875 -13.8125 C 7.828125 -13.519531 7.722656 -13.210938 7.609375 -12.890625 C 7.503906 -12.578125 7.378906 -12.222656 7.234375 -11.828125 L 5.53125 -7.234375 L 11.171875 -7.234375 Z M 9.625 -11.59375 "/></g></g></g><g fill="#000000" fill-opacity="1"><g transform="translate(222.306875, 232.843418)"><g><path d="M 0.953125 0 L 0.953125 -1.046875 L 1.265625 -1.046875 C 1.554688 -1.046875 1.820312 -1.066406 2.0625 -1.109375 C 2.3125 -1.148438 2.53125 -1.234375 2.71875 -1.359375 C 2.90625 -1.484375 3.050781 -1.664062 3.15625 -1.90625 C 3.269531 -2.144531 3.328125 -2.457031 3.328125 -2.84375 L 3.328125 -15 C 3.328125 -15.394531 3.269531 -15.707031 3.15625 -15.9375 C 3.050781 -16.175781 2.90625 -16.359375 2.71875 -16.484375 C 2.53125 -16.609375 2.3125 -16.691406 2.0625 -16.734375 C 1.820312 -16.773438 1.554688 -16.796875 1.265625 -16.796875 L 0.953125 -16.796875 L 0.953125 -17.84375 L 8.234375 -17.84375 L 8.234375 -16.796875 L 7.890625 -16.796875 C 7.617188 -16.796875 7.359375 -16.773438 7.109375 -16.734375 C 6.859375 -16.703125 6.640625 -16.625 6.453125 -16.5 C 6.265625 -16.382812 6.113281 -16.210938 6 -15.984375 C 5.894531 -15.765625 5.84375 -15.46875 5.84375 -15.09375 L 5.84375 -1.25 L 10.78125 -1.25 C 11.15625 -1.25 11.472656 -1.3125 11.734375 -1.4375 C 12.003906 -1.570312 12.222656 -1.75 12.390625 -1.96875 C 12.554688 -2.1875 12.6875 -2.425781 12.78125 -2.6875 C 12.875 -2.957031 12.9375 -3.226562 12.96875 -3.5 L 13.21875 -5.375 L 14.53125 -5.375 L 14.359375 0 Z M 0.953125 0 "/></g></g></g><g fill="#000000" fill-opacity="1"><g transform="translate(237.880612, 232.843418)"><g><path d="M 8.90625 -2.84375 C 8.90625 -2.457031 8.957031 -2.144531 9.0625 -1.90625 C 9.175781 -1.664062 9.320312 -1.484375 9.5 -1.359375 C 9.6875 -1.234375 9.90625 -1.148438 10.15625 -1.109375 C 10.40625 -1.066406 10.671875 -1.046875 10.953125 -1.046875 L 11.53125 -1.046875 L 11.53125 0 L 3.75 0 L 3.75 -1.046875 L 4.328125 -1.046875 C 4.597656 -1.046875 4.859375 -1.0625 5.109375 -1.09375 C 5.359375 -1.132812 5.578125 -1.210938 5.765625 -1.328125 C 5.953125 -1.441406 6.097656 -1.609375 6.203125 -1.828125 C 6.316406 -2.054688 6.375 -2.351562 6.375 -2.71875 L 6.375 -16.609375 L 3.984375 -16.609375 C 3.617188 -16.609375 3.3125 -16.550781 3.0625 -16.4375 C 2.8125 -16.320312 2.601562 -16.171875 2.4375 -15.984375 C 2.28125 -15.796875 2.164062 -15.578125 2.09375 -15.328125 C 2.019531 -15.085938 1.960938 -14.828125 1.921875 -14.546875 L 1.796875 -13.484375 L 0.5 -13.484375 L 0.625 -17.84375 L 14.703125 -17.84375 L 14.8125 -13.484375 L 13.53125 -13.484375 L 13.40625 -14.546875 C 13.375 -14.828125 13.316406 -15.085938 13.234375 -15.328125 C 13.148438 -15.578125 13.03125 -15.796875 12.875 -15.984375 C 12.71875 -16.171875 12.515625 -16.320312 12.265625 -16.4375 C 12.015625 -16.550781 11.703125 -16.609375 11.328125 -16.609375 L 8.90625 -16.609375 Z M 8.90625 -2.84375 "/></g></g></g><g fill="#000000" fill-opacity="1"><g transform="translate(253.198047, 232.843418)"><g><path d="M 11.59375 0 L 11.59375 -1.046875 L 11.921875 -1.046875 C 12.210938 -1.046875 12.476562 -1.066406 12.71875 -1.109375 C 12.96875 -1.148438 13.179688 -1.234375 13.359375 -1.359375 C 13.546875 -1.484375 13.695312 -1.664062 13.8125 -1.90625 C 13.925781 -2.144531 13.984375 -2.457031 13.984375 -2.84375 L 13.984375 -8.703125 L 5.84375 -8.703125 L 5.84375 -2.84375 C 5.84375 -2.457031 5.894531 -2.144531 6 -1.90625 C 6.113281 -1.664062 6.257812 -1.484375 6.4375 -1.359375 C 6.625 -1.234375 6.84375 -1.148438 7.09375 -1.109375 C 7.351562 -1.066406 7.617188 -1.046875 7.890625 -1.046875 L 8.234375 -1.046875 L 8.234375 0 L 0.953125 0 L 0.953125 -1.046875 L 1.265625 -1.046875 C 1.554688 -1.046875 1.820312 -1.066406 2.0625 -1.109375 C 2.3125 -1.148438 2.53125 -1.234375 2.71875 -1.359375 C 2.90625 -1.484375 3.050781 -1.664062 3.15625 -1.90625 C 3.269531 -2.144531 3.328125 -2.457031 3.328125 -2.84375 L 3.328125 -15.09375 C 3.328125 -15.46875 3.269531 -15.765625 3.15625 -15.984375 C 3.039062 -16.210938 2.890625 -16.382812 2.703125 -16.5 C 2.515625 -16.625 2.296875 -16.703125 2.046875 -16.734375 C 1.804688 -16.773438 1.546875 -16.796875 1.265625 -16.796875 L 0.953125 -16.796875 L 0.953125 -17.84375 L 8.234375 -17.84375 L 8.234375 -16.796875 L 7.890625 -16.796875 C 7.617188 -16.796875 7.351562 -16.773438 7.09375 -16.734375 C 6.84375 -16.691406 6.625 -16.609375 6.4375 -16.484375 C 6.257812 -16.359375 6.113281 -16.175781 6 -15.9375 C 5.894531 -15.707031 5.84375 -15.394531 5.84375 -15 L 5.84375 -9.953125 L 13.984375 -9.953125 L 13.984375 -15 C 13.984375 -15.394531 13.925781 -15.707031 13.8125 -15.9375 C 13.695312 -16.175781 13.546875 -16.359375 13.359375 -16.484375 C 13.179688 -16.609375 12.96875 -16.691406 12.71875 -16.734375 C 12.476562 -16.773438 12.210938 -16.796875 11.921875 -16.796875 L 11.59375 -16.796875 L 11.59375 -17.84375 L 18.875 -17.84375 L 18.875 -16.796875 L 18.5625 -16.796875 C 18.269531 -16.796875 18 -16.773438 17.75 -16.734375 C 17.507812 -16.691406 17.296875 -16.609375 17.109375 -16.484375 C 16.921875 -16.359375 16.769531 -16.175781 16.65625 -15.9375 C 16.550781 -15.707031 16.5 -15.394531 16.5 -15 L 16.5 -2.71875 C 16.5 -2.351562 16.550781 -2.054688 16.65625 -1.828125 C 16.769531 -1.609375 16.921875 -1.441406 17.109375 -1.328125 C 17.296875 -1.210938 17.515625 -1.132812 17.765625 -1.09375 C 18.015625 -1.0625 18.28125 -1.046875 18.5625 -1.046875 L 18.875 -1.046875 L 18.875 0 Z M 11.59375 0 "/></g></g></g><g fill="#000000" fill-opacity="1"><g transform="translate(117.688298, 250.793436)"><g><path d="M 8.234375 0 L 8.234375 -0.546875 L 8.28125 -0.546875 C 8.425781 -0.546875 8.550781 -0.554688 8.65625 -0.578125 C 8.769531 -0.597656 8.863281 -0.632812 8.9375 -0.6875 C 9.019531 -0.75 9.082031 -0.832031 9.125 -0.9375 C 9.175781 -1.039062 9.207031 -1.179688 9.21875 -1.359375 L 9.21875 -8.3125 L 6.234375 0 L 5.53125 0 L 2.515625 -8.28125 L 2.515625 -1.484375 C 2.515625 -1.273438 2.535156 -1.109375 2.578125 -0.984375 C 2.617188 -0.867188 2.679688 -0.773438 2.765625 -0.703125 C 2.847656 -0.640625 2.945312 -0.597656 3.0625 -0.578125 C 3.1875 -0.554688 3.316406 -0.546875 3.453125 -0.546875 L 3.5 -0.546875 L 3.5 0 L 0.5 0 L 0.5 -0.546875 L 0.65625 -0.546875 C 0.800781 -0.546875 0.9375 -0.554688 1.0625 -0.578125 C 1.195312 -0.597656 1.3125 -0.632812 1.40625 -0.6875 C 1.507812 -0.75 1.585938 -0.835938 1.640625 -0.953125 C 1.703125 -1.066406 1.734375 -1.222656 1.734375 -1.421875 L 1.734375 -7.859375 C 1.734375 -8.046875 1.703125 -8.195312 1.640625 -8.3125 C 1.585938 -8.425781 1.507812 -8.515625 1.40625 -8.578125 C 1.3125 -8.640625 1.195312 -8.679688 1.0625 -8.703125 C 0.9375 -8.722656 0.800781 -8.734375 0.65625 -8.734375 L 0.5 -8.734375 L 0.5 -9.28125 L 3.453125 -9.28125 L 6.15625 -1.84375 L 8.8125 -9.28125 L 11.703125 -9.28125 L 11.703125 -8.734375 L 11.53125 -8.734375 C 11.382812 -8.734375 11.242188 -8.722656 11.109375 -8.703125 C 10.984375 -8.679688 10.867188 -8.632812 10.765625 -8.5625 C 10.671875 -8.5 10.597656 -8.40625 10.546875 -8.28125 C 10.492188 -8.164062 10.46875 -8.003906 10.46875 -7.796875 L 10.46875 -1.484375 C 10.46875 -1.273438 10.492188 -1.109375 10.546875 -0.984375 C 10.597656 -0.867188 10.671875 -0.773438 10.765625 -0.703125 C 10.867188 -0.640625 10.984375 -0.597656 11.109375 -0.578125 C 11.242188 -0.554688 11.382812 -0.546875 11.53125 -0.546875 L 11.703125 -0.546875 L 11.703125 0 Z M 8.234375 0 "/></g></g></g><g fill="#000000" fill-opacity="1"><g transform="translate(140.278522, 250.793436)"><g><path d="M 3.046875 -0.640625 L 5.546875 -0.640625 C 5.753906 -0.640625 5.929688 -0.664062 6.078125 -0.71875 C 6.222656 -0.78125 6.34375 -0.859375 6.4375 -0.953125 C 6.539062 -1.054688 6.617188 -1.171875 6.671875 -1.296875 C 6.722656 -1.429688 6.757812 -1.570312 6.78125 -1.71875 L 6.875 -2.265625 L 7.546875 -2.265625 L 7.46875 0 L 0.5 0 L 0.5 -0.546875 L 0.65625 -0.546875 C 0.800781 -0.546875 0.9375 -0.554688 1.0625 -0.578125 C 1.195312 -0.597656 1.3125 -0.632812 1.40625 -0.6875 C 1.507812 -0.75 1.585938 -0.835938 1.640625 -0.953125 C 1.703125 -1.066406 1.734375 -1.222656 1.734375 -1.421875 L 1.734375 -7.796875 C 1.734375 -8.003906 1.703125 -8.164062 1.640625 -8.28125 C 1.585938 -8.40625 1.507812 -8.5 1.40625 -8.5625 C 1.3125 -8.632812 1.195312 -8.679688 1.0625 -8.703125 C 0.9375 -8.722656 0.800781 -8.734375 0.65625 -8.734375 L 0.5 -8.734375 L 0.5 -9.28125 L 7.046875 -9.28125 L 7.109375 -7.015625 L 6.4375 -7.015625 L 6.375 -7.5625 C 6.351562 -7.707031 6.316406 -7.84375 6.265625 -7.96875 C 6.222656 -8.101562 6.15625 -8.21875 6.0625 -8.3125 C 5.96875 -8.414062 5.851562 -8.492188 5.71875 -8.546875 C 5.582031 -8.609375 5.414062 -8.640625 5.21875 -8.640625 L 3.046875 -8.640625 L 3.046875 -5.171875 L 6.171875 -5.171875 L 6.171875 -4.53125 L 3.046875 -4.53125 Z M 3.046875 -0.640625 "/></g></g></g><g fill="#000000" fill-opacity="1"><g transform="translate(158.775732, 250.793436)"><g><path d="M 8.703125 -4.65625 C 8.703125 -3.945312 8.613281 -3.300781 8.4375 -2.71875 C 8.257812 -2.144531 7.992188 -1.65625 7.640625 -1.25 C 7.296875 -0.851562 6.859375 -0.546875 6.328125 -0.328125 C 5.796875 -0.109375 5.175781 0 4.46875 0 L 0.5 0 L 0.5 -0.546875 L 0.65625 -0.546875 C 0.800781 -0.546875 0.9375 -0.554688 1.0625 -0.578125 C 1.195312 -0.597656 1.3125 -0.640625 1.40625 -0.703125 C 1.507812 -0.773438 1.585938 -0.867188 1.640625 -0.984375 C 1.703125 -1.109375 1.734375 -1.273438 1.734375 -1.484375 L 1.734375 -7.859375 C 1.734375 -8.046875 1.703125 -8.195312 1.640625 -8.3125 C 1.585938 -8.425781 1.507812 -8.515625 1.40625 -8.578125 C 1.3125 -8.640625 1.195312 -8.679688 1.0625 -8.703125 C 0.9375 -8.722656 0.800781 -8.734375 0.65625 -8.734375 L 0.5 -8.734375 L 0.5 -9.28125 L 4.46875 -9.28125 C 5.144531 -9.28125 5.742188 -9.175781 6.265625 -8.96875 C 6.785156 -8.769531 7.226562 -8.472656 7.59375 -8.078125 C 7.957031 -7.679688 8.234375 -7.191406 8.421875 -6.609375 C 8.609375 -6.035156 8.703125 -5.382812 8.703125 -4.65625 Z M 4.171875 -0.65625 C 4.679688 -0.65625 5.128906 -0.742188 5.515625 -0.921875 C 5.910156 -1.097656 6.234375 -1.351562 6.484375 -1.6875 C 6.742188 -2.03125 6.9375 -2.445312 7.0625 -2.9375 C 7.195312 -3.4375 7.265625 -4.007812 7.265625 -4.65625 C 7.265625 -5.945312 7.003906 -6.929688 6.484375 -7.609375 C 5.972656 -8.296875 5.207031 -8.640625 4.1875 -8.640625 L 3.046875 -8.640625 L 3.046875 -0.65625 Z M 4.171875 -0.65625 "/></g></g></g><g fill="#000000" fill-opacity="1"><g transform="translate(178.624593, 250.793436)"><g><path d="M 0.5 0 L 0.5 -0.546875 L 0.65625 -0.546875 C 0.800781 -0.546875 0.9375 -0.554688 1.0625 -0.578125 C 1.195312 -0.597656 1.3125 -0.640625 1.40625 -0.703125 C 1.507812 -0.773438 1.585938 -0.867188 1.640625 -0.984375 C 1.703125 -1.109375 1.734375 -1.273438 1.734375 -1.484375 L 1.734375 -7.796875 C 1.734375 -8.003906 1.703125 -8.164062 1.640625 -8.28125 C 1.585938 -8.40625 1.507812 -8.5 1.40625 -8.5625 C 1.3125 -8.632812 1.195312 -8.679688 1.0625 -8.703125 C 0.9375 -8.722656 0.800781 -8.734375 0.65625 -8.734375 L 0.5 -8.734375 L 0.5 -9.28125 L 4.28125 -9.28125 L 4.28125 -8.734375 L 4.109375 -8.734375 C 3.960938 -8.734375 3.820312 -8.722656 3.6875 -8.703125 C 3.5625 -8.679688 3.453125 -8.632812 3.359375 -8.5625 C 3.265625 -8.5 3.1875 -8.40625 3.125 -8.28125 C 3.070312 -8.164062 3.046875 -8.003906 3.046875 -7.796875 L 3.046875 -1.484375 C 3.046875 -1.273438 3.070312 -1.109375 3.125 -0.984375 C 3.1875 -0.867188 3.265625 -0.773438 3.359375 -0.703125 C 3.453125 -0.640625 3.5625 -0.597656 3.6875 -0.578125 C 3.820312 -0.554688 3.960938 -0.546875 4.109375 -0.546875 L 4.28125 -0.546875 L 4.28125 0 Z M 0.5 0 "/></g></g></g><g fill="#000000" fill-opacity="1"><g transform="translate(193.79663, 250.793436)"><g><path d="M 4.90625 -9.40625 C 5.351562 -9.40625 5.738281 -9.367188 6.0625 -9.296875 C 6.394531 -9.222656 6.671875 -9.117188 6.890625 -8.984375 C 7.109375 -8.859375 7.269531 -8.707031 7.375 -8.53125 C 7.488281 -8.351562 7.546875 -8.160156 7.546875 -7.953125 C 7.546875 -7.816406 7.515625 -7.691406 7.453125 -7.578125 C 7.398438 -7.460938 7.320312 -7.363281 7.21875 -7.28125 C 7.113281 -7.207031 6.992188 -7.148438 6.859375 -7.109375 C 6.722656 -7.066406 6.570312 -7.046875 6.40625 -7.046875 C 6.40625 -7.242188 6.378906 -7.441406 6.328125 -7.640625 C 6.273438 -7.847656 6.1875 -8.03125 6.0625 -8.1875 C 5.945312 -8.34375 5.789062 -8.46875 5.59375 -8.5625 C 5.40625 -8.664062 5.171875 -8.71875 4.890625 -8.71875 C 4.398438 -8.71875 3.984375 -8.628906 3.640625 -8.453125 C 3.296875 -8.273438 3.015625 -8.007812 2.796875 -7.65625 C 2.578125 -7.3125 2.421875 -6.882812 2.328125 -6.375 C 2.234375 -5.875 2.1875 -5.300781 2.1875 -4.65625 C 2.1875 -4.070312 2.234375 -3.539062 2.328125 -3.0625 C 2.429688 -2.582031 2.59375 -2.164062 2.8125 -1.8125 C 3.039062 -1.46875 3.320312 -1.203125 3.65625 -1.015625 C 4 -0.828125 4.410156 -0.734375 4.890625 -0.734375 C 5.203125 -0.734375 5.476562 -0.765625 5.71875 -0.828125 C 5.96875 -0.890625 6.1875 -0.96875 6.375 -1.0625 C 6.5625 -1.164062 6.722656 -1.285156 6.859375 -1.421875 C 7.003906 -1.554688 7.132812 -1.691406 7.25 -1.828125 C 7.3125 -1.785156 7.363281 -1.722656 7.40625 -1.640625 C 7.457031 -1.566406 7.484375 -1.460938 7.484375 -1.328125 C 7.484375 -1.160156 7.425781 -0.988281 7.3125 -0.8125 C 7.207031 -0.644531 7.039062 -0.488281 6.8125 -0.34375 C 6.582031 -0.207031 6.289062 -0.09375 5.9375 0 C 5.59375 0.0820312 5.175781 0.125 4.6875 0.125 C 4.039062 0.125 3.472656 0.0078125 2.984375 -0.21875 C 2.492188 -0.445312 2.082031 -0.769531 1.75 -1.1875 C 1.414062 -1.601562 1.164062 -2.101562 1 -2.6875 C 0.832031 -3.28125 0.75 -3.9375 0.75 -4.65625 C 0.75 -5.351562 0.835938 -5.992188 1.015625 -6.578125 C 1.191406 -7.160156 1.453125 -7.660156 1.796875 -8.078125 C 2.148438 -8.503906 2.585938 -8.832031 3.109375 -9.0625 C 3.628906 -9.289062 4.226562 -9.40625 4.90625 -9.40625 Z M 4.90625 -9.40625 "/></g></g></g><g fill="#000000" fill-opacity="1"><g transform="translate(212.173277, 250.793436)"><g><path d="M 2.625 -3.109375 L 2.140625 -1.734375 C 2.097656 -1.640625 2.066406 -1.539062 2.046875 -1.4375 C 2.023438 -1.332031 2.015625 -1.25 2.015625 -1.1875 C 2.015625 -0.957031 2.082031 -0.789062 2.21875 -0.6875 C 2.363281 -0.59375 2.582031 -0.546875 2.875 -0.546875 L 3.171875 -0.546875 L 3.171875 0 L 0 0 L 0 -0.546875 L 0.25 -0.546875 C 0.375 -0.546875 0.476562 -0.554688 0.5625 -0.578125 C 0.65625 -0.609375 0.738281 -0.660156 0.8125 -0.734375 C 0.882812 -0.816406 0.953125 -0.921875 1.015625 -1.046875 C 1.085938 -1.179688 1.160156 -1.351562 1.234375 -1.5625 L 4.125 -9.28125 L 5.140625 -9.28125 L 8.078125 -1.234375 C 8.128906 -1.097656 8.179688 -0.984375 8.234375 -0.890625 C 8.285156 -0.804688 8.347656 -0.738281 8.421875 -0.6875 C 8.492188 -0.632812 8.570312 -0.597656 8.65625 -0.578125 C 8.75 -0.554688 8.863281 -0.546875 9 -0.546875 L 9.171875 -0.546875 L 9.171875 0 L 5.59375 0 L 5.59375 -0.546875 L 5.890625 -0.546875 C 6.410156 -0.546875 6.671875 -0.753906 6.671875 -1.171875 C 6.671875 -1.242188 6.660156 -1.316406 6.640625 -1.390625 C 6.617188 -1.460938 6.59375 -1.550781 6.5625 -1.65625 L 6.046875 -3.109375 Z M 5 -6.03125 C 4.863281 -6.414062 4.738281 -6.773438 4.625 -7.109375 C 4.519531 -7.453125 4.429688 -7.78125 4.359375 -8.09375 C 4.328125 -7.9375 4.289062 -7.785156 4.25 -7.640625 C 4.207031 -7.492188 4.160156 -7.34375 4.109375 -7.1875 C 4.066406 -7.03125 4.015625 -6.867188 3.953125 -6.703125 C 3.898438 -6.535156 3.835938 -6.351562 3.765625 -6.15625 L 2.875 -3.765625 L 5.8125 -3.765625 Z M 5 -6.03125 "/></g></g></g><g fill="#000000" fill-opacity="1"><g transform="translate(231.736573, 250.793436)"><g><path d="M 0.5 0 L 0.5 -0.546875 L 0.65625 -0.546875 C 0.800781 -0.546875 0.9375 -0.554688 1.0625 -0.578125 C 1.195312 -0.597656 1.3125 -0.640625 1.40625 -0.703125 C 1.507812 -0.773438 1.585938 -0.867188 1.640625 -0.984375 C 1.703125 -1.109375 1.734375 -1.273438 1.734375 -1.484375 L 1.734375 -7.796875 C 1.734375 -8.003906 1.703125 -8.164062 1.640625 -8.28125 C 1.585938 -8.40625 1.507812 -8.5 1.40625 -8.5625 C 1.3125 -8.632812 1.195312 -8.679688 1.0625 -8.703125 C 0.9375 -8.722656 0.800781 -8.734375 0.65625 -8.734375 L 0.5 -8.734375 L 0.5 -9.28125 L 4.28125 -9.28125 L 4.28125 -8.734375 L 4.109375 -8.734375 C 3.960938 -8.734375 3.820312 -8.722656 3.6875 -8.703125 C 3.5625 -8.679688 3.453125 -8.640625 3.359375 -8.578125 C 3.265625 -8.515625 3.1875 -8.425781 3.125 -8.3125 C 3.070312 -8.195312 3.046875 -8.046875 3.046875 -7.859375 L 3.046875 -0.640625 L 5.609375 -0.640625 C 5.796875 -0.640625 5.957031 -0.675781 6.09375 -0.75 C 6.238281 -0.820312 6.351562 -0.910156 6.4375 -1.015625 C 6.53125 -1.128906 6.597656 -1.253906 6.640625 -1.390625 C 6.691406 -1.535156 6.726562 -1.679688 6.75 -1.828125 L 6.875 -2.796875 L 7.546875 -2.796875 L 7.46875 0 Z M 0.5 0 "/></g></g></g><g fill="#000000" fill-opacity="1"><g transform="translate(250.233783, 250.793436)"><g><path d="M 3.21875 0.125 C 2.789062 0.125 2.414062 0.0820312 2.09375 0 C 1.769531 -0.09375 1.5 -0.21875 1.28125 -0.375 C 1.0625 -0.53125 0.894531 -0.722656 0.78125 -0.953125 C 0.675781 -1.179688 0.625 -1.429688 0.625 -1.703125 C 0.625 -1.960938 0.703125 -2.171875 0.859375 -2.328125 C 1.023438 -2.492188 1.257812 -2.578125 1.5625 -2.578125 C 1.570312 -2.304688 1.613281 -2.046875 1.6875 -1.796875 C 1.757812 -1.546875 1.863281 -1.320312 2 -1.125 C 2.132812 -0.9375 2.3125 -0.785156 2.53125 -0.671875 C 2.75 -0.566406 3.007812 -0.515625 3.3125 -0.515625 C 3.894531 -0.515625 4.347656 -0.65625 4.671875 -0.9375 C 5.003906 -1.21875 5.171875 -1.617188 5.171875 -2.140625 C 5.171875 -2.378906 5.132812 -2.585938 5.0625 -2.765625 C 5 -2.953125 4.890625 -3.125 4.734375 -3.28125 C 4.578125 -3.4375 4.367188 -3.582031 4.109375 -3.71875 C 3.859375 -3.863281 3.539062 -4.015625 3.15625 -4.171875 C 2.757812 -4.335938 2.410156 -4.515625 2.109375 -4.703125 C 1.804688 -4.890625 1.554688 -5.097656 1.359375 -5.328125 C 1.160156 -5.554688 1.007812 -5.8125 0.90625 -6.09375 C 0.8125 -6.382812 0.765625 -6.707031 0.765625 -7.0625 C 0.765625 -7.4375 0.832031 -7.769531 0.96875 -8.0625 C 1.113281 -8.351562 1.3125 -8.597656 1.5625 -8.796875 C 1.820312 -8.992188 2.125 -9.144531 2.46875 -9.25 C 2.820312 -9.351562 3.203125 -9.40625 3.609375 -9.40625 C 4.003906 -9.40625 4.347656 -9.363281 4.640625 -9.28125 C 4.941406 -9.207031 5.195312 -9.101562 5.40625 -8.96875 C 5.613281 -8.832031 5.769531 -8.675781 5.875 -8.5 C 5.988281 -8.320312 6.046875 -8.140625 6.046875 -7.953125 C 6.046875 -7.671875 5.953125 -7.457031 5.765625 -7.3125 C 5.578125 -7.175781 5.328125 -7.109375 5.015625 -7.109375 C 5.015625 -7.316406 4.988281 -7.515625 4.9375 -7.703125 C 4.894531 -7.898438 4.816406 -8.078125 4.703125 -8.234375 C 4.585938 -8.390625 4.4375 -8.515625 4.25 -8.609375 C 4.0625 -8.710938 3.832031 -8.765625 3.5625 -8.765625 C 3.3125 -8.765625 3.085938 -8.726562 2.890625 -8.65625 C 2.691406 -8.582031 2.523438 -8.476562 2.390625 -8.34375 C 2.253906 -8.21875 2.148438 -8.066406 2.078125 -7.890625 C 2.003906 -7.710938 1.96875 -7.507812 1.96875 -7.28125 C 1.96875 -7.019531 2 -6.789062 2.0625 -6.59375 C 2.132812 -6.394531 2.25 -6.21875 2.40625 -6.0625 C 2.570312 -5.90625 2.78125 -5.753906 3.03125 -5.609375 C 3.289062 -5.472656 3.613281 -5.328125 4 -5.171875 C 4.375 -5.015625 4.707031 -4.847656 5 -4.671875 C 5.300781 -4.503906 5.554688 -4.3125 5.765625 -4.09375 C 5.972656 -3.882812 6.128906 -3.644531 6.234375 -3.375 C 6.347656 -3.113281 6.40625 -2.816406 6.40625 -2.484375 C 6.40625 -2.066406 6.328125 -1.695312 6.171875 -1.375 C 6.023438 -1.050781 5.8125 -0.773438 5.53125 -0.546875 C 5.257812 -0.328125 4.925781 -0.160156 4.53125 -0.046875 C 4.132812 0.0664062 3.695312 0.125 3.21875 0.125 Z M 3.21875 0.125 "/></g></g></g></svg>